<?xml version="1.0" encoding="UTF-8" standalone="no"?>
<!DOCTYPE svg PUBLIC "-//W3C//DTD SVG 1.1//EN" "http://www.w3.org/Graphics/SVG/1.1/DTD/svg11.dtd">
<svg xmlns="http://www.w3.org/2000/svg" xmlns:dc="http://purl.org/dc/elements/1.1/" xmlns:xl="http://www.w3.org/1999/xlink" version="1.1" viewBox="-96.25294 148.46376 1008.3002 1364.1251" width="1008.3002" height="1364.1251">
  <defs>
    <marker orient="auto" overflow="visible" markerUnits="strokeWidth" id="StickArrow_Marker" stroke-linejoin="miter" stroke-miterlimit="10" viewBox="-1 -4 10 8" markerWidth="10" markerHeight="8" color="black">
      <g>
        <path d="M 8 0 L 0 0 M 0 -3 L 8 0 L 0 3" fill="none" stroke="currentColor" stroke-width="1"/>
      </g>
    </marker>
  </defs>
  <metadata> Produced by OmniGraffle 7.22.6\n2024-05-24 04:36:57 +0000</metadata>
  <g id="22__Generate_Parentheses" stroke-opacity="1" fill-opacity="1" stroke-dasharray="none" fill="none" stroke="none">
    <title>22. Generate Parentheses</title>
    <rect fill="white" x="-96.25294" y="148.46376" width="1008.3002" height="1364.1251"/>
    <g id="22__Generate_Parentheses_Layer_1">
      <title>Layer 1</title>
      <g id="Group_86">
        <g id="Graphic_20">
          <path d="M 709 250.5 L 814.5 250.5 C 818.9183 250.5 822.5 254.08172 822.5 258.5 L 822.5 280.5 C 822.5 284.91828 818.9183 288.5 814.5 288.5 L 709 288.5 C 704.5817 288.5 701 284.91828 701 280.5 L 701 258.5 C 701 254.08172 704.5817 250.5 709 250.5 Z" fill="white"/>
          <path d="M 708.7753 250.49982 L 814.6482 250.58553 C 819.0063 250.7657 822.4167 253.78894 822.5 258.5 M 822.4999 258.30002 L 822.5124 280.72255 C 822.6197 284.824 818.949 288.2635 814.5 288.5 M 814.7073 288.50018 L 708.8482 288.40702 C 704.4335 288.74858 701.1089 284.51145 701 280.5 M 701.0002 280.60927 L 700.9602 258.26165 C 701.3049 253.72236 704.7383 250.93638 709 250.5 M 708.8065 250.46292 L 814.553 250.5509 C 819.0688 250.7032 822.4792 253.72644 822.5625 258.4375 M 822.5417 258.26877 L 822.5533 280.53026 C 822.6822 284.7615 819.0115 288.201 814.5625 288.4375 M 814.7385 288.47027 L 709.1014 288.39422 C 704.496 288.68608 701.1714 284.44895 701.0625 280.4375 M 701.0059 280.57806 L 700.9665 258.41618 C 701.3674 253.65986 704.8008 250.87388 709.0625 250.4375" stroke="black" stroke-linecap="round" stroke-linejoin="round" stroke-width=".5"/>
          <text transform="translate(706 260)" fill="black">
            <tspan font-family="Cascadia Code PL" font-size="16" fill="black" x="41.6875" y="15" xml:space="preserve">[ ]</tspan>
          </text>
        </g>
        <g id="Graphic_21">
          <path d="M 648.5 348.75 L 754 348.75 C 758.4183 348.75 762 352.33172 762 356.75 L 762 378.75 C 762 383.1683 758.4183 386.75 754 386.75 L 648.5 386.75 C 644.0817 386.75 640.5 383.1683 640.5 378.75 L 640.5 356.75 C 640.5 352.33172 644.0817 348.75 648.5 348.75 Z" fill="white"/>
          <path d="M 648.3243 348.75 L 754.11365 348.7616 C 758.06 348.6825 761.8077 352.58784 762 356.75 M 762 356.6625 L 761.9886 378.9443 C 761.8941 382.76613 758.5294 386.5643 754 386.75 M 754.1063 386.75007 L 648.509 386.6824 C 643.95334 386.485 640.71265 383.32607 640.5 378.75 M 640.5006 378.8917 L 640.4024 356.45443 C 640.88 352.4915 644.163 348.73745 648.5 348.75 M 648.35555 348.69853 L 754.0207 348.7203 C 758.1225 348.62 761.8702 352.52534 762.0625 356.6875 M 762.0358 356.63127 L 762.0414 378.8352 C 761.9566 382.70363 758.5919 386.5018 754.0625 386.6875 M 754.1375 386.72587 L 648.6429 386.68138 C 644.01584 386.4225 640.77515 383.26357 640.5625 378.6875 M 640.51 378.86055 L 640.41096 356.6144 C 640.9425 352.429 644.2255 348.67495 648.5625 348.6875" stroke="black" stroke-linecap="round" stroke-linejoin="round" stroke-width=".5"/>
          <text transform="translate(645.5 358.25)" fill="black">
            <tspan font-family="Cascadia Code PL" font-size="16" fill="black" x="32.3125" y="15" xml:space="preserve">[ ( ]</tspan>
          </text>
        </g>
        <g id="Line_22">
          <path d="M 750.3179 288.0698 L 717.7114 340.48535 M 750.4547 287.9522 L 718.1512 339.9814" marker-end="url(#StickArrow_Marker)" stroke="black" stroke-linecap="round" stroke-linejoin="round" stroke-width="1"/>
        </g>
        <g id="Graphic_23">
          <path d="M 676.5 189 L 847 189 C 851.4183 189 855 192.58172 855 197 L 855 214.21216 C 855 218.63044 851.4183 222.21216 847 222.21216 L 676.5 222.21216 C 672.0817 222.21216 668.5 218.63044 668.5 214.21216 L 668.5 197 C 668.5 192.58172 672.0817 189 676.5 189 Z" fill="#c0ffff"/>
          <path d="M 676.4224 188.99995 L 847.0446 189.11395 C 851.0464 189.15024 854.5896 192.16835 855 197 M 855.0008 196.7625 L 854.9409 214.28748 C 855.3164 218.46534 851.6902 222.12802 847 222.21216 M 847.0918 222.21217 L 676.2056 222.19506 C 671.99885 221.83597 668.9201 219.03382 668.5 214.21216 M 668.4995 214.41874 L 668.53915 196.83999 C 668.16346 192.91944 672.0123 188.97323 676.5 189 M 676.45365 188.95065 L 846.9561 189.05909 C 851.1089 189.08774 854.6521 192.10585 855.0625 196.9375 M 855.0555 196.73134 L 854.9863 214.15718 C 855.3789 218.40284 851.7527 222.06552 847.0625 222.14966 M 847.123 222.19938 L 676.47605 222.18659 C 672.06135 221.77347 668.9826 218.97132 668.5625 214.14966 M 668.5161 214.38745 L 668.54994 197.0106 C 668.22596 192.85694 672.0748 188.91073 676.5625 188.9375" stroke="black" stroke-linecap="round" stroke-linejoin="round" stroke-width=".5"/>
          <text transform="translate(673.5 194)" fill="black">
            <tspan font-family="Chalkboard SE" font-size="16" fill="black" x="0" y="18" xml:space="preserve">pairs of parentheses: 2</tspan>
          </text>
        </g>
        <g id="Graphic_24">
          <path d="M 570.5 447 L 676 447 C 680.4183 447 684 450.5817 684 455 L 684 477 C 684 481.4183 680.4183 485 676 485 L 570.5 485 C 566.0817 485 562.5 481.4183 562.5 477 L 562.5 455 C 562.5 450.5817 566.0817 447 570.5 447 Z" fill="white"/>
          <path d="M 570.2839 446.9999 L 676.0101 447.04006 C 680.4922 446.8088 684.3642 450.71726 684 455 M 684.0005 454.875 L 683.9167 477.2346 C 684.08405 481.81757 680.77055 484.96665 676 485 M 676.1783 485 L 570.3664 485.0082 C 566.01864 484.99963 562.1402 481.5026 562.5 477 M 562.5002 477.239 L 562.48125 454.78277 C 562.2478 450.55994 565.937 447.40795 570.5 447 M 570.3152 446.9673 L 675.9238 446.9785 C 680.5547 446.7463 684.4267 450.65476 684.0625 454.9375 M 684.04906 454.8438 L 683.97434 477 C 684.14655 481.75507 680.83305 484.90415 676.0625 484.9375 M 676.20956 484.9929 L 570.5176 484.9803 C 566.08114 484.93713 562.2027 481.4401 562.5625 476.9375 M 562.5204 477.2078 L 562.49443 454.9588 C 562.3103 450.49744 565.9995 447.34545 570.5625 446.9375" stroke="black" stroke-linecap="round" stroke-linejoin="round" stroke-width=".5"/>
          <text transform="translate(567.5 456.5)" fill="black">
            <tspan font-family="Cascadia Code PL" font-size="16" fill="black" x="27.625" y="15" xml:space="preserve">[ (( ]</tspan>
          </text>
        </g>
        <g id="Line_25">
          <path d="M 686.5794 386.2251 L 644.6449 439.47356 M 686.7543 386.1394 L 645.0736 439.0003" marker-end="url(#StickArrow_Marker)" stroke="black" stroke-linecap="round" stroke-linejoin="round" stroke-width="1"/>
        </g>
        <g id="Graphic_26">
          <path d="M 531 545.25 L 636.5 545.25 C 640.9183 545.25 644.5 548.8317 644.5 553.25 L 644.5 575.25 C 644.5 579.6683 640.9183 583.25 636.5 583.25 L 531 583.25 C 526.5817 583.25 523 579.6683 523 575.25 L 523 553.25 C 523 548.8317 526.5817 545.25 531 545.25 Z" fill="white"/>
          <path d="M 530.882 545.2501 L 636.6911 545.1422 C 640.9812 545.2779 644.6461 549.1814 644.5 553.25 M 644.4995 553.1625 L 644.6213 575.3656 C 644.11505 579.4297 640.54765 583.3182 636.5 583.25 M 636.6638 583.2499 L 531.0005 583.3087 C 526.5594 583.1252 522.84764 579.9982 523 575.25 M 522.9994 575.3664 L 523.118 552.9183 C 522.9107 548.977 526.2863 545.6437 531 545.25 M 530.9132 545.18843 L 636.60916 545.09853 C 641.0437 545.2154 644.7086 549.1189 644.5625 553.1875 M 644.53586 553.1312 L 644.6692 575.1096 C 644.17755 579.3672 640.61015 583.2557 636.5625 583.1875 M 636.6951 583.223 L 531.10074 583.3046 C 526.6219 583.0627 522.91014 579.9357 523.0625 575.1875 M 523.0268 575.3351 L 523.1334 553.1051 C 522.9732 548.9145 526.3488 545.5812 531.0625 545.1875" stroke="black" stroke-linecap="round" stroke-linejoin="round" stroke-width=".5"/>
          <text transform="translate(528 554.75)" fill="black">
            <tspan font-family="Cascadia Code PL" font-size="16" fill="black" x="22.9375" y="15" xml:space="preserve">[ (() ]</tspan>
          </text>
        </g>
        <g id="Line_27">
          <path d="M 615.71294 484.7436 L 595.10055 536.7509 M 615.889 484.63885 L 595.46074 536.2418" marker-end="url(#StickArrow_Marker)" stroke="black" stroke-linecap="round" stroke-linejoin="round" stroke-width="1"/>
        </g>
        <g id="Graphic_28">
          <path d="M 509 643.5 L 614.5 643.5 C 618.9183 643.5 622.5 647.0817 622.5 651.5 L 622.5 673.5 C 622.5 677.9183 618.9183 681.5 614.5 681.5 L 509 681.5 C 504.5817 681.5 501 677.9183 501 673.5 L 501 651.5 C 501 647.0817 504.5817 643.5 509 643.5 Z" fill="#c0ffc0"/>
          <path d="M 508.7926 643.5 L 614.62204 643.4946 C 618.974 643.7427 622.428 646.7619 622.5 651.5 M 622.4992 651.2625 L 622.5735 673.7466 C 622.5479 677.93435 618.7084 681.6698 614.5 681.5 M 614.6493 681.49985 L 508.69707 681.6093 C 504.6006 681.25996 501.0551 677.61015 501 673.5 M 501 673.6813 L 501.00234 651.3039 C 501.07 647.4041 505.0193 643.8795 509 643.5 M 508.82384 643.4405 L 614.5446 643.4373 C 619.0365 643.6802 622.4905 646.6994 622.5625 651.4375 M 622.55455 651.23114 L 622.6141 673.4695 C 622.6104 677.87185 618.7709 681.6073 614.5625 681.4375 M 614.6806 681.4843 L 508.93386 681.5977 C 504.6631 681.19746 501.1176 677.54765 501.0625 673.4375 M 501.00336 673.65 L 501.0224 651.5015 C 501.1325 647.3416 505.0818 643.817 509.0625 643.4375" stroke="black" stroke-linecap="round" stroke-linejoin="round" stroke-width=".5"/>
          <text transform="translate(506 653)" fill="black">
            <tspan font-family="Cascadia Code PL" font-size="16" fill="black" x="18.25" y="15" xml:space="preserve">[ (()) ]</tspan>
          </text>
        </g>
        <g id="Line_29">
          <path d="M 579.6357 582.6322 L 567.9975 633.9377 M 579.80586 582.5175 L 568.2227 633.3986" marker-end="url(#StickArrow_Marker)" stroke="black" stroke-linecap="round" stroke-linejoin="round" stroke-width="1"/>
        </g>
        <g id="Graphic_32">
          <path d="M 719 447 L 824.5 447 C 828.9183 447 832.5 450.5817 832.5 455 L 832.5 477 C 832.5 481.4183 828.9183 485 824.5 485 L 719 485 C 714.5817 485 711 481.4183 711 477 L 711 455 C 711 450.5817 714.5817 447 719 447 Z" fill="white"/>
          <path d="M 718.80126 447.0001 L 824.484 446.94915 C 828.9589 446.7843 832.8754 450.69024 832.5 455 M 832.5002 454.83745 L 832.4777 477.07116 C 832.5113 481.0459 829.0299 485.3729 824.5 485 M 824.6203 485.00005 L 718.96524 484.96 C 714.6852 485.3994 710.5864 481.6013 711 477 M 710.9999 477.1235 L 711.0233 455.0125 C 711.3985 450.3561 714.718 447.3511 719 447 M 718.8325 446.94487 L 824.4154 446.8962 C 829.0214 446.7218 832.9379 450.62774 832.5625 454.9375 M 832.5622 454.8062 L 832.5351 476.93914 C 832.5738 480.9834 829.0924 485.3104 824.5625 484.9375 M 824.6516 484.9761 L 719.1001 484.9338 C 714.7477 485.3369 710.6489 481.5388 711.0625 476.9375 M 711.0177 477.09225 L 711.0504 455.04417 C 711.461 450.2936 714.7805 447.2886 719.0625 446.9375" stroke="black" stroke-linecap="round" stroke-linejoin="round" stroke-width=".5"/>
          <text transform="translate(716 456.5)" fill="black">
            <tspan font-family="Cascadia Code PL" font-size="16" fill="black" x="27.625" y="15" xml:space="preserve">[ () ]</tspan>
          </text>
        </g>
        <g id="Line_33">
          <path d="M 714.5298 386.2669 L 752.9828 438.773 M 714.67825 386.1247 L 752.9691 438.2655" marker-end="url(#StickArrow_Marker)" stroke="black" stroke-linecap="round" stroke-linejoin="round" stroke-width="1"/>
        </g>
        <g id="Graphic_34">
          <path d="M 741.5 545.25 L 847 545.25 C 851.4183 545.25 855 548.8317 855 553.25 L 855 575.25 C 855 579.6683 851.4183 583.25 847 583.25 L 741.5 583.25 C 737.0817 583.25 733.5 579.6683 733.5 575.25 L 733.5 553.25 C 733.5 548.8317 737.0817 545.25 741.5 545.25 Z" fill="white"/>
          <path d="M 741.3993 545.24995 L 847.165 545.30154 C 851.4493 545.25476 855.1574 549.1544 855 553.25 M 855.0004 553.1249 L 854.93 575.4522 C 855.4269 579.5494 851.6907 582.8408 847 583.25 M 847.1058 583.25 L 741.1618 583.26055 C 737.2217 583.51476 733.2938 580.0969 733.5 575.25 M 733.5008 575.4384 L 733.4084 553.14806 C 733.1713 548.78114 737.0673 545.58686 741.5 545.25 M 741.4306 545.1969 L 847.1008 545.2662 C 851.5118 545.19226 855.2199 549.0919 855.0625 553.1875 M 855.0502 553.09374 L 854.98 575.299 C 855.4894 579.4869 851.7532 582.7783 847.0625 583.1875 M 847.1371 583.2375 L 741.4332 583.2581 C 737.2842 583.45226 733.3563 580.0344 733.5625 575.1875 M 733.5258 575.40716 L 733.43935 553.1905 C 733.2338 548.71864 737.1298 545.52436 741.5625 545.1875" stroke="black" stroke-linecap="round" stroke-linejoin="round" stroke-width=".5"/>
          <text transform="translate(738.5 554.75)" fill="black">
            <tspan font-family="Cascadia Code PL" font-size="16" fill="black" x="22.9375" y="15" xml:space="preserve">[ ()( ]</tspan>
          </text>
        </g>
        <g id="Line_35">
          <path d="M 775.8847 484.06835 L 787.9222 535.87357 M 776.0296 483.9387 L 788.0048 535.37563" marker-end="url(#StickArrow_Marker)" stroke="black" stroke-linecap="round" stroke-linejoin="round" stroke-width="1"/>
        </g>
        <g id="Graphic_36">
          <path d="M 758 643.5 L 863.5 643.5 C 867.9183 643.5 871.5 647.0817 871.5 651.5 L 871.5 673.5 C 871.5 677.9183 867.9183 681.5 863.5 681.5 L 758 681.5 C 753.5817 681.5 750 677.9183 750 673.5 L 750 651.5 C 750 647.0817 753.5817 643.5 758 643.5 Z" fill="#c0ffc0"/>
          <path d="M 757.8099 643.5002 L 863.5959 643.4037 C 867.9416 643.7197 871.4393 646.7349 871.5 651.5 M 871.5005 651.4124 L 871.3822 673.5832 C 871.4741 678.0478 868.3515 681.1924 863.5 681.5 M 863.5913 681.49995 L 757.7959 681.5611 C 753.7656 681.6478 750.0013 677.70885 750 673.5 M 749.9999 673.5658 L 750.0443 651.5336 C 749.8259 647.205 753.4167 643.8226 758 643.5 M 757.8412 643.44926 L 863.5362 643.355 C 868.0041 643.6572 871.5018 646.6724 871.5625 651.4375 M 871.538 651.3812 L 871.4249 673.4088 C 871.5366 677.9853 868.414 681.1299 863.5625 681.4375 M 863.6226 681.49884 L 758.0163 681.5511 C 753.8281 681.5853 750.0638 677.64635 750.0625 673.4375 M 750.0009 673.53445 L 750.0471 651.5868 C 749.8884 647.1425 753.4792 643.7601 758.0625 643.4375" stroke="black" stroke-linecap="round" stroke-linejoin="round" stroke-width=".5"/>
          <text transform="translate(755 653)" fill="black">
            <tspan font-family="Cascadia Code PL" font-size="16" fill="black" x="18.25" y="15" xml:space="preserve">[ ()() ]</tspan>
          </text>
        </g>
        <g id="Line_37">
          <path d="M 797.3491 582.69336 L 805.8678 634.4069 M 797.4858 582.5664 L 806.0308 633.9157" marker-end="url(#StickArrow_Marker)" stroke="black" stroke-linecap="round" stroke-linejoin="round" stroke-width="1"/>
        </g>
      </g>
      <g id="Group_84">
        <g id="Graphic_38">
          <path d="M 481.5 839.5 L 587 839.5 C 591.4183 839.5 595 843.0817 595 847.5 L 595 869.5 C 595 873.9183 591.4183 877.5 587 877.5 L 481.5 877.5 C 477.0817 877.5 473.5 873.9183 473.5 869.5 L 473.5 847.5 C 473.5 843.0817 477.0817 839.5 481.5 839.5 Z" fill="white"/>
          <path d="M 481.408 839.5 L 587.0269 839.5061 C 591.4337 839.9408 594.72115 842.9491 595 847.5 M 594.9991 847.2624 L 595.0862 869.7142 C 595.3936 874.2907 591.12856 877.2939 587 877.5 M 587.07685 877.4999 L 481.43 877.6116 C 477.311 877.5262 473.70875 873.9544 473.5 869.5 M 473.5004 869.6306 L 473.42926 847.4192 C 473.49153 843.3737 476.766 839.8084 481.5 839.5 M 481.43926 839.4512 L 586.9716 839.4438 C 591.4962 839.8783 594.78365 842.8866 595.0625 847.4375 M 595.05564 847.2311 L 595.11975 869.5185 C 595.4561 874.2282 591.19106 877.2314 587.0625 877.4375 M 587.1081 877.479 L 481.59944 877.5942 C 477.3735 877.4637 473.77125 873.8919 473.5625 869.4375 M 473.50866 869.5995 L 473.43607 847.4833 C 473.55403 843.3112 476.8285 839.7459 481.5625 839.4375" stroke="black" stroke-linecap="round" stroke-linejoin="round" stroke-width=".5"/>
          <text transform="translate(478.5 849)" fill="black">
            <tspan font-family="Cascadia Code PL" font-size="16" fill="black" x="41.6875" y="15" xml:space="preserve">[ ]</tspan>
          </text>
        </g>
        <g id="Graphic_39">
          <path d="M 440.5 937.75 L 546 937.75 C 550.4183 937.75 554 941.3317 554 945.75 L 554 967.75 C 554 972.1683 550.4183 975.75 546 975.75 L 440.5 975.75 C 436.0817 975.75 432.5 972.1683 432.5 967.75 L 432.5 945.75 C 432.5 941.3317 436.0817 937.75 440.5 937.75 Z" fill="white"/>
          <path d="M 440.26955 937.7501 L 545.9924 937.6822 C 549.9786 937.8527 553.6121 941.748 554 945.75 M 553.99965 945.6249 L 554.0621 967.936 C 554.1639 972.2261 550.20894 975.5947 546 975.75 M 546.16335 975.7502 L 440.4033 975.6365 C 436.3343 976.1666 432.8125 971.8854 432.5 967.75 M 432.4991 967.9131 L 432.62285 945.612 C 432.57155 941.2668 435.6907 937.6095 440.5 937.75 M 440.3008 937.7181 L 545.9393 937.6445 C 550.0411 937.7902 553.6746 941.6855 554.0625 945.6875 M 554.0501 945.5936 L 554.1078 967.8234 C 554.2264 972.1636 550.27144 975.5322 546.0625 975.6875 M 546.1946 975.735 L 440.64096 975.6313 C 436.3968 976.104 432.875 971.8229 432.5625 967.6875 M 432.51095 967.8817 L 432.63056 945.6812 C 432.63405 941.2043 435.7532 937.547 440.5625 937.6875" stroke="black" stroke-linecap="round" stroke-linejoin="round" stroke-width=".5"/>
          <text transform="translate(437.5 947.25)" fill="black">
            <tspan font-family="Cascadia Code PL" font-size="16" fill="black" x="32.3125" y="15" xml:space="preserve">[ ( ]</tspan>
          </text>
        </g>
        <g id="Line_40">
          <path d="M 526.6042 876.8318 L 504.3662 929.3497 M 526.78574 876.7307 L 504.6682 928.9428" marker-end="url(#StickArrow_Marker)" stroke="black" stroke-linecap="round" stroke-linejoin="round" stroke-width="1"/>
        </g>
        <g id="Graphic_41">
          <path d="M 449 778 L 619.5 778 C 623.9183 778 627.5 781.5817 627.5 786 L 627.5 803.2122 C 627.5 807.6304 623.9183 811.2122 619.5 811.2122 L 449 811.2122 C 444.5817 811.2122 441 807.6304 441 803.2122 L 441 786 C 441 781.5817 444.5817 778 449 778 Z" fill="#c0ffff"/>
          <path d="M 448.86763 778 L 619.67335 778.0345 C 623.4887 778.3089 627.77766 781.3285 627.5 786 M 627.4999 785.9124 L 627.5145 803.27915 C 627.20535 807.9409 623.8697 811.15845 619.5 811.2122 M 619.64886 811.2122 L 448.7874 811.1493 C 444.8657 811.4923 440.6363 807.5932 441 803.2122 M 440.9999 803.4401 L 441.0078 785.9975 C 441.23903 781.6898 444.9237 777.8453 449 778 M 448.8989 777.9388 L 619.6247 777.9833 C 623.5512 778.2464 627.84016 781.266 627.5625 785.9375 M 627.5381 785.8811 L 627.5527 803.1454 C 627.26785 807.8784 623.9322 811.09595 619.5625 811.1497 M 619.6801 811.2084 L 448.9741 811.13655 C 444.9282 811.4298 440.6988 807.5307 441.0625 803.1497 M 441.019 803.4089 L 441.01955 786.0777 C 441.30153 781.6273 444.9862 777.7828 449.0625 777.9375" stroke="black" stroke-linecap="round" stroke-linejoin="round" stroke-width=".5"/>
          <text transform="translate(446 783)" fill="black">
            <tspan font-family="Chalkboard SE" font-size="16" fill="black" x="0" y="18" xml:space="preserve">pairs of parentheses: 3</tspan>
          </text>
        </g>
        <g id="Line_43">
          <path d="M 504.0111 974.9885 L 535.2712 1027.2812 M 504.23135 974.8066 L 535.24905 1026.8923" marker-end="url(#StickArrow_Marker)" stroke="black" stroke-linecap="round" stroke-linejoin="round" stroke-width="1"/>
        </g>
        <g id="Graphic_44">
          <path d="M 299.75 1036 L 405.25 1036 C 409.6683 1036 413.25 1039.5817 413.25 1044 L 413.25 1066 C 413.25 1070.4183 409.6683 1074 405.25 1074 L 299.75 1074 C 295.33172 1074 291.75 1070.4183 291.75 1066 L 291.75 1044 C 291.75 1039.5817 295.33172 1036 299.75 1036 Z" fill="white"/>
          <path d="M 299.57725 1035.9999 L 405.3198 1036.063 C 409.65907 1036.1965 413.2005 1039.2079 413.25 1044 M 413.2503 1043.8749 L 413.1927 1066.1073 C 413.14837 1070.6643 409.86084 1074.0986 405.25 1074 M 405.47087 1074 L 299.64477 1074.0129 C 295.68666 1073.653 291.69748 1070.3076 291.75 1066 M 291.74946 1066.1378 L 291.8364 1043.8258 C 291.34557 1039.5026 295.4477 1036.2658 299.75 1036 M 299.6085 1035.9576 L 405.2778 1036.0227 C 409.72157 1036.134 413.263 1039.1454 413.3125 1043.9375 M 413.3014 1043.8437 L 413.23564 1065.848 C 413.21087 1070.6018 409.92334 1074.0361 405.3125 1073.9375 M 405.5021 1073.982 L 299.84878 1074.0046 C 295.74916 1073.5905 291.75998 1070.245 291.8125 1065.9375 M 291.77937 1066.1065 L 291.85302 1043.9222 C 291.40807 1039.4401 295.5102 1036.2033 299.8125 1035.9375" stroke="black" stroke-linecap="round" stroke-linejoin="round" stroke-width=".5"/>
          <text transform="translate(296.75 1045.5)" fill="black">
            <tspan font-family="Cascadia Code PL" font-size="16" fill="black" x="27.625" y="15" xml:space="preserve">[ (( ]</tspan>
          </text>
        </g>
        <g id="Line_45">
          <path d="M 466.43726 975.4673 L 387.4603 1030.4523 M 466.62075 975.4263 L 387.8546 1030.2166" marker-end="url(#StickArrow_Marker)" stroke="black" stroke-linecap="round" stroke-linejoin="round" stroke-width="1"/>
        </g>
        <g id="Graphic_46">
          <path d="M 44 1134.25 L 149.5 1134.25 C 153.91828 1134.25 157.5 1137.8317 157.5 1142.25 L 157.5 1164.25 C 157.5 1168.6683 153.91828 1172.25 149.5 1172.25 L 44 1172.25 C 39.58172 1172.25 36 1168.6683 36 1164.25 L 36 1142.25 C 36 1137.8317 39.58172 1134.25 44 1134.25 Z" fill="white"/>
          <path d="M 43.925337 1134.25 L 149.50078 1134.1652 C 153.90067 1134.6677 157.23242 1137.672 157.5 1142.25 M 157.50041 1142.1624 L 157.3947 1164.4883 C 157.82545 1168.2718 154.2716 1172.4502 149.5 1172.25 M 149.70637 1172.2499 L 43.778854 1172.3134 C 39.96386 1172.66 36.154936 1168.8031 36 1164.25 M 36.000265 1164.4526 L 35.971186 1142.2114 C 35.74689 1137.9247 39.547025 1134.5015 44 1134.25 M 43.95658 1134.2099 L 149.46317 1134.1115 C 153.96317 1134.6052 157.29492 1137.6096 157.5625 1142.1875 M 157.53922 1142.1311 L 157.43052 1164.2078 C 157.88795 1168.2093 154.3341 1172.3877 149.5625 1172.1875 M 149.73764 1172.2433 L 43.9319 1172.2976 C 40.02636 1172.5975 36.217436 1168.7406 36.0625 1164.1875 M 36.00615 1164.4214 L 35.992006 1142.3186 C 35.80939 1137.8622 39.609525 1134.439 44.0625 1134.1875" stroke="black" stroke-linecap="round" stroke-linejoin="round" stroke-width=".5"/>
          <text transform="translate(41 1143.75)" fill="black">
            <tspan font-family="Cascadia Code PL" font-size="16" fill="black" x="22.9375" y="15" xml:space="preserve">[ ((( ]</tspan>
          </text>
        </g>
        <g id="Line_47">
          <path d="M 303.8374 1073.6933 L 154.79939 1131.1613 M 303.9961 1073.6558 L 155.21518 1131.0496" marker-end="url(#StickArrow_Marker)" stroke="black" stroke-linecap="round" stroke-linejoin="round" stroke-width="1"/>
        </g>
        <g id="Line_48">
          <path d="M 87.93942 1171.6557 L 63.47128 1223.8728 M 88.08881 1171.5421 L 63.72284 1223.5226" marker-end="url(#StickArrow_Marker)" stroke="black" stroke-linecap="round" stroke-linejoin="round" stroke-width="1"/>
        </g>
        <g id="Graphic_50">
          <path d="M -3 1232.5 L 102.5 1232.5 C 106.91828 1232.5 110.5 1236.0817 110.5 1240.5 L 110.5 1262.5 C 110.5 1266.9183 106.91828 1270.5 102.5 1270.5 L -3 1270.5 C -7.418278 1270.5 -11 1266.9183 -11 1262.5 L -11 1240.5 C -11 1236.0817 -7.418278 1232.5 -3 1232.5 Z" fill="white"/>
          <path d="M -3.0659968 1232.4999 L 102.80022 1232.6201 C 106.88505 1232.4582 110.67987 1236.3504 110.5 1240.5 M 110.49953 1240.2998 L 110.5513 1262.5628 C 110.79056 1267.0216 106.70947 1270.9033 102.5 1270.5 M 102.67739 1270.5001 L -3.1404716 1270.4141 C -7.834759 1270.677 -11.313799 1266.6607 -11 1262.5 M -10.999949 1262.6449 L -11.00779 1240.2325 C -10.927042 1236.504 -7.754297 1232.7231 -3 1232.5 M -2.8640645 1232.5 L -3.180419 1232.5 M -3.0347416 1232.4641 L 102.58401 1232.5704 C 106.94755 1232.3957 110.74237 1236.2879 110.5625 1240.4375 M 110.54508 1240.2685 L 110.60153 1262.4273 C 110.85306 1266.959 106.77197 1270.8408 102.5625 1270.4375 M 102.70862 1270.4852 L -2.901874 1270.3838 C -7.772259 1270.6146 -11.251299 1266.5982 -10.9375 1262.4375 M -10.97962 1262.6136 L -10.980026 1240.3612 C -10.864542 1236.4415 -7.691797 1232.6606 -2.9375 1232.4375 M -2.8328145 1232.4713 L -2.96875 1232.4971" stroke="black" stroke-linecap="round" stroke-linejoin="round" stroke-width=".5"/>
          <text transform="translate(-6 1242)" fill="black">
            <tspan font-family="Cascadia Code PL" font-size="16" fill="black" x="18.25" y="15" xml:space="preserve">[ ((() ]</tspan>
          </text>
        </g>
        <g id="Line_51">
          <path d="M 44.54244 1269.7132 L 28.21545 1327.3213 M 44.74104 1269.609 L 28.704197 1326.2796" marker-end="url(#StickArrow_Marker)" stroke="black" stroke-linecap="round" stroke-linejoin="round" stroke-width="1"/>
        </g>
        <g id="Graphic_52">
          <path d="M -32.5 1335.7122 L 73 1335.7122 C 77.41828 1335.7122 81 1339.2939 81 1343.7122 L 81 1365.7122 C 81 1370.1304 77.41828 1373.7122 73 1373.7122 L -32.5 1373.7122 C -36.91828 1373.7122 -40.5 1370.1304 -40.5 1365.7122 L -40.5 1343.7122 C -40.5 1339.2939 -36.91828 1335.7122 -32.5 1335.7122 Z" fill="white"/>
          <path d="M -32.655414 1335.7122 L 73.23119 1335.6842 C 77.376415 1335.8854 80.96178 1338.893 81 1343.7122 M 80.99997 1343.5495 L 81.00365 1365.906 C 80.830335 1370.4761 77.37023 1373.3334 73 1373.7122 M 73.16289 1373.7122 L -32.756384 1373.6769 C -37.27885 1373.7629 -40.60634 1370.1184 -40.5 1365.7122 M -40.49883 1365.9219 L -40.623235 1343.5802 C -40.261915 1339.0114 -36.521303 1335.921 -32.5 1335.7122 M -32.624165 1335.6785 L 73.01939 1335.6526 C 77.438915 1335.8229 81.02428 1338.8305 81.0625 1343.6497 M 81.033265 1343.5182 L 81.04641 1365.7494 C 80.892835 1370.4136 77.43273 1373.2709 73.0625 1373.6497 M 73.19413 1373.7087 L -32.568765 1373.6702 C -37.21635 1373.7004 -40.54384 1370.0559 -40.4375 1365.6497 M -40.47128 1365.8907 L -40.591043 1343.7197 C -40.199415 1338.9489 -36.458803 1335.8586 -32.4375 1335.6497" stroke="black" stroke-linecap="round" stroke-linejoin="round" stroke-width=".5"/>
          <text transform="translate(-35.5 1345.2122)" fill="black">
            <tspan font-family="Cascadia Code PL" font-size="16" fill="black" x="13.5625" y="15" xml:space="preserve">[ ((()) ]</tspan>
          </text>
        </g>
        <g id="Line_53">
          <path d="M 17.32082 1373.2922 L 8.958971 1424.7272 M 17.512824 1373.178 L 9.267192 1423.656" marker-end="url(#StickArrow_Marker)" stroke="black" stroke-linecap="round" stroke-linejoin="round" stroke-width="1"/>
        </g>
        <g id="Graphic_54">
          <path d="M -48 1433.9622 L 57.5 1433.9622 C 61.91828 1433.9622 65.5 1437.5439 65.5 1441.9622 L 65.5 1463.9622 C 65.5 1468.3804 61.91828 1471.9622 57.5 1471.9622 L -48 1471.9622 C -52.41828 1471.9622 -56 1468.3804 -56 1463.9622 L -56 1441.9622 C -56 1437.5439 -52.41828 1433.9622 -48 1433.9622 Z" fill="#c0ffc0"/>
          <path d="M -48.24483 1433.962 L 57.662165 1434.0368 C 61.86752 1434.3567 65.24368 1437.3572 65.5 1441.9622 M 65.50025 1441.837 L 65.45592 1464.037 C 65.75523 1468.0921 62.030986 1471.685 57.5 1471.9622 M 57.6484 1471.9621 L -48.122297 1471.9774 C -52.74465 1471.8918 -55.89888 1468.614 -56 1463.9622 M -56.00005 1464.0493 L -55.986726 1441.7158 C -55.60876 1437.4365 -52.171964 1434.1568 -48 1433.9622 M -48.21358 1433.9305 L 57.4548 1433.9914 C 61.93002 1434.2942 65.30618 1437.2947 65.5625 1441.8997 M 65.55254 1441.8058 L 65.49129 1463.8592 C 65.81773 1468.0296 62.093486 1471.6225 57.5625 1471.8997 M 57.67965 1471.9388 L -47.98564 1471.9633 C -52.68215 1471.8293 -55.83638 1468.5515 -55.9375 1463.8997 M -55.99653 1464.018 L -55.98331 1441.866 C -55.54626 1437.374 -52.109464 1434.0943 -47.9375 1433.8997" stroke="black" stroke-linecap="round" stroke-linejoin="round" stroke-width=".5"/>
          <text transform="translate(-51 1443.4622)" fill="black">
            <tspan font-family="Cascadia Code PL" font-size="16" fill="black" x="8.875" y="15" xml:space="preserve">[ ((())) ]</tspan>
          </text>
        </g>
        <g id="Graphic_55">
          <path d="M 212 1134.25 L 317.5 1134.25 C 321.91828 1134.25 325.5 1137.8317 325.5 1142.25 L 325.5 1164.25 C 325.5 1168.6683 321.91828 1172.25 317.5 1172.25 L 212 1172.25 C 207.58172 1172.25 204 1168.6683 204 1164.25 L 204 1142.25 C 204 1137.8317 207.58172 1134.25 212 1134.25 Z" fill="white"/>
          <path d="M 211.8042 1134.25 L 317.62765 1134.2506 C 322.3157 1134.3048 325.13463 1138.194 325.5 1142.25 M 325.5006 1142.0498 L 325.4323 1164.2966 C 325.52113 1168.952 322.11137 1172.0236 317.5 1172.25 M 317.7349 1172.2499 L 211.851 1172.2906 C 207.27302 1172.5617 204.20485 1168.5828 204 1164.25 M 204.00024 1164.3696 L 203.95552 1141.9464 C 203.60469 1138.239 207.7527 1133.9957 212 1134.25 M 211.83546 1134.204 L 317.4225 1134.1986 C 322.3782 1134.2423 325.19713 1138.1314 325.5625 1142.1875 M 325.54678 1142.0186 L 325.47935 1164.202 C 325.58363 1168.8895 322.17387 1171.9611 317.5625 1172.1875 M 317.76616 1172.2322 L 212.05593 1172.2883 C 207.33552 1172.4992 204.26735 1168.5203 204.0625 1164.1875 M 204.00737 1164.3384 L 203.96118 1142.1021 C 203.66719 1138.1765 207.8152 1133.9332 212.0625 1134.1875" stroke="black" stroke-linecap="round" stroke-linejoin="round" stroke-width=".5"/>
          <text transform="translate(209 1143.75)" fill="black">
            <tspan font-family="Cascadia Code PL" font-size="16" fill="black" x="22.9375" y="15" xml:space="preserve">[ (() ]</tspan>
          </text>
        </g>
        <g id="Line_56">
          <path d="M 335.92074 1073.5615 L 288.12717 1127.273 M 336.1335 1073.5146 L 288.95708 1126.5213" marker-end="url(#StickArrow_Marker)" stroke="black" stroke-linecap="round" stroke-linejoin="round" stroke-width="1"/>
        </g>
        <g id="Graphic_57">
          <path d="M 164 1232.5 L 269.5 1232.5 C 273.91828 1232.5 277.5 1236.0817 277.5 1240.5 L 277.5 1262.5 C 277.5 1266.9183 273.91828 1270.5 269.5 1270.5 L 164 1270.5 C 159.58172 1270.5 156 1266.9183 156 1262.5 L 156 1240.5 C 156 1236.0817 159.58172 1232.5 164 1232.5 Z" fill="white"/>
          <path d="M 163.9023 1232.4999 L 269.80862 1232.6031 C 274.29153 1232.7639 277.8002 1235.7745 277.5 1240.5 M 277.50085 1240.3373 L 277.38465 1262.6776 C 277.06995 1266.5733 274.27213 1270.3752 269.5 1270.5 M 269.7204 1270.4998 L 163.98508 1270.591 C 159.3095 1270.692 156.41231 1267.0784 156 1262.5 M 155.99923 1262.6844 L 156.09216 1240.332 C 155.75343 1235.7852 159.60204 1232.2315 164 1232.5 M 163.93356 1232.456 L 269.6079 1232.5686 C 274.35403 1232.7014 277.8627 1235.712 277.5625 1240.4375 M 277.53475 1240.306 L 277.42423 1262.5618 C 277.13245 1266.5108 274.33463 1270.3127 269.5625 1270.4375 M 269.75168 1270.4935 L 164.13905 1270.5813 C 159.372 1270.6296 156.47481 1267.0159 156.0625 1262.4375 M 156.0136 1262.6531 L 156.10017 1240.4983 C 155.81593 1235.7227 159.66454 1232.169 164.0625 1232.4375" stroke="black" stroke-linecap="round" stroke-linejoin="round" stroke-width=".5"/>
          <text transform="translate(161 1242)" fill="black">
            <tspan font-family="Cascadia Code PL" font-size="16" fill="black" x="18.25" y="15" xml:space="preserve">[ (()( ]</tspan>
          </text>
        </g>
        <g id="Line_58">
          <path d="M 255.8791 1171.3997 L 230.15515 1224.5482 M 256.10207 1171.3221 L 230.71564 1223.613" marker-end="url(#StickArrow_Marker)" stroke="black" stroke-linecap="round" stroke-linejoin="round" stroke-width="1"/>
        </g>
        <g id="Graphic_59">
          <path d="M 143.5 1334.4243 L 249 1334.4243 C 253.41828 1334.4243 257 1338.006 257 1342.4243 L 257 1364.4243 C 257 1368.8426 253.41828 1372.4243 249 1372.4243 L 143.5 1372.4243 C 139.08172 1372.4243 135.5 1368.8426 135.5 1364.4243 L 135.5 1342.4243 C 135.5 1338.006 139.08172 1334.4243 143.5 1334.4243 Z" fill="white"/>
          <path d="M 143.31288 1334.4244 L 249.2396 1334.3794 C 253.78888 1334.0252 257.0821 1337.913 257 1342.4243 M 256.9995 1342.2991 L 257.0881 1364.483 C 256.98417 1368.738 253.04923 1372.401 249 1372.4243 M 249.2059 1372.4245 L 143.36917 1372.3157 C 138.86025 1372.4884 135.23612 1369.2483 135.5 1364.4243 M 135.50026 1364.6736 L 135.47657 1342.1419 C 135.41768 1337.8846 138.95138 1334.1416 143.5 1334.4243 M 143.34412 1334.3826 L 249.04328 1334.3318 C 253.85138 1333.9627 257.1446 1337.8504 257.0625 1342.3618 M 257.0524 1342.2678 L 257.1191 1364.3458 C 257.04667 1368.6756 253.11173 1372.3385 249.0625 1372.3618 M 249.23716 1372.3984 L 143.47214 1372.2987 C 138.92275 1372.4259 135.29862 1369.1858 135.5625 1364.3618 M 135.52184 1364.6424 L 135.48915 1342.3191 C 135.48018 1337.822 139.01388 1334.0791 143.5625 1334.3618" stroke="black" stroke-linecap="round" stroke-linejoin="round" stroke-width=".5"/>
          <text transform="translate(140.5 1343.9243)" fill="black">
            <tspan font-family="Cascadia Code PL" font-size="16" fill="black" x="13.5625" y="15" xml:space="preserve">[ (()() ]</tspan>
          </text>
        </g>
        <g id="Line_60">
          <path d="M 213.03915 1269.9589 L 201.762 1325.1271 M 213.26234 1269.854 L 202.15862 1324.1376" marker-end="url(#StickArrow_Marker)" stroke="black" stroke-linecap="round" stroke-linejoin="round" stroke-width="1"/>
        </g>
        <g id="Graphic_61">
          <path d="M 132 1433.9622 L 237.5 1433.9622 C 241.91828 1433.9622 245.5 1437.5439 245.5 1441.9622 L 245.5 1463.9622 C 245.5 1468.3804 241.91828 1471.9622 237.5 1471.9622 L 132 1471.9622 C 127.58172 1471.9622 124 1468.3804 124 1463.9622 L 124 1441.9622 C 124 1437.5439 127.58172 1433.9622 132 1433.9622 Z" fill="#c0ffc0"/>
          <path d="M 131.91096 1433.9621 L 237.67056 1434.0198 C 242.2861 1433.7748 245.364 1437.665 245.5 1441.9622 M 245.49984 1441.8744 L 245.54048 1464.1518 C 245.90205 1468.5238 241.71 1472.0404 237.5 1471.9622 M 237.69142 1471.9623 L 131.81576 1471.904 C 127.3976 1471.9043 123.94358 1468.148 124 1463.9622 M 123.99935 1464.0889 L 124.11336 1441.8153 C 124.07871 1437.592 127.30072 1433.6652 132 1433.9622 M 131.94221 1433.9225 L 237.4787 1433.9584 C 242.3486 1433.7123 245.4265 1437.6024 245.5625 1441.8997 M 245.5405 1441.8431 L 245.59524 1463.9935 C 245.96455 1468.4613 241.7725 1471.978 237.5625 1471.8997 M 237.72266 1471.9476 L 132.05527 1471.8796 C 127.4601 1471.8418 124.00608 1468.0856 124.0625 1463.8997 M 124.02816 1464.0576 L 124.12813 1442.0032 C 124.14121 1437.5296 127.36322 1433.6027 132.0625 1433.8997" stroke="black" stroke-linecap="round" stroke-linejoin="round" stroke-width=".5"/>
          <text transform="translate(129 1443.4622)" fill="black">
            <tspan font-family="Cascadia Code PL" font-size="16" fill="black" x="8.875" y="15" xml:space="preserve">[ (()()) ]</tspan>
          </text>
        </g>
        <g id="Line_62">
          <path d="M 194.16528 1371.521 L 187.63472 1424.9392 M 194.3812 1371.4072 L 187.88876 1423.9398" marker-end="url(#StickArrow_Marker)" stroke="black" stroke-linecap="round" stroke-linejoin="round" stroke-width="1"/>
        </g>
        <g id="Graphic_63">
          <path d="M 315 1232.5 L 420.5 1232.5 C 424.9183 1232.5 428.5 1236.0817 428.5 1240.5 L 428.5 1262.5 C 428.5 1266.9183 424.9183 1270.5 420.5 1270.5 L 315 1270.5 C 310.58172 1270.5 307 1266.9183 307 1262.5 L 307 1240.5 C 307 1236.0817 310.58172 1232.5 315 1232.5 Z" fill="white"/>
          <path d="M 314.82154 1232.5002 L 420.60153 1232.4096 C 425.2831 1232.5307 428.1459 1236.417 428.5 1240.5 M 428.5001 1240.2622 L 428.4928 1262.5707 C 428.4467 1267.3195 424.87075 1270.6799 420.5 1270.5 M 420.67693 1270.5 L 314.94985 1270.4924 C 310.43645 1270.3156 307.15104 1266.9315 307 1262.5 M 307.00002 1262.6916 L 306.99767 1240.2387 C 307.23688 1236.2985 310.15006 1232.1889 315 1232.5 M 314.8528 1232.4627 L 420.4141 1232.3663 C 425.3456 1232.4682 428.2084 1236.3544 428.5625 1240.4375 M 428.5597 1240.231 L 428.5401 1262.3912 C 428.5092 1267.257 424.93325 1270.6174 420.5625 1270.4375 M 420.70817 1270.4967 L 315.1384 1270.4917 C 310.49895 1270.253 307.21354 1266.869 307.0625 1262.4375 M 307.0048 1262.6603 L 307.01712 1240.4374 C 307.29938 1236.236 310.21256 1232.1264 315.0625 1232.4375" stroke="black" stroke-linecap="round" stroke-linejoin="round" stroke-width=".5"/>
          <text transform="translate(312 1242)" fill="black">
            <tspan font-family="Cascadia Code PL" font-size="16" fill="black" x="18.25" y="15" xml:space="preserve">[ (()) ]</tspan>
          </text>
        </g>
        <g id="Line_64">
          <path d="M 284.29386 1171.8928 L 341.6968 1226.6079 M 284.4761 1171.7078 L 341.24743 1225.8305" marker-end="url(#StickArrow_Marker)" stroke="black" stroke-linecap="round" stroke-linejoin="round" stroke-width="1"/>
        </g>
        <g id="Graphic_65">
          <path d="M 334 1335.7122 L 439.5 1335.7122 C 443.9183 1335.7122 447.5 1339.2939 447.5 1343.7122 L 447.5 1365.7122 C 447.5 1370.1304 443.9183 1373.7122 439.5 1373.7122 L 334 1373.7122 C 329.58172 1373.7122 326 1370.1304 326 1365.7122 L 326 1343.7122 C 326 1339.2939 329.58172 1335.7122 334 1335.7122 Z" fill="white"/>
          <path d="M 333.91963 1335.7121 L 439.7825 1335.7243 C 444.2601 1335.9533 447.81145 1338.9596 447.5 1343.7122 M 447.5005 1343.5119 L 447.445 1365.9139 C 447.8684 1369.8916 444.0315 1373.9936 439.5 1373.7122 M 439.66243 1373.7121 L 333.83393 1373.755 C 329.48253 1373.4137 326.3585 1370.3893 326 1365.7122 M 326.00037 1365.7811 L 325.88185 1343.5864 C 326.41025 1339.6934 329.88305 1335.3868 334 1335.7122 M 333.95088 1335.6769 L 439.5995 1335.6672 C 444.3226 1335.8908 447.87395 1338.8971 447.5625 1343.6497 M 447.5479 1343.4807 L 447.485 1365.7131 C 447.9309 1369.8291 444.094 1373.931 439.5625 1373.6497 M 439.6937 1373.689 L 333.9715 1373.747 C 329.54503 1373.3512 326.421 1370.3268 326.0625 1365.6497 M 326.01237 1365.75 L 325.9061 1343.796 C 326.47275 1339.6309 329.94555 1335.3243 334.0625 1335.6497" stroke="black" stroke-linecap="round" stroke-linejoin="round" stroke-width=".5"/>
          <text transform="translate(331 1345.2122)" fill="black">
            <tspan font-family="Cascadia Code PL" font-size="16" fill="black" x="13.5625" y="15" xml:space="preserve">[ (())( ]</tspan>
          </text>
        </g>
        <g id="Line_66">
          <path d="M 371.08632 1269.6397 L 381.7601 1326.5623 M 371.2844 1269.501 L 381.73366 1325.6027" marker-end="url(#StickArrow_Marker)" stroke="black" stroke-linecap="round" stroke-linejoin="round" stroke-width="1"/>
        </g>
        <g id="Graphic_67">
          <path d="M 352 1433.9622 L 457.5 1433.9622 C 461.9183 1433.9622 465.5 1437.5439 465.5 1441.9622 L 465.5 1463.9622 C 465.5 1468.3804 461.9183 1471.9622 457.5 1471.9622 L 352 1471.9622 C 347.58172 1471.9622 344 1468.3804 344 1463.9622 L 344 1441.9622 C 344 1437.5439 347.58172 1433.9622 352 1433.9622 Z" fill="#c0ffc0"/>
          <path d="M 351.8302 1433.962 L 457.7135 1434.0768 C 462.25716 1433.5387 465.59335 1437.4238 465.5 1441.9622 M 465.50076 1441.7994 L 465.3971 1464.0449 C 465.4087 1468.389 462.19227 1472.3451 457.5 1471.9622 M 457.64794 1471.962 L 351.7805 1472.0557 C 347.52214 1471.5347 343.6823 1468.0012 344 1463.9622 M 343.9999 1464.096 L 344.01864 1441.9094 C 343.67637 1437.2195 347.7324 1433.6226 352 1433.9622 M 351.86146 1433.9288 L 457.5349 1434.0373 C 462.31966 1433.4762 465.65585 1437.3613 465.5625 1441.8997 M 465.5359 1441.7681 L 465.4299 1463.823 C 465.4712 1468.3264 462.25477 1472.2826 457.5625 1471.8997 M 457.6792 1471.9503 L 352.05463 1472.04 C 347.58464 1471.4722 343.7448 1467.9387 344.0625 1463.8997 M 344.0191 1464.0647 L 344.0451 1441.9423 C 343.73887 1437.157 347.7949 1433.5601 352.0625 1433.8997" stroke="black" stroke-linecap="round" stroke-linejoin="round" stroke-width=".5"/>
          <text transform="translate(349 1443.4622)" fill="black">
            <tspan font-family="Cascadia Code PL" font-size="16" fill="black" x="8.875" y="15" xml:space="preserve">[ (())() ]</tspan>
          </text>
        </g>
        <g id="Line_68">
          <path d="M 390.1452 1373.2368 L 399.5178 1425.2036 M 390.3349 1373.1002 L 399.55344 1424.2508" marker-end="url(#StickArrow_Marker)" stroke="black" stroke-linecap="round" stroke-linejoin="round" stroke-width="1"/>
        </g>
        <g id="Graphic_69">
          <path d="M 498.5 1036 L 604 1036 C 608.4183 1036 612 1039.5817 612 1044 L 612 1066 C 612 1070.4183 608.4183 1074 604 1074 L 498.5 1074 C 494.0817 1074 490.5 1070.4183 490.5 1066 L 490.5 1044 C 490.5 1039.5817 494.0817 1036 498.5 1036 Z" fill="white"/>
          <path d="M 498.4283 1036 L 604.14445 1035.9666 C 608.75376 1035.7884 611.87525 1039.6758 612 1044 M 611.9994 1043.8747 L 612.10155 1066.2137 C 612.33434 1070.6754 608.853 1073.6009 604 1074 M 604.13344 1074.0001 L 498.4146 1073.8936 C 494.0633 1074.3443 490.38976 1070.2846 490.5 1066 M 490.50086 1066.1987 L 490.4037 1043.8328 C 490.3417 1039.4323 494.08173 1035.6462 498.5 1036 M 498.45953 1035.9378 L 603.9703 1035.9139 C 608.81626 1035.7259 611.93775 1039.6133 612.0625 1043.9375 M 612.0536 1043.8434 L 612.156 1065.9705 C 612.39684 1070.6129 608.9155 1073.5384 604.0625 1073.9375 M 604.16466 1073.9999 L 498.6377 1073.8709 C 494.1258 1074.2818 490.45226 1070.2221 490.5625 1065.9375 M 490.5273 1066.1675 L 490.43407 1043.8765 C 490.4042 1039.3698 494.14423 1035.5837 498.5625 1035.9375" stroke="black" stroke-linecap="round" stroke-linejoin="round" stroke-width=".5"/>
          <text transform="translate(495.5 1045.5)" fill="black">
            <tspan font-family="Cascadia Code PL" font-size="16" fill="black" x="27.625" y="15" xml:space="preserve">[ () ]</tspan>
          </text>
        </g>
        <g id="Graphic_70">
          <path d="M 639.5 1134.25 L 745 1134.25 C 749.4183 1134.25 753 1137.8317 753 1142.25 L 753 1164.25 C 753 1168.6683 749.4183 1172.25 745 1172.25 L 639.5 1172.25 C 635.0817 1172.25 631.5 1168.6683 631.5 1164.25 L 631.5 1142.25 C 631.5 1137.8317 635.0817 1134.25 639.5 1134.25 Z" fill="white"/>
          <path d="M 639.2898 1134.2502 L 745.1099 1134.1426 C 749.3008 1134.598 752.7662 1137.591 753 1142.25 M 752.9993 1142.0497 L 753.0773 1164.4355 C 753.103 1168.6088 749.0498 1171.9017 745 1172.25 M 745.21995 1172.2502 L 639.3254 1172.169 C 635.0843 1172.0868 631.4935 1169.0992 631.5 1164.25 M 631.499 1164.4811 L 631.5971 1142.2756 C 631.41696 1138.2155 635.0064 1134.3309 639.5 1134.25 M 639.3211 1134.2047 L 744.938 1134.0833 C 749.3633 1134.5354 752.8287 1137.5285 753.0625 1142.1875 M 753.0473 1142.0184 L 753.1128 1164.2755 C 753.1655 1168.5463 749.1123 1171.8392 745.0625 1172.1875 M 745.2512 1172.2243 L 639.4293 1172.158 C 635.1468 1172.0243 631.556 1169.0367 631.5625 1164.1875 M 631.529 1164.4499 L 631.5973 1142.3245 C 631.47946 1138.153 635.0689 1134.2684 639.5625 1134.1875" stroke="black" stroke-linecap="round" stroke-linejoin="round" stroke-width=".5"/>
          <text transform="translate(636.5 1143.75)" fill="black">
            <tspan font-family="Cascadia Code PL" font-size="16" fill="black" x="22.9375" y="15" xml:space="preserve">[ ()( ]</tspan>
          </text>
        </g>
        <g id="Graphic_71">
          <path d="M 577 1232.5 L 682.5 1232.5 C 686.9183 1232.5 690.5 1236.0817 690.5 1240.5 L 690.5 1262.5 C 690.5 1266.9183 686.9183 1270.5 682.5 1270.5 L 577 1270.5 C 572.5817 1270.5 569 1266.9183 569 1262.5 L 569 1240.5 C 569 1236.0817 572.5817 1232.5 577 1232.5 Z" fill="white"/>
          <path d="M 576.8389 1232.4999 L 682.8254 1232.5691 C 687.232 1232.5062 690.15715 1236.3899 690.5 1240.5 M 690.4998 1240.4122 L 690.5537 1262.8448 C 690.3774 1266.5501 686.6301 1270.2025 682.5 1270.5 M 682.61895 1270.5 L 576.7987 1270.4442 C 572.6047 1270.7107 569.0972 1267.0302 569 1262.5 M 568.99986 1262.576 L 569.03964 1240.4684 C 568.9995 1236.1003 572.4311 1232.132 577 1232.5 M 576.87014 1232.4398 L 682.6557 1232.534 C 687.2945 1232.4437 690.21965 1236.3274 690.5625 1240.4375 M 690.5417 1240.3809 L 690.6009 1262.5803 C 690.4399 1266.4876 686.6926 1270.14 682.5625 1270.4375 M 682.6502 1270.48 L 576.97085 1270.4139 C 572.6672 1270.6482 569.1597 1266.9677 569.0625 1262.4375 M 569.0023 1262.5448 L 569.0418 1240.5227 C 569.062 1236.0378 572.4936 1232.0695 577.0625 1232.4375" stroke="black" stroke-linecap="round" stroke-linejoin="round" stroke-width=".5"/>
          <text transform="translate(574 1242)" fill="black">
            <tspan font-family="Cascadia Code PL" font-size="16" fill="black" x="18.25" y="15" xml:space="preserve">[ ()(( ]</tspan>
          </text>
        </g>
        <g id="Graphic_72">
          <path d="M 551 1335.7122 L 656.5 1335.7122 C 660.9183 1335.7122 664.5 1339.2939 664.5 1343.7122 L 664.5 1365.7122 C 664.5 1370.1304 660.9183 1373.7122 656.5 1373.7122 L 551 1373.7122 C 546.5817 1373.7122 543 1370.1304 543 1365.7122 L 543 1343.7122 C 543 1339.2939 546.5817 1335.7122 551 1335.7122 Z" fill="white"/>
          <path d="M 550.8879 1335.7122 L 656.7909 1335.7073 C 660.7977 1335.391 664.93176 1339.2673 664.5 1343.7122 M 664.4998 1343.5493 L 664.52965 1365.7787 C 664.1374 1370.3226 660.7105 1373.4654 656.5 1373.7122 M 656.70545 1373.7122 L 550.772 1373.6816 C 546.6255 1373.4239 543.20095 1369.9233 543 1365.7122 M 543.0001 1365.8207 L 542.98214 1343.6233 C 543.0801 1338.9557 546.35574 1335.7789 551 1335.7122 M 550.91916 1335.6688 L 656.6234 1335.6655 C 660.8602 1335.3285 664.99426 1339.2048 664.5625 1343.6497 M 664.5355 1343.5181 L 664.58896 1365.5974 C 664.1999 1370.26 660.773 1373.4029 656.5625 1373.6497 M 656.7367 1373.6978 L 551.0124 1373.6632 C 546.688 1373.3614 543.26345 1369.8608 543.0625 1365.6497 M 543.0061 1365.7894 L 542.9863 1343.6832 C 543.1426 1338.8932 546.41824 1335.7164 551.0625 1335.6497" stroke="black" stroke-linecap="round" stroke-linejoin="round" stroke-width=".5"/>
          <text transform="translate(548 1345.2122)" fill="black">
            <tspan font-family="Cascadia Code PL" font-size="16" fill="black" x="13.5625" y="15" xml:space="preserve">[ ()(() ]</tspan>
          </text>
        </g>
        <g id="Graphic_73">
          <path d="M 543 1433.9622 L 648.5 1433.9622 C 652.9183 1433.9622 656.5 1437.5439 656.5 1441.9622 L 656.5 1463.9622 C 656.5 1468.3804 652.9183 1471.9622 648.5 1471.9622 L 543 1471.9622 C 538.5817 1471.9622 535 1468.3804 535 1463.9622 L 535 1441.9622 C 535 1437.5439 538.5817 1433.9622 543 1433.9622 Z" fill="#c0ffc0"/>
          <path d="M 542.93696 1433.9622 L 648.7564 1433.8833 C 653.2287 1434.1806 656.8227 1437.1826 656.5 1441.9622 M 656.4999 1441.7243 L 656.50576 1464.0004 C 656.7996 1468.2508 652.7909 1471.7662 648.5 1471.9622 M 648.60446 1471.9622 L 542.9328 1471.9569 C 538.64666 1472.0537 535.3047 1468.738 535 1463.9622 M 535.0005 1464.1031 L 534.9246 1441.8161 C 535.15886 1437.731 538.2804 1433.58 543 1433.9622 M 542.9682 1433.9043 L 648.5911 1433.835 C 653.2912 1434.118 656.8852 1437.12 656.5625 1441.8997 M 656.5608 1441.693 L 656.5458 1463.9023 C 656.8621 1468.1883 652.8534 1471.7037 648.5625 1471.8997 M 648.6357 1471.9535 L 543.054 1471.9504 C 538.70916 1471.9912 535.3672 1468.6755 535.0625 1463.8997 M 535.0101 1464.072 L 534.9308 1441.8814 C 535.22136 1437.6685 538.3429 1433.5174 543.0625 1433.8997" stroke="black" stroke-linecap="round" stroke-linejoin="round" stroke-width=".5"/>
          <text transform="translate(540 1443.4622)" fill="black">
            <tspan font-family="Cascadia Code PL" font-size="16" fill="black" x="8.875" y="15" xml:space="preserve">[ ()(()) ]</tspan>
          </text>
        </g>
        <g id="Line_74">
          <path d="M 577.8571 1073.5374 L 657.607 1129.4258 M 578.005 1073.3798 L 657.1505 1128.7762" marker-end="url(#StickArrow_Marker)" stroke="black" stroke-linecap="round" stroke-linejoin="round" stroke-width="1"/>
        </g>
        <g id="Line_75">
          <path d="M 680.4905 1171.7353 L 646.7191 1224.8897 M 680.6983 1171.6629 L 647.35996 1224.182" marker-end="url(#StickArrow_Marker)" stroke="black" stroke-linecap="round" stroke-linejoin="round" stroke-width="1"/>
        </g>
        <g id="Line_76">
          <path d="M 625.06615 1270.0992 L 610.6184 1326.6468 M 625.2214 1269.982 L 610.95554 1325.792" marker-end="url(#StickArrow_Marker)" stroke="black" stroke-linecap="round" stroke-linejoin="round" stroke-width="1"/>
        </g>
        <g id="Line_77">
          <path d="M 602.28754 1372.7484 L 597.7575 1424.346 M 602.50165 1372.6312 L 597.99984 1423.4777" marker-end="url(#StickArrow_Marker)" stroke="black" stroke-linecap="round" stroke-linejoin="round" stroke-width="1"/>
        </g>
        <g id="Graphic_78">
          <path d="M 726.5 1232.5 L 832 1232.5 C 836.4183 1232.5 840 1236.0817 840 1240.5 L 840 1262.5 C 840 1266.9183 836.4183 1270.5 832 1270.5 L 726.5 1270.5 C 722.0817 1270.5 718.5 1266.9183 718.5 1262.5 L 718.5 1240.5 C 718.5 1236.0817 722.0817 1232.5 726.5 1232.5 Z" fill="white"/>
          <path d="M 726.3072 1232.4999 L 832.0838 1232.5521 C 836.2673 1232.8244 839.7775 1235.814 840 1240.5 M 840.0012 1240.2621 L 839.8861 1262.7096 C 840.0309 1266.9698 836.6928 1270.558 832 1270.5 M 832.162 1270.4998 L 726.23675 1270.6212 C 722.2489 1270.7257 718.4397 1266.5643 718.5 1262.5 M 718.5006 1262.6156 L 718.3879 1240.3178 C 718.184 1236.2542 722.2874 1232.524 726.5 1232.5 M 726.3384 1232.463 L 831.9296 1232.501 C 836.3298 1232.7619 839.84 1235.7515 840.0625 1240.4375 M 840.0627 1240.231 L 839.9236 1262.4647 C 840.0934 1266.9073 836.7553 1270.4954 832.0625 1270.4375 M 832.1932 1270.4884 L 726.5118 1270.6115 C 722.3114 1270.6632 718.5022 1266.5018 718.5625 1262.4375 M 718.5283 1262.5844 L 718.40325 1240.4101 C 718.2465 1236.1917 722.3499 1232.4616 726.5625 1232.4375" stroke="black" stroke-linecap="round" stroke-linejoin="round" stroke-width=".5"/>
          <text transform="translate(723.5 1242)" fill="black">
            <tspan font-family="Cascadia Code PL" font-size="16" fill="black" x="18.25" y="15" xml:space="preserve">[ ()() ]</tspan>
          </text>
        </g>
        <g id="Graphic_79">
          <path d="M 744 1334.4243 L 849.5 1334.4243 C 853.9183 1334.4243 857.5 1338.006 857.5 1342.4243 L 857.5 1364.4243 C 857.5 1368.8426 853.9183 1372.4243 849.5 1372.4243 L 744 1372.4243 C 739.5817 1372.4243 736 1368.8426 736 1364.4243 L 736 1342.4243 C 736 1338.006 739.5817 1334.4243 744 1334.4243 Z" fill="white"/>
          <path d="M 743.8562 1334.4243 L 849.7993 1334.4024 C 854.2009 1334.4076 857.1684 1338.2872 857.5 1342.4243 M 857.4994 1342.299 L 857.6142 1364.6057 C 857.303 1368.5796 854.2732 1372.533 849.5 1372.4243 M 849.7485 1372.4246 L 743.8975 1372.3204 C 739.7712 1372.1464 736.0434 1369.0532 736 1364.4243 M 735.99946 1364.5724 L 736.0818 1342.185 C 735.7664 1337.8289 739.7121 1333.9994 744 1334.4243 M 743.88745 1334.3729 L 849.6473 1334.3447 C 854.2634 1334.345 857.2309 1338.2247 857.5625 1342.3618 M 857.5547 1342.2676 L 857.6617 1364.4438 C 857.3655 1368.517 854.3357 1372.4705 849.5625 1372.3618 M 849.7797 1372.4188 L 744.0533 1372.2917 C 739.8337 1372.0839 736.1059 1368.9907 736.0625 1364.3618 M 735.9995 1364.541 L 736.0977 1342.2824 C 735.8289 1337.7664 739.7746 1333.937 744.0625 1334.3618" stroke="black" stroke-linecap="round" stroke-linejoin="round" stroke-width=".5"/>
          <text transform="translate(741 1343.9243)" fill="black">
            <tspan font-family="Cascadia Code PL" font-size="16" fill="black" x="13.5625" y="15" xml:space="preserve">[ ()()( ]</tspan>
          </text>
        </g>
        <g id="Graphic_80">
          <path d="M 758 1433.9622 L 863.5 1433.9622 C 867.9183 1433.9622 871.5 1437.5439 871.5 1441.9622 L 871.5 1463.9622 C 871.5 1468.3804 867.9183 1471.9622 863.5 1471.9622 L 758 1471.9622 C 753.5817 1471.9622 750 1468.3804 750 1463.9622 L 750 1441.9622 C 750 1437.5439 753.5817 1433.9622 758 1433.9622 Z" fill="#c0ffc0"/>
          <path d="M 757.90525 1433.9622 L 863.7648 1433.8663 C 867.7655 1433.6172 871.0594 1437.4903 871.5 1441.9622 M 871.4992 1441.7618 L 871.5907 1464.3028 C 871.0809 1468.6736 868.3536 1472.1217 863.5 1471.9622 M 863.6475 1471.9623 L 757.8708 1471.8834 C 753.7939 1472.0678 750.1471 1468.272 750 1463.9622 M 749.9998 1464.1427 L 750.0242 1441.9156 C 749.8378 1437.8964 753.63675 1433.972 758 1433.9622 M 757.9365 1433.9275 L 863.615 1433.8332 C 867.828 1433.5547 871.1219 1437.4278 871.5625 1441.8997 M 871.5484 1441.7305 L 871.6497 1464.0366 C 871.1434 1468.611 868.4161 1472.0592 863.5625 1471.8997 M 863.6787 1471.9623 L 758.0949 1471.8667 C 753.8564 1472.0053 750.2096 1468.2095 750.0625 1463.8997 M 750.0035 1464.1114 L 750.0422 1442.0185 C 749.9003 1437.8339 753.69925 1433.9095 758.0625 1433.8997" stroke="black" stroke-linecap="round" stroke-linejoin="round" stroke-width=".5"/>
          <text transform="translate(755 1443.4622)" fill="black">
            <tspan font-family="Cascadia Code PL" font-size="16" fill="black" x="8.875" y="15" xml:space="preserve">[ ()()() ]</tspan>
          </text>
        </g>
        <g id="Line_81">
          <path d="M 708.4566 1171.5511 L 756.542 1225.9458 M 708.6357 1171.3783 L 756.2194 1225.2618" marker-end="url(#StickArrow_Marker)" stroke="black" stroke-linecap="round" stroke-linejoin="round" stroke-width="1"/>
        </g>
        <g id="Line_82">
          <path d="M 782.3866 1269.7741 L 792.0096 1325.3895 M 782.5169 1269.6482 L 792.0751 1324.5579" marker-end="url(#StickArrow_Marker)" stroke="black" stroke-linecap="round" stroke-linejoin="round" stroke-width="1"/>
        </g>
        <g id="Line_83">
          <path d="M 799.3472 1371.889 L 806.7432 1424.5803 M 799.5352 1371.7552 L 806.8592 1423.7522" marker-end="url(#StickArrow_Marker)" stroke="black" stroke-linecap="round" stroke-linejoin="round" stroke-width="1"/>
        </g>
      </g>
      <g id="Group_87">
        <g id="Graphic_93">
          <path d="M 173 250.5 L 278.5 250.5 C 282.91828 250.5 286.5 254.08172 286.5 258.5 L 286.5 280.5 C 286.5 284.91828 282.91828 288.5 278.5 288.5 L 173 288.5 C 168.58172 288.5 165 284.91828 165 280.5 L 165 258.5 C 165 254.08172 168.58172 250.5 173 250.5 Z" fill="white"/>
          <path d="M 172.79279 250.5001 L 278.5661 250.44412 C 283.1561 250.21518 286.40904 254.0947 286.5 258.5 M 286.49966 258.26205 L 286.5317 280.66097 C 286.61234 284.6314 282.6312 288.43602 278.5 288.5 M 278.64702 288.5 L 172.96115 288.49948 C 168.166 288.2438 164.72832 285.08073 165 280.5 M 164.9997 280.7272 L 165.0297 258.20952 C 165.00468 254.2103 168.5411 250.85925 173 250.5 M 172.82403 250.46374 L 278.4451 250.38574 C 283.2186 250.15268 286.47154 254.0322 286.5625 258.4375 M 286.53176 258.2308 L 286.58832 280.53824 C 286.67484 284.5689 282.6937 288.37352 278.5625 288.4375 M 278.67827 288.48043 L 173.13514 288.48124 C 168.2285 288.1813 164.79082 285.01823 165.0625 280.4375 M 165.01906 280.69592 L 165.03938 258.3825 C 165.06718 254.1478 168.6036 250.79675 173.0625 250.4375" stroke="black" stroke-linecap="round" stroke-linejoin="round" stroke-width=".5"/>
          <text transform="translate(170 260)" fill="black">
            <tspan font-family="Cascadia Code PL" font-size="16" fill="black" x="41.6875" y="15" xml:space="preserve">[ ]</tspan>
          </text>
        </g>
        <g id="Graphic_92">
          <path d="M 126.5 348.75 L 232 348.75 C 236.41828 348.75 240 352.33172 240 356.75 L 240 378.75 C 240 383.1683 236.41828 386.75 232 386.75 L 126.5 386.75 C 122.08172 386.75 118.5 383.1683 118.5 378.75 L 118.5 356.75 C 118.5 352.33172 122.08172 348.75 126.5 348.75 Z" fill="white"/>
          <path d="M 126.43124 348.75 L 232.1006 348.7681 C 236.21128 348.80564 240.01808 352.67946 240 356.75 M 239.9996 356.58706 L 240.0557 378.9392 C 240.3431 383.19416 236.0508 386.63524 232 386.75 M 232.24802 386.75006 L 126.48786 386.72423 C 121.64887 387.0063 118.12459 382.7661 118.5 378.75 M 118.49923 378.94475 L 118.58749 356.51675 C 118.42478 351.93857 122.11644 348.67453 126.5 348.75 M 126.4625 348.6969 L 231.9774 348.71634 C 236.27378 348.74314 240.08058 352.61696 240.0625 356.6875 M 240.0378 356.5558 L 240.10025 378.73334 C 240.4056 383.13166 236.1133 386.57274 232.0625 386.6875 M 232.27926 386.7248 L 126.59358 386.6941 C 121.71137 386.9438 118.18709 382.7036 118.5625 378.6875 M 118.51499 378.91344 L 118.59488 356.6843 C 118.48728 351.87607 122.17894 348.61203 126.5625 348.6875" stroke="black" stroke-linecap="round" stroke-linejoin="round" stroke-width=".5"/>
          <text transform="translate(123.5 358.25)" fill="black">
            <tspan font-family="Cascadia Code PL" font-size="16" fill="black" x="32.3125" y="15" xml:space="preserve">[ ( ]</tspan>
          </text>
        </g>
        <g id="Line_91">
          <path d="M 216.9586 288.07382 L 192.12403 340.73604 M 217.10994 287.96124 L 192.56594 340.06764" marker-end="url(#StickArrow_Marker)" stroke="black" stroke-linecap="round" stroke-linejoin="round" stroke-width="1"/>
        </g>
        <g id="Graphic_90">
          <path d="M 140.5 189 L 311 189 C 315.41828 189 319 192.58172 319 197 L 319 214.21216 C 319 218.63044 315.41828 222.21216 311 222.21216 L 140.5 222.21216 C 136.08172 222.21216 132.5 218.63044 132.5 214.21216 L 132.5 197 C 132.5 192.58172 136.08172 189 140.5 189 Z" fill="#c0ffff"/>
          <path d="M 140.33316 189.00008 L 311.16964 188.91568 C 315.22235 188.8403 319.2362 192.7153 319 197 M 318.9988 196.79957 L 319.1036 214.27035 C 318.91902 218.4027 315.7737 221.99583 311 222.21216 M 311.075 222.2122 L 140.35377 222.13587 C 136.49537 222.5857 132.80079 218.86633 132.5 214.21216 M 132.50037 214.34203 L 132.45073 196.88119 C 132.25933 192.90328 136.2671 188.93875 140.5 189 M 140.3644 188.94485 L 311.042 188.87755 C 315.28485 188.7778 319.2987 192.6528 319.0625 196.9375 M 319.04927 196.7682 L 319.15537 214.0856 C 318.98152 218.3402 315.8362 221.93333 311.0625 222.14966 M 311.10625 222.20675 L 140.51046 222.1132 C 136.55787 222.5232 132.86329 218.80383 132.5625 214.14966 M 132.5089 214.31085 L 132.4559 197.0381 C 132.32183 192.84078 136.3296 188.87625 140.5625 188.9375" stroke="black" stroke-linecap="round" stroke-linejoin="round" stroke-width=".5"/>
          <text transform="translate(137.5 194)" fill="black">
            <tspan font-family="Chalkboard SE" font-size="16" fill="black" x="0" y="18" xml:space="preserve">pairs of parentheses: 1</tspan>
          </text>
        </g>
        <g id="Graphic_89">
          <path d="M 83 447 L 188.5 447 C 192.91828 447 196.5 450.5817 196.5 455 L 196.5 477 C 196.5 481.4183 192.91828 485 188.5 485 L 83 485 C 78.58172 485 75 481.4183 75 477 L 75 455 C 75 450.5817 78.58172 447 83 447 Z" fill="#c0ffc0"/>
          <path d="M 82.78412 447 L 188.70415 446.9896 C 193.16537 447.17256 196.84523 450.1664 196.5 455 M 196.5007 454.8746 L 196.37507 477.33643 C 196.6475 481.5107 193.19332 484.7329 188.5 485 M 188.676 485.00017 L 82.69298 484.8983 C 78.97116 484.99475 75.197055 481.08955 75 477 M 74.99996 477.09744 L 75.00861 454.9384 C 74.67378 450.36524 78.84243 447.3877 83 447 M 82.81537 446.95934 L 188.5743 446.95815 C 193.22787 447.11006 196.90773 450.1039 196.5625 454.9375 M 196.5573 454.84347 L 196.4173 477.0687 C 196.71 481.4482 193.25582 484.6704 188.5625 484.9375 M 188.70724 484.989 L 82.96888 484.89513 C 79.03366 484.93225 75.259555 481.02705 75.0625 476.9375 M 75.00488 477.0662 L 75.01141 455.08985 C 74.73628 450.30274 78.90493 447.3252 83.0625 446.9375" stroke="black" stroke-linecap="round" stroke-linejoin="round" stroke-width=".5"/>
          <text transform="translate(80 456.5)" fill="black">
            <tspan font-family="Cascadia Code PL" font-size="16" fill="black" x="27.625" y="15" xml:space="preserve">[ () ]</tspan>
          </text>
        </g>
        <g id="Line_88">
          <path d="M 170.96125 386.466 L 148.21116 438.80053 M 171.18212 386.38266 L 148.68726 438.11585" marker-end="url(#StickArrow_Marker)" stroke="black" stroke-linecap="round" stroke-linejoin="round" stroke-width="1"/>
        </g>
      </g>
    </g>
  </g>
</svg>
