<?xml version="1.0" encoding="UTF-8" standalone="no"?>
<!DOCTYPE svg PUBLIC "-//W3C//DTD SVG 1.1//EN" "http://www.w3.org/Graphics/SVG/1.1/DTD/svg11.dtd">
<svg xmlns="http://www.w3.org/2000/svg" xmlns:dc="http://purl.org/dc/elements/1.1/" xmlns:xl="http://www.w3.org/1999/xlink" version="1.1" viewBox="-6.796244 -103.98996 2752.7724 733.3511" width="2752.7724" height="733.3511">
  <defs>
    <marker orient="auto" overflow="visible" markerUnits="strokeWidth" id="StickArrow_Marker" stroke-linejoin="miter" stroke-miterlimit="10" viewBox="-1 -4 10 8" markerWidth="10" markerHeight="8" color="black">
      <g>
        <path d="M 8 0 L 0 0 M 0 -3 L 8 0 L 0 3" fill="none" stroke="currentColor" stroke-width="1"/>
      </g>
    </marker>
  </defs>
  <metadata> Produced by OmniGraffle 7.22.6\n2024-05-23 10:47:33 +0000</metadata>
  <g id="39__Combination_Sum" stroke-opacity="1" fill-opacity="1" stroke-dasharray="none" fill="none" stroke="none">
    <title>39. Combination Sum</title>
    <rect fill="white" x="-6.796244" y="-103.98996" width="2752.7724" height="733.3511"/>
    <g id="39__Combination_Sum_Layer_1">
      <title>Layer 1</title>
      <g id="Graphic_5">
        <path d="M 2109 35.5 L 2214.5 35.5 C 2218.9183 35.5 2222.5 39.08172 2222.5 43.5 L 2222.5 65.5 C 2222.5 69.91828 2218.9183 73.5 2214.5 73.5 L 2109 73.5 C 2104.5817 73.5 2101 69.91828 2101 65.5 L 2101 43.5 C 2101 39.08172 2104.5817 35.5 2109 35.5 Z" fill="white"/>
        <path d="M 2108.7896 35.500113 L 2214.666 35.443128 C 2218.6263 35.479796 2222.2852 39.391874 2222.5 43.5 M 2222.499 43.300123 L 2222.6185 65.58366 C 2222.5382 70.16628 2218.627 73.38543 2214.5 73.5 M 2214.7222 73.49994 L 2108.8113 73.52871 C 2105.0047 73.33989 2101.3203 69.878665 2101 65.5 M 2100.9994 65.68521 L 2101.07 43.369963 C 2100.9837 38.76342 2104.9846 35.60119 2109 35.5 M 2108.821 35.462674 L 2214.5374 35.384912 C 2218.6888 35.417296 2222.3477 39.329374 2222.5625 43.4375 M 2222.539 43.268826 L 2222.6699 65.45659 C 2222.6007 70.10378 2218.6895 73.32293 2214.5625 73.4375 M 2214.7535 73.47818 L 2108.978 73.52446 C 2105.0672 73.27739 2101.3828 69.816165 2101.0625 65.4375 M 2101.0135 65.653905 L 2101.0803 43.443516 C 2101.0462 38.70092 2105.047 35.53869 2109.0625 35.4375" stroke="black" stroke-linecap="round" stroke-linejoin="round" stroke-width=".5"/>
        <text transform="translate(2106 42.89392)" fill="black">
          <tspan font-family="Chalkboard SE" font-size="16" fill="black" x="47.82072" y="18" xml:space="preserve">[ ]</tspan>
        </text>
      </g>
      <g id="Graphic_7">
        <path d="M 1196 200 L 1301.5 200 C 1305.9183 200 1309.5 203.58172 1309.5 208 L 1309.5 230 C 1309.5 234.41828 1305.9183 238 1301.5 238 L 1196 238 C 1191.5817 238 1188 234.41828 1188 230 L 1188 208 C 1188 203.58172 1191.5817 200 1196 200 Z" fill="white"/>
        <path d="M 1195.8877 199.99995 L 1301.5968 200.04558 C 1305.6138 200.19738 1309.067 203.22238 1309.5 208 M 1309.4995 207.8376 L 1309.5709 230.21468 C 1309.0872 234.03922 1305.7877 237.987 1301.5 238 M 1301.7078 237.99984 L 1195.9454 238.0792 C 1191.1646 237.71347 1187.6441 234.62425 1188 230 M 1188.0001 230.06258 L 1187.9549 208.00552 C 1188.1488 203.42846 1191.834 200.08697 1196 200 M 1195.919 199.96467 L 1301.4729 200.00496 C 1305.6763 200.13488 1309.1296 203.15988 1309.5625 207.9375 M 1309.5585 207.80627 L 1309.6147 230.06647 C 1309.1497 233.97672 1305.8502 237.9245 1301.5625 237.9375 M 1301.739 237.9895 L 1196.0611 238.0675 C 1191.2271 237.65097 1187.7066 234.56175 1188.0625 229.9375 M 1188.0214 230.03135 L 1187.9693 208.08996 C 1188.2113 203.36596 1191.8965 200.02447 1196.0625 199.9375" stroke="black" stroke-linecap="round" stroke-linejoin="round" stroke-width=".5"/>
        <text transform="translate(1193 207.39392)" fill="black">
          <tspan font-family="Chalkboard SE" font-size="16" fill="black" x="40.20967" y="18" xml:space="preserve">[ 2 ]</tspan>
        </text>
      </g>
      <g id="Graphic_8">
        <path d="M 452 337 L 557.5 337 C 561.9183 337 565.5 340.58172 565.5 345 L 565.5 367 C 565.5 371.4183 561.9183 375 557.5 375 L 452 375 C 447.5817 375 444 371.4183 444 367 L 444 345 C 444 340.58172 447.5817 337 452 337 Z" fill="white"/>
        <path d="M 451.93676 337 L 557.56233 336.9716 C 562.0584 336.8576 565.84166 340.7713 565.5 345 M 565.4995 344.7626 L 565.5473 367.12394 C 565.7366 371.6009 561.8681 375.0378 557.5 375 M 557.60675 374.9999 L 451.9187 375.10453 C 447.1817 375.0976 443.7478 371.3052 444 367 M 444.00044 367.095 L 443.89726 344.9483 C 444.22895 340.96588 447.7586 336.63803 452 337 M 451.968 336.9502 L 557.44056 336.92436 C 562.1209 336.7951 565.90416 340.7088 565.5625 344.9375 M 565.55236 344.7313 L 565.6028 366.87136 C 565.7991 371.5384 561.9306 374.9753 557.5625 374.9375 M 557.638 374.99526 L 452.1027 375.0734 C 447.2442 375.0351 443.8103 371.2427 444.0625 366.9375 M 444.02535 367.0638 L 443.9138 345.03816 C 444.29145 340.90338 447.8211 336.57553 452.0625 336.9375" stroke="black" stroke-linecap="round" stroke-linejoin="round" stroke-width=".5"/>
        <text transform="translate(449 344.39392)" fill="black">
          <tspan font-family="Chalkboard SE" font-size="16" fill="black" x="30.55663" y="18" xml:space="preserve">[ 2, 2 ]</tspan>
        </text>
      </g>
      <g id="Graphic_9">
        <path d="M 246.75 441 L 352.25 441 C 356.66828 441 360.25 444.5817 360.25 449 L 360.25 471 C 360.25 475.4183 356.66828 479 352.25 479 L 246.75 479 C 242.33172 479 238.75 475.4183 238.75 471 L 238.75 449 C 238.75 444.5817 242.33172 441 246.75 441 Z" fill="white"/>
        <path d="M 246.5483 441.0002 L 352.2778 440.89766 C 356.351 441.42133 360.4826 444.43654 360.25 449 M 360.24987 448.8751 L 360.27327 471.0957 C 360.2514 475.2782 356.6985 479.08856 352.25 479 M 352.44326 479.0002 L 246.642 478.87936 C 241.94912 478.5824 238.60154 474.9862 238.75 471 M 238.74947 471.12746 L 238.84107 448.8911 C 239.0572 444.60356 242.4333 441.07275 246.75 441 M 246.57955 440.96707 L 352.15824 440.84376 C 356.4135 441.35883 360.5451 444.37404 360.3125 448.9375 M 360.2966 448.84383 L 360.3096 470.9263 C 360.3139 475.2157 356.761 479.02606 352.3125 478.9375 M 352.4745 478.97004 L 246.89422 478.86057 C 242.01162 478.5199 238.66404 474.9237 238.8125 470.9375 M 238.778 471.0962 L 238.8583 448.9862 C 239.1197 444.54106 242.4958 441.01025 246.8125 440.9375" stroke="black" stroke-linecap="round" stroke-linejoin="round" stroke-width=".5"/>
        <text transform="translate(243.75 448.3939)" fill="black">
          <tspan font-family="Chalkboard SE" font-size="16" fill="black" x="20.90359" y="18" xml:space="preserve">[ 2, 2, 2 ]</tspan>
        </text>
      </g>
      <g id="Graphic_10">
        <path d="M 41.5 550 L 147 550 C 151.41828 550 155 553.5817 155 558 L 155 580 C 155 584.4183 151.41828 588 147 588 L 41.5 588 C 37.08172 588 33.5 584.4183 33.5 580 L 33.5 558 C 33.5 553.5817 37.08172 550 41.5 550 Z" fill="#ffc0c0"/>
        <path d="M 41.347345 549.9999 L 147.2433 550.07406 C 151.54467 550.0739 155.12357 553.98545 155 558 M 155 557.8001 L 154.99941 580.25495 C 154.77194 584.8446 151.52889 588.13935 147 588 M 147.09226 588.0001 L 41.302783 587.90476 C 36.736967 587.9741 33.455273 584.5508 33.5 580 M 33.49976 580.1599 L 33.53347 557.83386 C 33.883506 553.2497 37.10796 549.6238 41.5 550 M 41.378606 549.9522 L 147.12598 550.01316 C 151.60717 550.0114 155.18607 553.92295 155.0625 557.9375 M 155.04062 557.76884 L 155.04768 579.9812 C 154.83444 584.7821 151.59139 588.07685 147.0625 587.9375 M 147.1235 587.9756 L 41.43577 587.8977 C 36.799467 587.9116 33.517773 584.4883 33.5625 579.9375 M 33.500634 580.1286 L 33.552798 557.9344 C 33.946006 553.1872 37.17046 549.5613 41.5625 549.9375" stroke="black" stroke-linecap="round" stroke-linejoin="round" stroke-width=".5"/>
        <text transform="translate(38.5 557.3939)" fill="black">
          <tspan font-family="Chalkboard SE" font-size="16" fill="black" x="11.250552" y="18" xml:space="preserve">[ 2, 2, 2, 2 ]</tspan>
        </text>
      </g>
      <g id="Graphic_14">
        <path d="M 179 550 L 284.5 550 C 288.91828 550 292.5 553.5817 292.5 558 L 292.5 580 C 292.5 584.4183 288.91828 588 284.5 588 L 179 588 C 174.58172 588 171 584.4183 171 580 L 171 558 C 171 553.5817 174.58172 550 179 550 Z" fill="#ffc0c0"/>
        <path d="M 178.85601 549.99996 L 284.60525 550.0286 C 289.03203 549.61894 292.18737 553.5301 292.5 558 M 292.50054 557.87506 L 292.40416 580.0795 C 292.23344 584.46 289.3504 588.3425 284.5 588 M 284.56327 588 L 178.88346 588.0058 C 174.3077 587.72415 171.3702 584.1583 171 580 M 170.99975 580.10214 L 171.05455 557.855 C 170.82479 553.58896 174.30664 549.5954 179 550 M 178.88726 549.9566 L 284.49677 549.972 C 289.09453 549.55644 292.24987 553.4676 292.5625 557.9375 M 292.5479 557.8439 L 292.43744 579.95085 C 292.29594 584.3975 289.4129 588.28 284.5625 587.9375 M 284.59453 587.99835 L 179.10202 587.9838 C 174.3702 587.66165 171.4327 584.0958 171.0625 579.9375 M 171.01507 580.07086 L 171.08077 557.9771 C 170.88729 553.52646 174.36914 549.5329 179.0625 549.9375" stroke="black" stroke-linecap="round" stroke-linejoin="round" stroke-width=".5"/>
        <text transform="translate(176 557.3939)" fill="black">
          <tspan font-family="Chalkboard SE" font-size="16" fill="black" x="11.250552" y="18" xml:space="preserve">[ 2, 2, 2, 3 ]</tspan>
        </text>
      </g>
      <g id="Graphic_15">
        <path d="M 315.5 550.5 L 421 550.5 C 425.4183 550.5 429 554.0817 429 558.5 L 429 580.5 C 429 584.9183 425.4183 588.5 421 588.5 L 315.5 588.5 C 311.08172 588.5 307.5 584.9183 307.5 580.5 L 307.5 558.5 C 307.5 554.0817 311.08172 550.5 315.5 550.5 Z" fill="#ffc0c0"/>
        <path d="M 315.40505 550.50004 L 421.07073 550.4546 C 425.0802 550.67384 428.5783 553.69536 429 558.5 M 429.0011 558.30006 L 428.8798 580.73875 C 429.38504 584.6446 425.04713 588.89326 421 588.5 M 421.1498 588.49996 L 315.54425 588.53105 C 310.8263 588.61185 307.09027 585.22296 307.5 580.5 M 307.50002 580.6346 L 307.49687 558.29775 C 307.40663 553.736 310.7313 550.5301 315.5 550.5 M 315.4363 550.4421 L 420.96447 550.42265 C 425.1427 550.61134 428.6408 553.63286 429.0625 558.4375 M 429.0423 558.26886 L 428.9255 580.5058 C 429.44754 584.5821 425.10963 588.83076 421.0625 588.4375 M 421.18103 588.47276 L 315.6436 588.521 C 310.8888 588.54935 307.15277 585.16046 307.5625 580.4375 M 307.51895 580.6033 L 307.52526 558.4253 C 307.46913 553.6735 310.7938 550.4676 315.5625 550.4375" stroke="black" stroke-linecap="round" stroke-linejoin="round" stroke-width=".5"/>
        <text transform="translate(312.5 557.8939)" fill="black">
          <tspan font-family="Chalkboard SE" font-size="16" fill="black" x="11.250552" y="18" xml:space="preserve">[ 2, 2, 2, 6 ]</tspan>
        </text>
      </g>
      <g id="Graphic_16">
        <path d="M 452 551 L 557.5 551 C 561.9183 551 565.5 554.5817 565.5 559 L 565.5 581 C 565.5 585.4183 561.9183 589 557.5 589 L 452 589 C 447.5817 589 444 585.4183 444 581 L 444 559 C 444 554.5817 447.5817 551 452 551 Z" fill="#ffc0c0"/>
        <path d="M 451.7666 551.00026 L 557.5362 550.8807 C 562.0254 550.8332 565.8529 554.7443 565.5 559 M 565.4996 558.91255 L 565.60774 581.2105 C 565.6548 585.7027 561.6275 588.5604 557.5 589 M 557.7363 588.9999 L 451.76754 589.05634 C 447.35825 588.6145 443.694 585.4039 444 581 M 444.00046 581.167 L 443.93917 558.7405 C 443.98657 554.75604 447.156 550.58116 452 551 M 451.79783 550.95905 L 557.43216 550.84205 C 562.0879 550.7707 565.9154 554.6818 565.5625 558.9375 M 565.5347 558.8813 L 565.6636 581.0605 C 565.7173 585.6402 561.69 588.4979 557.5625 588.9375 M 557.76754 588.9784 L 451.93514 589.0269 C 447.42075 588.552 443.7565 585.3414 444.0625 580.9375 M 444.023 581.1358 L 443.96975 558.87345 C 444.04907 554.69354 447.2185 550.51866 452.0625 550.9375" stroke="black" stroke-linecap="round" stroke-linejoin="round" stroke-width=".5"/>
        <text transform="translate(449 558.3939)" fill="black">
          <tspan font-family="Chalkboard SE" font-size="16" fill="black" x="11.250552" y="18" xml:space="preserve">[ 2, 2, 2, 7 ]</tspan>
        </text>
      </g>
      <g id="Line_17">
        <path d="M 264.37275 478.65216 L 138.77612 545.8357 M 264.544 478.6136 L 139.39748 545.51" marker-end="url(#StickArrow_Marker)" stroke="black" stroke-linecap="round" stroke-linejoin="round" stroke-width="1"/>
      </g>
      <g id="Line_18">
        <path d="M 287.9745 478.5393 L 248.8563 541.96994 M 288.12608 478.43067 L 249.3277 541.44354" marker-end="url(#StickArrow_Marker)" stroke="black" stroke-linecap="round" stroke-linejoin="round" stroke-width="1"/>
      </g>
      <g id="Line_19">
        <path d="M 311.24423 478.70864 L 351.5485 542.18716 M 311.44472 478.5357 L 351.4915 541.56813" marker-end="url(#StickArrow_Marker)" stroke="black" stroke-linecap="round" stroke-linejoin="round" stroke-width="1"/>
      </g>
      <g id="Line_20">
        <path d="M 334.1607 478.5739 L 461.1041 546.90497 M 334.2964 478.429 L 460.78997 546.5287" marker-end="url(#StickArrow_Marker)" stroke="black" stroke-linecap="round" stroke-linejoin="round" stroke-width="1"/>
      </g>
      <g id="Graphic_22">
        <path d="M 412.5 441 L 518 441 C 522.4183 441 526 444.5817 526 449 L 526 471 C 526 475.4183 522.4183 479 518 479 L 412.5 479 C 408.0817 479 404.5 475.4183 404.5 471 L 404.5 449 C 404.5 444.5817 408.0817 441 412.5 441 Z" fill="#c0ffc0"/>
        <path d="M 412.37334 441.0001 L 518.07913 440.93765 C 522.4994 440.5944 525.6986 444.5031 526 449 M 526.00026 448.8375 L 525.9646 471.10356 C 525.6551 475.5742 522.6098 478.8651 518 479 M 518.1928 479.0001 L 412.2323 478.9576 C 407.97945 479.11947 404.8164 475.25704 404.5 471 M 404.49924 471.17414 L 404.59683 448.8972 C 404.0772 444.38483 408.08765 441.42216 412.5 441 M 412.4046 440.96533 L 517.98836 440.8897 C 522.5619 440.5319 525.7611 444.4406 526.0625 448.9375 M 526.0611 448.8063 L 525.9982 470.8901 C 525.7176 475.5117 522.6723 478.8026 518.0625 478.9375 M 518.22404 478.9816 L 412.4345 478.9373 C 408.04195 479.05697 404.8789 475.19454 404.5625 470.9375 M 404.5122 471.1428 L 404.60545 449.0624 C 404.1397 444.32233 408.15015 441.35966 412.5625 440.9375" stroke="black" stroke-linecap="round" stroke-linejoin="round" stroke-width=".5"/>
        <text transform="translate(409.5 448.3939)" fill="black">
          <tspan font-family="Chalkboard SE" font-size="16" fill="black" x="20.90359" y="18" xml:space="preserve">[ 2, 2, 3 ]</tspan>
        </text>
      </g>
      <g id="Graphic_23">
        <path d="M 573.5 441 L 679 441 C 683.4183 441 687 444.5817 687 449 L 687 471 C 687 475.4183 683.4183 479 679 479 L 573.5 479 C 569.0817 479 565.5 475.4183 565.5 471 L 565.5 449 C 565.5 444.5817 569.0817 441 573.5 441 Z" fill="#ffc0c0"/>
        <path d="M 573.4224 440.9999 L 679.0446 441.114 C 683.04636 441.15024 686.5896 444.16835 687 449 M 687.0006 448.7625 L 686.9409 471.0753 C 687.31645 475.2532 683.6902 478.91586 679 479 M 679.0918 479 L 573.2056 478.9829 C 568.99885 478.6238 565.9201 475.82166 565.5 471 M 565.49964 471.2066 L 565.53905 448.84 C 565.16346 444.91944 569.0123 440.97323 573.5 441 M 573.45365 440.9506 L 678.9561 441.0591 C 683.10886 441.08774 686.6521 444.10585 687.0625 448.9375 M 687.05535 448.7313 L 686.9863 470.945 C 687.37895 475.1907 683.7527 478.85336 679.0625 478.9375 M 679.12305 478.9872 L 573.47605 478.9744 C 569.06135 478.5613 565.9826 475.75916 565.5625 470.9375 M 565.5162 471.1753 L 565.54994 449.0106 C 565.22596 444.85694 569.0748 440.91073 573.5625 440.9375" stroke="black" stroke-linecap="round" stroke-linejoin="round" stroke-width=".5"/>
        <text transform="translate(570.5 448.3939)" fill="black">
          <tspan font-family="Chalkboard SE" font-size="16" fill="black" x="20.90359" y="18" xml:space="preserve">[ 2, 2, 6 ]</tspan>
        </text>
      </g>
      <g id="Graphic_24">
        <path d="M 734.5 441 L 840 441 C 844.4183 441 848 444.5817 848 449 L 848 471 C 848 475.4183 844.4183 479 840 479 L 734.5 479 C 730.0817 479 726.5 475.4183 726.5 471 L 726.5 449 C 726.5 444.5817 730.0817 441 734.5 441 Z" fill="#ffc0c0"/>
        <path d="M 734.2839 440.9999 L 840.0101 441.04006 C 844.4922 440.8088 848.3642 444.71726 848 449 M 848.0005 448.875 L 847.9167 471.2346 C 848.0841 475.81757 844.7706 478.96665 840 479 M 840.1783 479 L 734.3664 479.0082 C 730.01864 478.99963 726.1402 475.5026 726.5 471 M 726.5002 471.239 L 726.48125 448.78277 C 726.2478 444.55994 729.937 441.40795 734.5 441 M 734.3152 440.9673 L 839.9238 440.9785 C 844.5547 440.7463 848.4267 444.65476 848.0625 448.9375 M 848.0491 448.8438 L 847.9743 471 C 848.1466 475.75507 844.8331 478.90415 840.0625 478.9375 M 840.2096 478.9929 L 734.5176 478.9803 C 730.08114 478.93713 726.2027 475.4401 726.5625 470.9375 M 726.5204 471.2078 L 726.4944 448.9588 C 726.3103 444.49744 729.9995 441.34545 734.5625 440.9375" stroke="black" stroke-linecap="round" stroke-linejoin="round" stroke-width=".5"/>
        <text transform="translate(731.5 448.3939)" fill="black">
          <tspan font-family="Chalkboard SE" font-size="16" fill="black" x="20.90359" y="18" xml:space="preserve">[ 2, 2, 7 ]</tspan>
        </text>
      </g>
      <g id="Line_26">
        <path d="M 467.6738 374.78743 L 345.73622 436.2984 M 467.8536 374.77114 L 346.2879 436.0143" marker-end="url(#StickArrow_Marker)" stroke="black" stroke-linecap="round" stroke-linejoin="round" stroke-width="1"/>
      </g>
      <g id="Line_27">
        <path d="M 497.63045 374.74174 L 476.0082 432.4344 M 497.8069 374.636 L 476.36115 431.92096" marker-end="url(#StickArrow_Marker)" stroke="black" stroke-linecap="round" stroke-linejoin="round" stroke-width="1"/>
      </g>
      <g id="Line_28">
        <path d="M 526.31654 374.46086 L 596.9157 434.8233 M 526.51506 374.24987 L 596.7778 434.33657" marker-end="url(#StickArrow_Marker)" stroke="black" stroke-linecap="round" stroke-linejoin="round" stroke-width="1"/>
      </g>
      <g id="Line_29">
        <path d="M 555.7658 374.78204 L 726.6731 437.4094 M 555.9067 374.61355 L 726.4002 437.1321" marker-end="url(#StickArrow_Marker)" stroke="black" stroke-linecap="round" stroke-linejoin="round" stroke-width="1"/>
      </g>
      <g id="Graphic_30">
        <path d="M 1037.75 337 L 1143.25 337 C 1147.6683 337 1151.25 340.58172 1151.25 345 L 1151.25 367 C 1151.25 371.4183 1147.6683 375 1143.25 375 L 1037.75 375 C 1033.3317 375 1029.75 371.4183 1029.75 367 L 1029.75 345 C 1029.75 340.58172 1033.3317 337 1037.75 337 Z" fill="white"/>
        <path d="M 1037.6407 336.9999 L 1143.303 337.097 C 1147.7166 336.56975 1150.9599 340.4761 1151.25 345 M 1151.2498 344.79996 L 1151.2753 367.19014 C 1150.848 371.67656 1147.6192 375.27134 1143.25 375 M 1143.3848 375.0001 L 1037.5812 374.90945 C 1033.3921 374.63323 1030.0126 371.35574 1029.75 367 M 1029.7513 367.24614 L 1029.6366 344.68944 C 1029.977 340.19517 1033.6187 337.3653 1037.75 337 M 1037.672 336.94252 L 1143.23 337.05738 C 1147.7791 336.50725 1151.0224 340.4136 1151.3125 344.9375 M 1151.2929 344.7687 L 1151.309 367.0793 C 1150.9106 371.61406 1147.6817 375.20884 1143.3125 374.9375 M 1143.416 374.99602 L 1037.767 374.89073 C 1033.4546 374.57073 1030.0751 371.29324 1029.8125 366.9375 M 1029.7619 367.215 L 1029.6614 344.89787 C 1030.0395 340.13267 1033.6812 337.3028 1037.8125 336.9375" stroke="black" stroke-linecap="round" stroke-linejoin="round" stroke-width=".5"/>
        <text transform="translate(1034.75 344.39392)" fill="black">
          <tspan font-family="Chalkboard SE" font-size="16" fill="black" x="30.55663" y="18" xml:space="preserve">[ 2, 3 ]</tspan>
        </text>
      </g>
      <g id="Graphic_31">
        <path d="M 900.25 441 L 1005.75 441 C 1010.1683 441 1013.75 444.5817 1013.75 449 L 1013.75 471 C 1013.75 475.4183 1010.1683 479 1005.75 479 L 900.25 479 C 895.8317 479 892.25 475.4183 892.25 471 L 892.25 449 C 892.25 444.5817 895.8317 441 900.25 441 Z" fill="#ffc0c0"/>
        <path d="M 900.0022 440.99995 L 1005.7685 441.0231 C 1009.7626 441.1265 1013.3508 444.14133 1013.75 449 M 1013.75 448.91245 L 1013.7515 471.0994 C 1013.9959 475.3648 1010.1996 479.3221 1005.75 479 M 1005.9713 479.00014 L 900.0544 478.9347 C 895.9135 479.0128 892.6163 475.0367 892.25 471 M 892.2497 471.0911 L 892.3314 448.6322 C 892.5526 444.71256 896.0433 440.91636 900.25 441 M 900.0335 440.95927 L 1005.6977 440.9768 C 1009.8251 441.064 1013.4133 444.07883 1013.8125 448.9375 M 1013.787 448.8812 L 1013.797 470.8842 C 1014.0584 475.3023 1010.262 479.2596 1005.8125 478.9375 M 1006.0026 478.9705 L 900.3085 478.9279 C 895.976 478.9503 892.6788 474.9742 892.3125 470.9375 M 892.2639 471.05977 L 892.3559 448.846 C 892.6151 444.65006 896.1058 440.85386 900.3125 440.9375" stroke="black" stroke-linecap="round" stroke-linejoin="round" stroke-width=".5"/>
        <text transform="translate(897.25 448.3939)" fill="black">
          <tspan font-family="Chalkboard SE" font-size="16" fill="black" x="21.3721" y="18" xml:space="preserve">[ 2, 3, 3 ]</tspan>
        </text>
      </g>
      <g id="Graphic_32">
        <path d="M 1037.75 441 L 1143.25 441 C 1147.6683 441 1151.25 444.5817 1151.25 449 L 1151.25 471 C 1151.25 475.4183 1147.6683 479 1143.25 479 L 1037.75 479 C 1033.3317 479 1029.75 475.4183 1029.75 471 L 1029.75 449 C 1029.75 444.5817 1033.3317 441 1037.75 441 Z" fill="#ffc0c0"/>
        <path d="M 1037.5513 441.0001 L 1143.234 440.94915 C 1147.709 440.7843 1151.6254 444.69024 1151.25 449 M 1151.2502 448.83745 L 1151.2277 471.07116 C 1151.2613 475.0459 1147.78 479.3729 1143.25 479 M 1143.3703 479.00005 L 1037.7152 478.96 C 1033.4352 479.3994 1029.3364 475.6013 1029.75 471 M 1029.7499 471.1235 L 1029.7733 449.0125 C 1030.1485 444.3561 1033.468 441.3511 1037.75 441 M 1037.5825 440.94487 L 1143.1654 440.8962 C 1147.7714 440.7218 1151.688 444.62774 1151.3125 448.9375 M 1151.3122 448.8062 L 1151.2851 470.93914 C 1151.3238 474.9834 1147.8424 479.3104 1143.3125 478.9375 M 1143.4016 478.9761 L 1037.8501 478.9338 C 1033.4977 479.3369 1029.3989 475.5388 1029.8125 470.9375 M 1029.7677 471.09225 L 1029.8004 449.04417 C 1030.211 444.2936 1033.5305 441.2886 1037.8125 440.9375" stroke="black" stroke-linecap="round" stroke-linejoin="round" stroke-width=".5"/>
        <text transform="translate(1034.75 448.3939)" fill="black">
          <tspan font-family="Chalkboard SE" font-size="16" fill="black" x="21.3721" y="18" xml:space="preserve">[ 2, 3, 6 ]</tspan>
        </text>
      </g>
      <g id="Graphic_33">
        <path d="M 1175.25 441 L 1280.75 441 C 1285.1683 441 1288.75 444.5817 1288.75 449 L 1288.75 471 C 1288.75 475.4183 1285.1683 479 1280.75 479 L 1175.25 479 C 1170.8317 479 1167.25 475.4183 1167.25 471 L 1167.25 449 C 1167.25 444.5817 1170.8317 441 1175.25 441 Z" fill="#ffc0c0"/>
        <path d="M 1175.1003 441.0002 L 1280.9495 440.87523 C 1284.7712 441.33147 1289.0164 444.3555 1288.75 449 M 1288.7505 448.76244 L 1288.7037 471.2304 C 1288.5324 475.6135 1285.3603 479.4237 1280.75 479 M 1280.9568 479.00003 L 1175.1885 478.98527 C 1170.9573 478.88744 1166.9401 475.2823 1167.25 471 M 1167.2502 471.15595 L 1167.2158 448.9553 C 1166.8365 444.88884 1170.8927 440.90214 1175.25 441 M 1175.1315 440.96166 L 1280.883 440.8156 C 1284.8337 441.26897 1289.0789 444.293 1288.8125 448.9375 M 1288.8064 448.73124 L 1288.742 470.99404 C 1288.5949 475.551 1285.4228 479.3612 1280.8125 478.9375 M 1280.9881 478.9818 L 1175.3916 478.97094 C 1171.0198 478.82494 1167.0026 475.2198 1167.3125 470.9375 M 1167.2717 471.1247 L 1167.2449 448.99234 C 1166.899 444.82634 1170.9552 440.83964 1175.3125 440.9375" stroke="black" stroke-linecap="round" stroke-linejoin="round" stroke-width=".5"/>
        <text transform="translate(1172.25 448.3939)" fill="black">
          <tspan font-family="Chalkboard SE" font-size="16" fill="black" x="21.3721" y="18" xml:space="preserve">[ 2, 3, 7 ]</tspan>
        </text>
      </g>
      <g id="Line_34">
        <path d="M 1065.7001 374.75604 L 985.9904 435.46515 M 1065.878 374.70047 L 986.4289 435.12167" marker-end="url(#StickArrow_Marker)" stroke="black" stroke-linecap="round" stroke-linejoin="round" stroke-width="1"/>
      </g>
      <g id="Line_35">
        <path d="M 1090.4975 374.04353 L 1090.6499 431.3834 M 1090.6429 373.91847 L 1090.817 430.88545" marker-end="url(#StickArrow_Marker)" stroke="black" stroke-linecap="round" stroke-linejoin="round" stroke-width="1"/>
      </g>
      <g id="Line_36">
        <path d="M 1115.0123 374.5433 L 1195.2947 434.8617 M 1115.1846 374.3554 L 1195.1708 434.462" marker-end="url(#StickArrow_Marker)" stroke="black" stroke-linecap="round" stroke-linejoin="round" stroke-width="1"/>
      </g>
      <g id="Graphic_37">
        <path d="M 1235 337 L 1340.5 337 C 1344.9183 337 1348.5 340.58172 1348.5 345 L 1348.5 367 C 1348.5 371.4183 1344.9183 375 1340.5 375 L 1235 375 C 1230.5817 375 1227 371.4183 1227 367 L 1227 345 C 1227 340.58172 1230.5817 337 1235 337 Z" fill="#ffc0c0"/>
        <path d="M 1234.859 336.9999 L 1340.5614 337.08 C 1344.493 336.8848 1348.3302 340.7838 1348.5 345 M 1348.4992 344.8374 L 1348.6105 367.24245 C 1348.244 371.22836 1344.5482 374.74316 1340.5 375 M 1340.6778 374.99985 L 1234.9567 375.0863 C 1230.7881 374.64297 1227.105 371.77347 1227 367 M 1227 367.0982 L 1226.9868 344.9764 C 1226.9097 340.34184 1230.3413 336.8737 1235 337 M 1234.8902 336.9657 L 1340.5039 337.0244 C 1344.5555 336.8223 1348.3927 340.7213 1348.5625 344.9375 M 1348.5306 344.80616 L 1348.663 366.96353 C 1348.3065 371.16586 1344.6107 374.68066 1340.5625 374.9375 M 1340.7091 374.9732 L 1235.0579 375.05704 C 1230.8506 374.58047 1227.1675 371.71097 1227.0625 366.9375 M 1227.0047 367.06697 L 1226.9916 345.03504 C 1226.9722 340.27934 1230.4038 336.8112 1235.0625 336.9375" stroke="black" stroke-linecap="round" stroke-linejoin="round" stroke-width=".5"/>
        <text transform="translate(1232 344.39392)" fill="black">
          <tspan font-family="Chalkboard SE" font-size="16" fill="black" x="30.55663" y="18" xml:space="preserve">[ 2, 6 ]</tspan>
        </text>
      </g>
      <g id="Graphic_44">
        <path d="M 1432.25 337 L 1537.75 337 C 1542.1683 337 1545.75 340.58172 1545.75 345 L 1545.75 367 C 1545.75 371.4183 1542.1683 375 1537.75 375 L 1432.25 375 C 1427.8317 375 1424.25 371.4183 1424.25 367 L 1424.25 345 C 1424.25 340.58172 1427.8317 337 1432.25 337 Z" fill="#ffc0c0"/>
        <path d="M 1432.0773 336.9999 L 1537.8198 337.063 C 1542.159 337.19648 1545.7005 340.2079 1545.75 345 M 1545.7503 344.87487 L 1545.6927 367.10727 C 1545.6484 371.6643 1542.3608 375.09864 1537.75 375 M 1537.9709 374.99997 L 1432.1448 375.0129 C 1428.1867 374.653 1424.1975 371.30755 1424.25 367 M 1424.2495 367.13776 L 1424.3364 344.82585 C 1423.8456 340.5026 1427.9477 337.26577 1432.25 337 M 1432.1085 336.9576 L 1537.7778 337.0227 C 1542.2216 337.13398 1545.763 340.1454 1545.8125 344.9375 M 1545.8014 344.84367 L 1545.7356 366.848 C 1545.7109 371.6018 1542.4233 375.03614 1537.8125 374.9375 M 1538.0021 374.98202 L 1432.3488 375.0046 C 1428.2492 374.5905 1424.26 371.24505 1424.3125 366.9375 M 1424.2794 367.1065 L 1424.353 344.92216 C 1423.908 340.4401 1428.0102 337.20327 1432.3125 336.9375" stroke="black" stroke-linecap="round" stroke-linejoin="round" stroke-width=".5"/>
        <text transform="translate(1429.25 344.39392)" fill="black">
          <tspan font-family="Chalkboard SE" font-size="16" fill="black" x="30.55663" y="18" xml:space="preserve">[ 2, 7 ]</tspan>
        </text>
      </g>
      <g id="Line_49">
        <path d="M 1188.4547 230.10289 L 574.592 342.9765 M 1188.5951 230.0616 L 575.70765 342.71616" marker-end="url(#StickArrow_Marker)" stroke="black" stroke-linecap="round" stroke-linejoin="round" stroke-width="1"/>
      </g>
      <g id="Line_50">
        <path d="M 1227.0019 237.8265 L 1119.3967 331.65025 M 1227.139 237.7153 L 1120.3158 330.9297" marker-end="url(#StickArrow_Marker)" stroke="black" stroke-linecap="round" stroke-linejoin="round" stroke-width="1"/>
      </g>
      <g id="Line_51">
        <path d="M 1253.9346 237.2135 L 1279.9813 328.60583 M 1254.1332 237.06753 L 1279.9336 327.5099" marker-end="url(#StickArrow_Marker)" stroke="black" stroke-linecap="round" stroke-linejoin="round" stroke-width="1"/>
      </g>
      <g id="Line_52">
        <path d="M 1280.9767 237.68835 L 1444.465 332.40967 M 1281.1066 237.55497 L 1443.7498 331.79553" marker-end="url(#StickArrow_Marker)" stroke="black" stroke-linecap="round" stroke-linejoin="round" stroke-width="1"/>
      </g>
      <g id="Graphic_53">
        <path d="M 1872.5 200 L 1978 200 C 1982.4183 200 1986 203.58172 1986 208 L 1986 230 C 1986 234.41828 1982.4183 238 1978 238 L 1872.5 238 C 1868.0817 238 1864.5 234.41828 1864.5 230 L 1864.5 208 C 1864.5 203.58172 1868.0817 200 1872.5 200 Z" fill="white"/>
        <path d="M 1872.3936 200.0001 L 1978.1967 199.89807 C 1982.8183 199.83678 1985.8527 203.72979 1986 208 M 1986.0002 207.7623 L 1985.9797 230.3531 C 1985.6088 234.45108 1982.4506 237.67203 1978 238 M 1978.2494 238.00002 L 1872.217 237.99 C 1867.738 238.42673 1864.4974 234.08722 1864.5 230 M 1864.4992 230.2422 L 1864.571 207.81086 C 1864.8156 203.82839 1868.4034 199.75996 1872.5 200 M 1872.4249 199.95188 L 1977.987 199.8598 C 1982.8808 199.77428 1985.9152 203.66729 1986.0625 207.9375 M 1986.0586 207.73108 L 1986.0345 230.09213 C 1985.6713 234.38858 1982.513 237.60953 1978.0625 237.9375 M 1978.2806 237.97093 L 1872.4728 237.96395 C 1867.8006 238.36423 1864.56 234.02472 1864.5625 229.9375 M 1864.5304 230.21094 L 1864.5722 207.95565 C 1864.878 203.76589 1868.4659 199.69746 1872.5625 199.9375" stroke="black" stroke-linecap="round" stroke-linejoin="round" stroke-width=".5"/>
        <text transform="translate(1869.5 207.39392)" fill="black">
          <tspan font-family="Chalkboard SE" font-size="16" fill="black" x="40.20967" y="18" xml:space="preserve">[ 3 ]</tspan>
        </text>
      </g>
      <g id="Graphic_54">
        <path d="M 1712 337 L 1817.5 337 C 1821.9183 337 1825.5 340.58172 1825.5 345 L 1825.5 367 C 1825.5 371.4183 1821.9183 375 1817.5 375 L 1712 375 C 1707.5817 375 1704 371.4183 1704 367 L 1704 345 C 1704 340.58172 1707.5817 337 1712 337 Z" fill="white"/>
        <path d="M 1711.7552 336.99983 L 1817.6622 337.0746 C 1821.8675 337.39454 1825.2437 340.39504 1825.5 345 M 1825.5002 344.8748 L 1825.456 367.07486 C 1825.7552 371.13 1822.031 374.7228 1817.5 375 M 1817.6484 375 L 1711.8777 375.01527 C 1707.2554 374.92964 1704.1011 371.65184 1704 367 M 1704 367.08713 L 1704.0133 344.75364 C 1704.3912 340.4743 1707.828 337.19468 1712 337 M 1711.7864 336.9683 L 1817.4548 337.0292 C 1821.93 337.33204 1825.3062 340.33254 1825.5625 344.9375 M 1825.5525 344.8436 L 1825.4913 366.897 C 1825.8177 371.0675 1822.0935 374.6603 1817.5625 374.9375 M 1817.6796 374.9766 L 1712.0144 375.0011 C 1707.3179 374.86714 1704.1636 371.58934 1704.0625 366.9375 M 1704.0035 367.05587 L 1704.0167 344.9039 C 1704.4537 340.4118 1707.8905 337.13218 1712.0625 336.9375" stroke="black" stroke-linecap="round" stroke-linejoin="round" stroke-width=".5"/>
        <text transform="translate(1709 344.39392)" fill="black">
          <tspan font-family="Chalkboard SE" font-size="16" fill="black" x="31.025138" y="18" xml:space="preserve">[ 3, 3 ]</tspan>
        </text>
      </g>
      <g id="Graphic_55">
        <path d="M 1574 441 L 1679.5 441 C 1683.9183 441 1687.5 444.5817 1687.5 449 L 1687.5 471 C 1687.5 475.4183 1683.9183 479 1679.5 479 L 1574 479 C 1569.5817 479 1566 475.4183 1566 471 L 1566 449 C 1566 444.5817 1569.5817 441 1574 441 Z" fill="#ffc0c0"/>
        <path d="M 1573.8042 441 L 1679.6277 441.0006 C 1684.3157 441.05477 1687.1346 444.94395 1687.5 449 M 1687.5006 448.7998 L 1687.4323 471.0466 C 1687.5211 475.70197 1684.1114 478.7736 1679.5 479 M 1679.735 478.9999 L 1573.851 479.04056 C 1569.273 479.3117 1566.2049 475.3328 1566 471 M 1566.0002 471.11957 L 1565.9555 448.6964 C 1565.6047 444.989 1569.7527 440.74574 1574 441 M 1573.8355 440.95393 L 1679.4225 440.9486 C 1684.3782 440.99227 1687.1971 444.88145 1687.5625 448.9375 M 1687.5468 448.7686 L 1687.4794 470.95196 C 1687.5836 475.63947 1684.1739 478.7111 1679.5625 478.9375 M 1679.7662 478.98223 L 1574.056 479.03826 C 1569.3355 479.2492 1566.2674 475.2703 1566.0625 470.9375 M 1566.0074 471.08837 L 1565.9612 448.85213 C 1565.6672 444.9265 1569.8152 440.68324 1574.0625 440.9375" stroke="black" stroke-linecap="round" stroke-linejoin="round" stroke-width=".5"/>
        <text transform="translate(1571 448.3939)" fill="black">
          <tspan font-family="Chalkboard SE" font-size="16" fill="black" x="21.840608" y="18" xml:space="preserve">[ 3, 3, 3 ]</tspan>
        </text>
      </g>
      <g id="Graphic_56">
        <path d="M 1712 441 L 1817.5 441 C 1821.9183 441 1825.5 444.5817 1825.5 449 L 1825.5 471 C 1825.5 475.4183 1821.9183 479 1817.5 479 L 1712 479 C 1707.5817 479 1704 475.4183 1704 471 L 1704 449 C 1704 444.5817 1707.5817 441 1712 441 Z" fill="#ffc0c0"/>
        <path d="M 1711.8533 441.0001 L 1817.8431 440.9266 C 1821.8617 440.72603 1825.9092 444.6092 1825.5 449 M 1825.5004 448.9123 L 1825.408 471.2059 C 1825.2927 475.38374 1822.1917 478.8244 1817.5 479 M 1817.634 478.9999 L 1711.8243 479.0659 C 1707.291 478.80395 1704.3086 475.0138 1704 471 M 1704.0007 471.152 L 1703.8977 448.8892 C 1703.6685 444.6448 1707.6774 441.18046 1712 441 M 1711.8845 440.9395 L 1817.6402 440.868 C 1821.9242 440.66353 1825.9717 444.5467 1825.5625 448.9375 M 1825.5404 448.8811 L 1825.4674 471.00693 C 1825.3552 475.32124 1822.2542 478.7619 1817.5625 478.9375 M 1817.6652 478.98795 L 1712.0975 479.04416 C 1707.3536 478.74145 1704.371 474.9513 1704.0625 470.9375 M 1704.0115 471.12085 L 1703.9057 449.05036 C 1703.731 444.5823 1707.7399 441.11796 1712.0625 440.9375" stroke="black" stroke-linecap="round" stroke-linejoin="round" stroke-width=".5"/>
        <text transform="translate(1709 448.3939)" fill="black">
          <tspan font-family="Chalkboard SE" font-size="16" fill="black" x="21.840608" y="18" xml:space="preserve">[ 3, 3, 6 ]</tspan>
        </text>
      </g>
      <g id="Graphic_57">
        <path d="M 1850 441 L 1955.5 441 C 1959.9183 441 1963.5 444.5817 1963.5 449 L 1963.5 471 C 1963.5 475.4183 1959.9183 479 1955.5 479 L 1850 479 C 1845.5817 479 1842 475.4183 1842 471 L 1842 449 C 1842 444.5817 1845.5817 441 1850 441 Z" fill="#ffc0c0"/>
        <path d="M 1849.9023 440.9999 L 1955.8086 441.1031 C 1960.2915 441.2639 1963.8002 444.27445 1963.5 449 M 1963.5008 448.8373 L 1963.3846 471.17764 C 1963.07 475.07333 1960.2721 478.87516 1955.5 479 M 1955.7204 478.9998 L 1849.985 479.0911 C 1845.3095 479.19206 1842.4123 475.5784 1842 471 M 1841.9992 471.18444 L 1842.0922 448.832 C 1841.7534 444.28523 1845.602 440.7315 1850 441 M 1849.9336 440.956 L 1955.608 441.06864 C 1960.354 441.2014 1963.8627 444.21195 1963.5625 448.9375 M 1963.5348 448.80605 L 1963.4242 471.06176 C 1963.1325 475.01083 1960.3346 478.81266 1955.5625 478.9375 M 1955.7517 478.99355 L 1850.139 479.0813 C 1845.372 479.12956 1842.4748 475.5159 1842.0625 470.9375 M 1842.0136 471.1531 L 1842.1002 448.99833 C 1841.816 444.22273 1845.6645 440.669 1850.0625 440.9375" stroke="black" stroke-linecap="round" stroke-linejoin="round" stroke-width=".5"/>
        <text transform="translate(1847 448.3939)" fill="black">
          <tspan font-family="Chalkboard SE" font-size="16" fill="black" x="21.840608" y="18" xml:space="preserve">[ 3, 3, 7 ]</tspan>
        </text>
      </g>
      <g id="Line_58">
        <path d="M 1740.2917 374.42995 L 1659.3123 435.71244 M 1740.4824 374.39173 L 1660.1937 435.0639" marker-end="url(#StickArrow_Marker)" stroke="black" stroke-linecap="round" stroke-linejoin="round" stroke-width="1"/>
      </g>
      <g id="Line_59">
        <path d="M 1764.7494 374.2515 L 1764.799 431.83094 M 1764.9164 374.12647 L 1764.9892 430.7957" marker-end="url(#StickArrow_Marker)" stroke="black" stroke-linecap="round" stroke-linejoin="round" stroke-width="1"/>
      </g>
      <g id="Line_60">
        <path d="M 1789.5193 374.66905 L 1870.2728 435.1071 M 1789.7044 374.4638 L 1869.732 434.36757" marker-end="url(#StickArrow_Marker)" stroke="black" stroke-linecap="round" stroke-linejoin="round" stroke-width="1"/>
      </g>
      <g id="Graphic_61">
        <path d="M 1872.5 337 L 1978 337 C 1982.4183 337 1986 340.58172 1986 345 L 1986 367 C 1986 371.4183 1982.4183 375 1978 375 L 1872.5 375 C 1868.0817 375 1864.5 371.4183 1864.5 367 L 1864.5 345 C 1864.5 340.58172 1868.0817 337 1872.5 337 Z" fill="#ffc0c0"/>
        <path d="M 1872.411 336.99995 L 1978.1706 337.0576 C 1982.786 336.81266 1985.864 340.70277 1986 345 M 1985.9998 344.91226 L 1986.0405 367.18967 C 1986.402 371.56166 1982.21 375.0783 1978 375 M 1978.1914 375.0001 L 1872.3158 374.9418 C 1867.8976 374.9421 1864.4436 371.18592 1864.5 367 M 1864.4994 367.1267 L 1864.6134 344.8531 C 1864.5787 340.6299 1867.8007 336.7031 1872.5 337 M 1872.4422 336.96035 L 1977.9787 336.99624 C 1982.8486 336.75016 1985.9265 340.64027 1986.0625 344.9375 M 1986.0405 344.881 L 1986.0952 367.0313 C 1986.4645 371.49916 1982.2725 375.0158 1978.0625 374.9375 M 1978.2227 374.9854 L 1872.5553 374.9174 C 1867.96 374.8796 1864.506 371.12342 1864.5625 366.9375 M 1864.5282 367.09543 L 1864.6281 345.04102 C 1864.6412 340.5674 1867.8632 336.6406 1872.5625 336.9375" stroke="black" stroke-linecap="round" stroke-linejoin="round" stroke-width=".5"/>
        <text transform="translate(1869.5 344.39392)" fill="black">
          <tspan font-family="Chalkboard SE" font-size="16" fill="black" x="31.025138" y="18" xml:space="preserve">[ 3, 6 ]</tspan>
        </text>
      </g>
      <g id="Graphic_62">
        <path d="M 2033 337 L 2138.5 337 C 2142.9183 337 2146.5 340.58172 2146.5 345 L 2146.5 367 C 2146.5 371.4183 2142.9183 375 2138.5 375 L 2033 375 C 2028.5817 375 2025 371.4183 2025 367 L 2025 345 C 2025 340.58172 2028.5817 337 2033 337 Z" fill="#ffc0c0"/>
        <path d="M 2032.7725 337.00004 L 2138.636 336.9836 C 2142.8343 337.3712 2146.255 340.36802 2146.5 345 M 2146.5 344.83725 L 2146.5167 367.34893 C 2146.673 371.25088 2142.7904 375.12907 2138.5 375 M 2138.5904 375.00003 L 2032.9766 374.9671 C 2028.4168 375.3278 2025.0473 371.75055 2025 367 M 2024.9996 367.15913 L 2025.0555 344.79587 C 2025.1587 340.27128 2028.2254 337.1378 2033 337 M 2032.8037 336.9459 L 2138.4464 336.9469 C 2142.8968 337.3087 2146.3174 340.30552 2146.5625 344.9375 M 2146.5344 344.806 L 2146.552 367.08624 C 2146.7355 371.18838 2142.8529 375.06657 2138.5625 374.9375 M 2138.6217 374.99105 L 2033.0968 374.95456 C 2028.4793 375.2653 2025.1098 371.68805 2025.0625 366.9375 M 2025.0008 367.1278 L 2025.0726 344.98924 C 2025.2212 340.20878 2028.288 337.0753 2033.0625 336.9375" stroke="black" stroke-linecap="round" stroke-linejoin="round" stroke-width=".5"/>
        <text transform="translate(2030 344.39392)" fill="black">
          <tspan font-family="Chalkboard SE" font-size="16" fill="black" x="31.025138" y="18" xml:space="preserve">[ 3, 7 ]</tspan>
        </text>
      </g>
      <g id="Line_63">
        <path d="M 1903.5357 237.53877 L 1793.4027 330.77695 M 1903.6767 237.43268 L 1794.227 330.1241" marker-end="url(#StickArrow_Marker)" stroke="black" stroke-linecap="round" stroke-linejoin="round" stroke-width="1"/>
      </g>
      <g id="Line_64">
        <path d="M 1925.2477 237.48234 L 1925.656 328.3096 M 1925.4556 237.35697 L 1925.8531 327.31835" marker-end="url(#StickArrow_Marker)" stroke="black" stroke-linecap="round" stroke-linejoin="round" stroke-width="1"/>
      </g>
      <g id="Line_65">
        <path d="M 1947.2644 237.7915 L 2056.8864 331.1767 M 1947.3999 237.6542 L 2056.4258 330.41754" marker-end="url(#StickArrow_Marker)" stroke="black" stroke-linecap="round" stroke-linejoin="round" stroke-width="1"/>
      </g>
      <g id="Graphic_66">
        <path d="M 2300 200 L 2405.5 200 C 2409.9183 200 2413.5 203.58172 2413.5 208 L 2413.5 230 C 2413.5 234.41828 2409.9183 238 2405.5 238 L 2300 238 C 2295.5817 238 2292 234.41828 2292 230 L 2292 208 C 2292 203.58172 2295.5817 200 2300 200 Z" fill="white"/>
        <path d="M 2299.7812 200.00013 L 2405.748 199.9381 C 2409.8204 199.91133 2413.7024 203.79634 2413.5 208 M 2413.5003 207.91222 L 2413.4214 230.17347 C 2413.6383 234.7376 2410.112 238.3322 2405.5 238 M 2405.749 237.99984 L 2299.8072 238.0682 C 2295.5021 238.0777 2291.5786 234.35807 2292 230 M 2291.9996 230.10138 L 2292.0767 207.817 C 2291.5908 203.61505 2295.8077 200.10937 2300 200 M 2299.8124 199.9503 L 2405.5672 199.90573 C 2409.883 199.84883 2413.765 203.73384 2413.5625 207.9375 M 2413.5416 207.881 L 2413.473 230.05593 C 2413.7008 234.6751 2410.1744 238.2697 2405.5625 237.9375 M 2405.7802 237.98244 L 2300.013 238.04066 C 2295.5646 238.0152 2291.641 234.29557 2292.0625 229.9375 M 2292.0153 230.07008 L 2292.1006 208.03193 C 2291.6533 203.55255 2295.8702 200.04687 2300.0625 199.9375" stroke="black" stroke-linecap="round" stroke-linejoin="round" stroke-width=".5"/>
        <text transform="translate(2297 207.39392)" fill="black">
          <tspan font-family="Chalkboard SE" font-size="16" fill="black" x="40.20967" y="18" xml:space="preserve">[ 6 ]</tspan>
        </text>
      </g>
      <g id="Graphic_67">
        <path d="M 2592 200 L 2697.5 200 C 2701.9183 200 2705.5 203.58172 2705.5 208 L 2705.5 230 C 2705.5 234.41828 2701.9183 238 2697.5 238 L 2592 238 C 2587.5817 238 2584 234.41828 2584 230 L 2584 208 C 2584 203.58172 2587.5817 200 2592 200 Z" fill="#c0ffc0"/>
        <path d="M 2591.8302 199.99982 L 2697.7135 200.1146 C 2702.257 199.5765 2705.5933 203.4616 2705.5 208 M 2705.5008 207.83722 L 2705.397 230.08273 C 2705.4087 234.42677 2702.1923 238.38298 2697.5 238 M 2697.648 237.99987 L 2591.7805 238.09355 C 2587.522 237.57258 2583.6823 234.03904 2584 230 M 2584 230.13382 L 2584.0186 207.94727 C 2583.6764 203.25737 2587.7324 199.66043 2592 200 M 2591.8615 199.96668 L 2697.535 200.07513 C 2702.3197 199.514 2705.656 203.3991 2705.5625 207.9375 M 2705.536 207.806 L 2705.43 229.86077 C 2705.4712 234.36427 2702.2548 238.32048 2697.5625 237.9375 M 2697.6792 237.98817 L 2592.0546 238.07782 C 2587.5846 237.51008 2583.7448 233.97654 2584.0625 229.9375 M 2584.019 230.10256 L 2584.045 207.98012 C 2583.739 203.19487 2587.795 199.59793 2592.0625 199.9375" stroke="black" stroke-linecap="round" stroke-linejoin="round" stroke-width=".5"/>
        <text transform="translate(2589 207.39392)" fill="black">
          <tspan font-family="Chalkboard SE" font-size="16" fill="black" x="40.20967" y="18" xml:space="preserve">[ 7 ]</tspan>
        </text>
      </g>
      <g id="Graphic_68">
        <path d="M 2218.5 337 L 2324 337 C 2328.4183 337 2332 340.58172 2332 345 L 2332 367 C 2332 371.4183 2328.4183 375 2324 375 L 2218.5 375 C 2214.0817 375 2210.5 371.4183 2210.5 367 L 2210.5 345 C 2210.5 340.58172 2214.0817 337 2218.5 337 Z" fill="#ffc0c0"/>
        <path d="M 2218.3792 336.99995 L 2324.179 337.0406 C 2328.3107 337.12646 2331.9843 341.0105 2332 345 M 2331.9987 344.7622 L 2332.125 367.0545 C 2331.677 371.10533 2328.7727 375.43377 2324 375 M 2324.2344 374.99974 L 2218.4413 375.1187 C 2214.0425 374.95483 2210.286 371.60366 2210.5 367 M 2210.5003 367.16625 L 2210.4612 344.89005 C 2210.26 340.78364 2214.157 337.09515 2218.5 337 M 2218.4105 336.95227 L 2324.0026 336.99453 C 2328.3732 337.06396 2332.0468 340.948 2332.0625 344.9375 M 2332.059 344.7308 L 2332.168 366.9156 C 2331.7394 371.04283 2328.8352 375.37127 2324.0625 374.9375 M 2324.2657 374.99375 L 2218.5962 375.11497 C 2214.105 374.89233 2210.3485 371.54116 2210.5625 366.9375 M 2210.523 367.135 L 2210.4896 344.9283 C 2210.3225 340.72114 2214.2196 337.03265 2218.5625 336.9375" stroke="black" stroke-linecap="round" stroke-linejoin="round" stroke-width=".5"/>
        <text transform="translate(2215.5 344.39392)" fill="black">
          <tspan font-family="Chalkboard SE" font-size="16" fill="black" x="30.55663" y="18" xml:space="preserve">[ 6, 6 ]</tspan>
        </text>
      </g>
      <g id="Graphic_69">
        <path d="M 2373.5 337 L 2479 337 C 2483.4183 337 2487 340.58172 2487 345 L 2487 367 C 2487 371.4183 2483.4183 375 2479 375 L 2373.5 375 C 2369.0817 375 2365.5 371.4183 2365.5 367 L 2365.5 345 C 2365.5 340.58172 2369.0817 337 2373.5 337 Z" fill="#ffc0c0"/>
        <path d="M 2373.4283 337.00002 L 2479.1444 336.9666 C 2483.7538 336.78844 2486.8752 340.67576 2487 345 M 2486.9994 344.8747 L 2487.1015 367.21375 C 2487.3343 371.67537 2483.853 374.6009 2479 375 M 2479.1334 375.00013 L 2373.4146 374.8936 C 2369.0633 375.34427 2365.3898 371.28463 2365.5 367 M 2365.501 367.1987 L 2365.4037 344.83283 C 2365.3417 340.43228 2369.0817 336.6462 2373.5 337 M 2373.4595 336.9378 L 2478.9703 336.91392 C 2483.8163 336.72594 2486.9377 340.61326 2487.0625 344.9375 M 2487.0536 344.84335 L 2487.156 366.97046 C 2487.3968 371.61287 2483.9155 374.5384 2479.0625 374.9375 M 2479.1647 374.99985 L 2373.6377 374.87087 C 2369.1258 375.28177 2365.4523 371.22213 2365.5625 366.9375 M 2365.5273 367.16746 L 2365.434 344.87647 C 2365.4042 340.36978 2369.1442 336.5837 2373.5625 336.9375" stroke="black" stroke-linecap="round" stroke-linejoin="round" stroke-width=".5"/>
        <text transform="translate(2370.5 344.39392)" fill="black">
          <tspan font-family="Chalkboard SE" font-size="16" fill="black" x="30.55663" y="18" xml:space="preserve">[ 6, 7 ]</tspan>
        </text>
      </g>
      <g id="Line_70">
        <path d="M 2341.8806 237.27972 L 2286.8223 328.75928 M 2342.0545 237.18418 L 2287.4632 327.99618" marker-end="url(#StickArrow_Marker)" stroke="black" stroke-linecap="round" stroke-linejoin="round" stroke-width="1"/>
      </g>
      <g id="Line_71">
        <path d="M 2362.637 237.43298 L 2412.2562 329.25924 M 2362.8635 237.25317 L 2412.0122 328.4199" marker-end="url(#StickArrow_Marker)" stroke="black" stroke-linecap="round" stroke-linejoin="round" stroke-width="1"/>
      </g>
      <g id="Line_72">
        <path d="M 2134.8017 73.24365 L 1960.4098 194.78195 M 2134.9544 73.15844 L 1961.211 194.23678" marker-end="url(#StickArrow_Marker)" stroke="black" stroke-linecap="round" stroke-linejoin="round" stroke-width="1"/>
      </g>
      <g id="Line_73">
        <path d="M 2183.6194 73.33585 L 2324.024 193.73615 M 2183.8138 73.12986 L 2323.597 193.04707" marker-end="url(#StickArrow_Marker)" stroke="black" stroke-linecap="round" stroke-linejoin="round" stroke-width="1"/>
      </g>
      <g id="Line_74">
        <path d="M 2215.9033 72.942785 L 2581.3083 197.74582 M 2216.0412 72.78005 L 2580.7287 197.27881" marker-end="url(#StickArrow_Marker)" stroke="black" stroke-linecap="round" stroke-linejoin="round" stroke-width="1"/>
      </g>
      <g id="Line_75">
        <path d="M 2101.6002 65.33744 L 1318.4679 206.52942 M 2101.7426 65.30895 L 1319.371 206.38904" marker-end="url(#StickArrow_Marker)" stroke="black" stroke-linecap="round" stroke-linejoin="round" stroke-width="1"/>
      </g>
      <g id="Graphic_83">
        <path d="M 2084.25 -63.5 L 2239.25 -63.5 C 2243.6683 -63.5 2247.25 -59.91828 2247.25 -55.5 L 2247.25 -15.075684 C 2247.25 -10.657406 2243.6683 -7.075684 2239.25 -7.075684 L 2084.25 -7.075684 C 2079.8317 -7.075684 2076.25 -10.657406 2076.25 -15.075684 L 2076.25 -55.5 C 2076.25 -59.91828 2079.8317 -63.5 2084.25 -63.5 Z" fill="#c0ffff"/>
        <path d="M 2084.1149 -63.49994 L 2239.4112 -63.56735 C 2243.943 -63.085885 2247.366 -60.092434 2247.25 -55.5 M 2247.25 -55.737886 L 2247.2687 -14.882306 C 2247.0152 -10.4268 2243.461 -6.763834 2239.25 -7.075684 M 2239.4695 -7.0756795 L 2083.9782 -7.078572 C 2080.099 -6.7185465 2075.8247 -10.839243 2076.25 -15.075684 M 2076.2498 -14.985371 L 2076.3526 -55.71827 C 2076.3315 -59.76051 2079.6608 -63.06966 2084.25 -63.5 M 2084.146 -63.54709 L 2239.268 -63.620745 C 2244.0056 -63.148385 2247.4284 -60.154934 2247.3125 -55.5625 M 2247.312 -55.76915 L 2247.3014 -15.086452 C 2247.0777 -10.4893 2243.5235 -6.826334 2239.3125 -7.138184 M 2239.5007 -7.089821 L 2084.2196 -7.090954 C 2080.1615 -6.7810465 2075.8872 -10.901743 2076.3125 -15.138184 M 2076.2643 -15.016663 L 2076.3757 -55.59918 C 2076.394 -59.82301 2079.7233 -63.13216 2084.3125 -63.5625" stroke="black" stroke-linecap="round" stroke-linejoin="round" stroke-width=".5"/>
        <text transform="translate(2081.25 -58.5)" fill="black">
          <tspan font-family="Chalkboard SE" font-size="16" fill="black" x="0" y="18" xml:space="preserve">candidates: 2, 3, 6, 7</tspan>
          <tspan font-family="Chalkboard SE" font-size="16" fill="black" x="0" y="41.21216" xml:space="preserve">target: 7</tspan>
        </text>
      </g>
    </g>
  </g>
</svg>
