<?xml version="1.0" encoding="UTF-8" standalone="no"?>
<!DOCTYPE svg PUBLIC "-//W3C//DTD SVG 1.1//EN" "http://www.w3.org/Graphics/SVG/1.1/DTD/svg11.dtd">
<svg xmlns="http://www.w3.org/2000/svg" xmlns:dc="http://purl.org/dc/elements/1.1/" xmlns:xl="http://www.w3.org/1999/xlink" version="1.1" viewBox="45.746024 -82.15985 1528.2603 601.319" width="1528.2603" height="601.319">
  <defs>
    <marker orient="auto" overflow="visible" markerUnits="strokeWidth" id="StickArrow_Marker" stroke-linejoin="miter" stroke-miterlimit="10" viewBox="-1 -4 10 8" markerWidth="10" markerHeight="8" color="black">
      <g>
        <path d="M 8 0 L 0 0 M 0 -3 L 8 0 L 0 3" fill="none" stroke="currentColor" stroke-width="1"/>
      </g>
    </marker>
  </defs>
  <metadata> Produced by OmniGraffle 7.22.6\n2024-05-23 10:47:33 +0000</metadata>
  <g id="40__Combination_Sum_II" stroke-opacity="1" fill-opacity="1" stroke-dasharray="none" fill="none" stroke="none">
    <title>40. Combination Sum II</title>
    <rect fill="white" x="45.746024" y="-82.15985" width="1528.2603" height="601.319"/>
    <g id="40__Combination_Sum_II_Layer_1">
      <title>Layer 1</title>
      <g id="Graphic_56">
        <path d="M 964 68.5 L 1069.5 68.5 C 1073.9183 68.5 1077.5 72.08172 1077.5 76.5 L 1077.5 98.5 C 1077.5 102.91828 1073.9183 106.5 1069.5 106.5 L 964 106.5 C 959.5817 106.5 956 102.91828 956 98.5 L 956 76.5 C 956 72.08172 959.5817 68.5 964 68.5 Z" fill="white"/>
        <path d="M 963.8533 68.5001 L 1069.8431 68.42658 C 1073.8617 68.22603 1077.9092 72.1092 1077.5 76.5 M 1077.5004 76.41229 L 1077.4081 98.70588 C 1077.2927 102.88374 1074.1917 106.32438 1069.5 106.5 M 1069.6339 106.49992 L 963.8243 106.56588 C 959.2911 106.30395 956.3086 102.51378 956 98.5 M 956.0007 98.65201 L 955.8977 76.3892 C 955.6685 72.14479 959.6774 68.68046 964 68.5 M 963.8845 68.43949 L 1069.6402 68.36799 C 1073.9242 68.16353 1077.9717 72.0467 1077.5625 76.4375 M 1077.5404 76.38108 L 1077.4674 98.50693 C 1077.3552 102.82124 1074.2542 106.26188 1069.5625 106.4375 M 1069.6652 106.48795 L 964.0975 106.54416 C 959.3536 106.24145 956.3711 102.45128 956.0625 98.4375 M 956.0115 98.62085 L 955.9057 76.55036 C 955.731 72.08229 959.7399 68.61796 964.0625 68.4375" stroke="black" stroke-linecap="round" stroke-linejoin="round" stroke-width=".5"/>
        <text transform="translate(961 75.89392)" fill="black">
          <tspan font-family="Chalkboard SE" font-size="16" fill="black" x="47.82072" y="18" xml:space="preserve">[ ]</tspan>
        </text>
      </g>
      <g id="Graphic_55">
        <path d="M 663.5 207.5 L 769 207.5 C 773.4183 207.5 777 211.08172 777 215.5 L 777 237.5 C 777 241.91828 773.4183 245.5 769 245.5 L 663.5 245.5 C 659.0817 245.5 655.5 241.91828 655.5 237.5 L 655.5 215.5 C 655.5 211.08172 659.0817 207.5 663.5 207.5 Z" fill="white"/>
        <path d="M 663.3042 207.5 L 769.12765 207.5006 C 773.8157 207.55477 776.6346 211.44395 777 215.5 M 777.0006 215.2998 L 776.9323 237.54662 C 777.0211 242.20197 773.6114 245.2736 769 245.5 M 769.2349 245.4999 L 663.351 245.54056 C 658.773 245.8117 655.70485 241.8328 655.5 237.5 M 655.5002 237.61957 L 655.4555 215.19642 C 655.1047 211.48898 659.2527 207.24574 663.5 207.5 M 663.3355 207.45393 L 768.9225 207.4486 C 773.8782 207.49227 776.6971 211.38145 777.0625 215.4375 M 777.0468 215.2686 L 776.97935 237.45196 C 777.0836 242.13947 773.6739 245.2111 769.0625 245.4375 M 769.2662 245.48223 L 663.5559 245.53826 C 658.8355 245.7492 655.76735 241.7703 655.5625 237.4375 M 655.5074 237.58837 L 655.4612 215.35213 C 655.1672 211.42648 659.3152 207.18324 663.5625 207.4375" stroke="black" stroke-linecap="round" stroke-linejoin="round" stroke-width=".5"/>
        <text transform="translate(660.5 214.89392)" fill="black">
          <tspan font-family="Chalkboard SE" font-size="16" fill="black" x="40.20967" y="18" xml:space="preserve">[ 1 ]</tspan>
        </text>
      </g>
      <g id="Graphic_54">
        <path d="M 230 328 L 335.5 328 C 339.91828 328 343.5 331.58172 343.5 336 L 343.5 358 C 343.5 362.41828 339.91828 366 335.5 366 L 230 366 C 225.58172 366 222 362.41828 222 358 L 222 336 C 222 331.58172 225.58172 328 230 328 Z" fill="white"/>
        <path d="M 229.75517 327.99983 L 335.66216 328.0746 C 339.8675 328.39454 343.24368 331.39504 343.5 336 M 343.50025 335.8748 L 343.45592 358.07486 C 343.75523 362.13 340.031 365.7228 335.5 366 M 335.6484 366 L 229.8777 366.01527 C 225.25535 365.92964 222.10112 362.65184 222 358 M 221.99995 358.08713 L 222.01327 335.75364 C 222.39124 331.4743 225.82804 328.19468 230 328 M 229.78642 327.9683 L 335.4548 328.0292 C 339.93 328.33204 343.30618 331.33254 343.5625 335.9375 M 343.55254 335.8436 L 343.4913 357.897 C 343.81773 362.0675 340.0935 365.6603 335.5625 365.9375 M 335.67965 365.9766 L 230.01436 366.0011 C 225.31785 365.86714 222.16362 362.58934 222.0625 357.9375 M 222.00347 358.05587 L 222.0167 335.9039 C 222.45374 331.4118 225.89054 328.13218 230.0625 327.9375" stroke="black" stroke-linecap="round" stroke-linejoin="round" stroke-width=".5"/>
        <text transform="translate(227 335.39392)" fill="black">
          <tspan font-family="Chalkboard SE" font-size="16" fill="black" x="30.55663" y="18" xml:space="preserve">[ 1, 2 ]</tspan>
        </text>
      </g>
      <g id="Graphic_53">
        <path d="M 94 432 L 199.5 432 C 203.91828 432 207.5 435.5817 207.5 440 L 207.5 462 C 207.5 466.4183 203.91828 470 199.5 470 L 94 470 C 89.58172 470 86 466.4183 86 462 L 86 440 C 86 435.5817 89.58172 432 94 432 Z" fill="#c0ffc0"/>
        <path d="M 93.89363 432.0001 L 199.69668 431.89807 C 204.31835 431.8368 207.35273 435.7298 207.5 440 M 207.50022 439.7623 L 207.47972 462.3531 C 207.1088 466.4511 203.9506 469.67203 199.5 470 M 199.7494 470 L 93.71691 469.99 C 89.23806 470.42673 85.99739 466.0872 86 462 M 85.99922 462.2422 L 86.071 439.81086 C 86.3156 435.8284 89.90337 431.75996 94 432 M 93.92486 431.9519 L 199.48708 431.8598 C 204.38085 431.7743 207.41523 435.6673 207.5625 439.9375 M 207.55863 439.7311 L 207.53447 462.0921 C 207.1713 466.3886 204.0131 469.60953 199.5625 469.9375 M 199.78064 469.97093 L 93.9728 469.96395 C 89.30056 470.36423 86.05989 466.0247 86.0625 461.9375 M 86.03039 462.21094 L 86.0722 439.95565 C 86.3781 435.7659 89.96587 431.69746 94.0625 431.9375" stroke="black" stroke-linecap="round" stroke-linejoin="round" stroke-width=".5"/>
        <text transform="translate(91 439.3939)" fill="black">
          <tspan font-family="Chalkboard SE" font-size="16" fill="black" x="20.90359" y="18" xml:space="preserve">[ 1, 2, 2 ]</tspan>
        </text>
      </g>
      <g id="Graphic_44">
        <path d="M 230 432 L 335.5 432 C 339.91828 432 343.5 435.5817 343.5 440 L 343.5 462 C 343.5 466.4183 339.91828 470 335.5 470 L 230 470 C 225.58172 470 222 466.4183 222 462 L 222 440 C 222 435.5817 225.58172 432 230 432 Z" fill="#ffffc0"/>
        <path d="M 229.82725 431.9999 L 335.5698 432.063 C 339.90907 432.1965 343.4505 435.2079 343.5 440 M 343.50032 439.87487 L 343.4427 462.10727 C 343.39837 466.6643 340.11084 470.09864 335.5 470 M 335.72087 470 L 229.89477 470.0129 C 225.93666 469.653 221.94748 466.30755 222 462 M 221.99946 462.13776 L 222.08641 439.82585 C 221.59557 435.5026 225.69769 432.26577 230 432 M 229.8585 431.9576 L 335.5278 432.0227 C 339.97157 432.134 343.513 435.1454 343.5625 439.9375 M 343.5514 439.84367 L 343.48564 461.848 C 343.46087 466.6018 340.17334 470.03614 335.5625 469.9375 M 335.7521 469.982 L 230.09878 470.0046 C 225.99916 469.5905 222.00998 466.24505 222.0625 461.9375 M 222.02937 462.1065 L 222.10302 439.92216 C 221.65807 435.4401 225.7602 432.20327 230.0625 431.9375" stroke="#a5a5a5" stroke-linecap="round" stroke-linejoin="round" stroke-width=".5"/>
        <text transform="translate(227 439.3939)" fill="#a5a5a5">
          <tspan font-family="Chalkboard SE" font-size="16" fill="#a5a5a5" x="20.90359" y="18" xml:space="preserve">[ 1, 2, 2 ]</tspan>
        </text>
      </g>
      <g id="Graphic_43">
        <path d="M 366 432 L 471.5 432 C 475.9183 432 479.5 435.5817 479.5 440 L 479.5 462 C 479.5 466.4183 475.9183 470 471.5 470 L 366 470 C 361.58172 470 358 466.4183 358 462 L 358 440 C 358 435.5817 361.58172 432 366 432 Z" fill="#ffc0c0"/>
        <path d="M 365.7782 432.00024 L 471.6043 431.88674 C 476.35227 431.64915 479.55956 435.54264 479.5 440 M 479.50036 439.7624 L 479.46683 462.198 C 479.629 466.097 476.03046 470.04786 471.5 470 M 471.63436 470 L 365.92147 469.98764 C 361.9126 470.16227 357.84375 466.6266 358 462 M 358.0005 462.1053 L 357.8926 439.88307 C 358.395 435.85855 361.773 431.83105 366 432 M 365.80943 431.94124 L 471.5601 431.8533 C 476.41477 431.58665 479.62206 435.48014 479.5625 439.9375 M 479.55754 439.73116 L 479.5288 462.0431 C 479.6915 466.0345 476.09296 469.98536 471.5625 469.9375 M 471.6656 469.97636 L 366.0572 469.96744 C 361.9751 470.09977 357.90625 466.5641 358.0625 461.9375 M 358.0268 462.0741 L 357.90853 439.9741 C 358.4575 435.79605 361.8355 431.76855 366.0625 431.9375" stroke="black" stroke-linecap="round" stroke-linejoin="round" stroke-width=".5"/>
        <text transform="translate(363 439.3939)" fill="black">
          <tspan font-family="Chalkboard SE" font-size="16" fill="black" x="20.90359" y="18" xml:space="preserve">[ 1, 2, 5 ]</tspan>
        </text>
      </g>
      <g id="Line_41">
        <path d="M 258.32334 365.67693 L 179.58073 426.3194 M 258.52132 365.6467 L 180.00787 426.0628" marker-end="url(#StickArrow_Marker)" stroke="black" stroke-linecap="round" stroke-linejoin="round" stroke-width="1"/>
      </g>
      <g id="Line_40">
        <path d="M 282.75638 365.2744 L 282.25003 422.86206 M 282.9428 365.14992 L 282.43098 422.409" marker-end="url(#StickArrow_Marker)" stroke="black" stroke-linecap="round" stroke-linejoin="round" stroke-width="1"/>
      </g>
      <g id="Line_39">
        <path d="M 306.86395 365.44 L 385.93983 425.92016 M 306.9909 365.31243 L 385.81266 425.56947" marker-end="url(#StickArrow_Marker)" stroke="black" stroke-linecap="round" stroke-linejoin="round" stroke-width="1"/>
      </g>
      <g id="Graphic_37">
        <path d="M 366 328 L 471.5 328 C 475.9183 328 479.5 331.58172 479.5 336 L 479.5 358 C 479.5 362.41828 475.9183 366 471.5 366 L 366 366 C 361.58172 366 358 362.41828 358 358 L 358 336 C 358 331.58172 361.58172 328 366 328 Z" fill="#ffffc0"/>
        <path d="M 365.85896 327.9999 L 471.5614 328.08 C 475.49305 327.8848 479.3302 331.7838 479.5 336 M 479.4992 335.8374 L 479.6105 358.24245 C 479.24404 362.22836 475.5482 365.74316 471.5 366 M 471.67784 365.99985 L 365.9567 366.0863 C 361.7881 365.64297 358.105 362.77347 358 358 M 358.00006 358.0982 L 357.9868 335.9764 C 357.90965 331.34184 361.34135 327.8737 366 328 M 365.8902 327.9657 L 471.5039 328.0244 C 475.55555 327.8223 479.3927 331.7213 479.5625 335.9375 M 479.53064 335.80616 L 479.66294 357.96353 C 479.30654 362.16586 475.6107 365.68066 471.5625 365.9375 M 471.7091 365.9732 L 366.05787 366.05704 C 361.8506 365.58047 358.1675 362.71097 358.0625 357.9375 M 358.0047 358.06697 L 357.9916 336.03504 C 357.97215 331.27934 361.40385 327.8112 366.0625 327.9375" stroke="#a5a5a5" stroke-linecap="round" stroke-linejoin="round" stroke-width=".5"/>
        <text transform="translate(363 335.39392)" fill="#a5a5a5">
          <tspan font-family="Chalkboard SE" font-size="16" fill="#a5a5a5" x="30.55663" y="18" xml:space="preserve">[ 1, 2 ]</tspan>
        </text>
      </g>
      <g id="Graphic_29">
        <path d="M 638 328 L 743.5 328 C 747.9183 328 751.5 331.58172 751.5 336 L 751.5 358 C 751.5 362.41828 747.9183 366 743.5 366 L 638 366 C 633.5817 366 630 362.41828 630 358 L 630 336 C 630 331.58172 633.5817 328 638 328 Z" fill="#ffc0c0"/>
        <path d="M 637.8416 328.0001 L 743.5875 327.92068 C 747.52655 327.9087 751.3189 331.81083 751.5 336 M 751.4997 335.87496 L 751.5493 358.2184 C 751.3201 362.1207 747.7888 366.22056 743.5 366 M 743.7358 366.00026 L 637.8579 365.88425 C 633.6212 366.13354 630.1588 362.67477 630 358 M 630.0005 358.2137 L 629.94446 335.74666 C 630.1494 331.5455 633.944 327.93057 638 328 M 637.8729 327.9573 L 743.5123 327.88798 C 747.58905 327.8462 751.3814 331.74833 751.5625 335.9375 M 751.5489 335.84367 L 751.6022 358.02436 C 751.3826 362.0582 747.8513 366.15806 743.5625 365.9375 M 743.76705 365.99046 L 637.9754 365.8536 C 633.6837 366.07104 630.2213 362.61227 630.0625 357.9375 M 630.0075 358.1825 L 629.9669 335.9497 C 630.2119 331.483 634.0065 327.86807 638.0625 327.9375" stroke="black" stroke-linecap="round" stroke-linejoin="round" stroke-width=".5"/>
        <text transform="translate(635 335.39392)" fill="black">
          <tspan font-family="Chalkboard SE" font-size="16" fill="black" x="30.55663" y="18" xml:space="preserve">[ 1, 5 ]</tspan>
        </text>
      </g>
      <g id="Line_28">
        <path d="M 658.32715 242.60083 L 350.64483 328.1205 M 658.48245 242.58483 L 351.2167 327.97936" marker-end="url(#StickArrow_Marker)" stroke="black" stroke-linecap="round" stroke-linejoin="round" stroke-width="1"/>
      </g>
      <g id="Line_27">
        <path d="M 669.59676 245.39607 L 474.60605 324.72445 M 669.74246 245.32196 L 475.17114 324.50366" marker-end="url(#StickArrow_Marker)" stroke="black" stroke-linecap="round" stroke-linejoin="round" stroke-width="1"/>
      </g>
      <g id="Line_25">
        <path d="M 712.364 244.8456 L 697.1682 318.63114 M 712.5513 244.73342 L 697.4089 318.05882" marker-end="url(#StickArrow_Marker)" stroke="black" stroke-linecap="round" stroke-linejoin="round" stroke-width="1"/>
      </g>
      <g id="Graphic_24">
        <path d="M 869 207.5 L 974.5 207.5 C 978.9183 207.5 982.5 211.08172 982.5 215.5 L 982.5 237.5 C 982.5 241.91828 978.9183 245.5 974.5 245.5 L 869 245.5 C 864.5817 245.5 861 241.91828 861 237.5 L 861 215.5 C 861 211.08172 864.5817 207.5 869 207.5 Z" fill="white"/>
        <path d="M 868.7839 207.49992 L 974.5101 207.54006 C 978.9922 207.30882 982.8642 211.21726 982.5 215.5 M 982.5005 215.375 L 982.4167 237.73458 C 982.584 242.31757 979.2706 245.46665 974.5 245.5 M 974.6783 245.5 L 868.8664 245.50817 C 864.5186 245.49963 860.6402 242.00263 861 237.5 M 861.0002 237.73902 L 860.9812 215.28277 C 860.7478 211.05994 864.437 207.90795 869 207.5 M 868.8152 207.46733 L 974.4238 207.47849 C 979.0547 207.24632 982.9267 211.15476 982.5625 215.4375 M 982.549 215.3438 L 982.4743 237.49998 C 982.6466 242.25507 979.333 245.40415 974.5625 245.4375 M 974.7096 245.4929 L 869.0176 245.48033 C 864.5811 245.43713 860.7027 241.94013 861.0625 237.4375 M 861.0204 237.70778 L 860.9944 215.45883 C 860.8103 210.99744 864.4995 207.84545 869.0625 207.4375" stroke="black" stroke-linecap="round" stroke-linejoin="round" stroke-width=".5"/>
        <text transform="translate(866 214.89392)" fill="black">
          <tspan font-family="Chalkboard SE" font-size="16" fill="black" x="40.20967" y="18" xml:space="preserve">[ 2 ]</tspan>
        </text>
      </g>
      <g id="Graphic_23">
        <path d="M 797 328 L 902.5 328 C 906.9183 328 910.5 331.58172 910.5 336 L 910.5 358 C 910.5 362.41828 906.9183 366 902.5 366 L 797 366 C 792.5817 366 789 362.41828 789 358 L 789 336 C 789 331.58172 792.5817 328 797 328 Z" fill="white"/>
        <path d="M 796.9224 327.9999 L 902.5446 328.114 C 906.5464 328.15024 910.0896 331.16835 910.5 336 M 910.5006 335.7625 L 910.4409 358.07532 C 910.8164 362.2532 907.1902 365.91586 902.5 366 M 902.5918 366 L 796.7056 365.9829 C 792.4989 365.6238 789.4201 362.82166 789 358 M 788.9996 358.2066 L 789.03905 335.84 C 788.6635 331.91944 792.5123 327.97323 797 328 M 796.9537 327.95062 L 902.4561 328.0591 C 906.6089 328.08774 910.1521 331.10585 910.5625 335.9375 M 910.5554 335.7313 L 910.4863 357.945 C 910.879 362.1907 907.2527 365.85336 902.5625 365.9375 M 902.623 365.98723 L 796.976 365.97443 C 792.5614 365.5613 789.4826 362.75916 789.0625 357.9375 M 789.0162 358.1753 L 789.0499 336.0106 C 788.726 331.85694 792.5748 327.91073 797.0625 327.9375" stroke="black" stroke-linecap="round" stroke-linejoin="round" stroke-width=".5"/>
        <text transform="translate(794 335.39392)" fill="black">
          <tspan font-family="Chalkboard SE" font-size="16" fill="black" x="30.55663" y="18" xml:space="preserve">[ 2, 2 ]</tspan>
        </text>
      </g>
      <g id="Graphic_22">
        <path d="M 731 432 L 836.5 432 C 840.9183 432 844.5 435.5817 844.5 440 L 844.5 462 C 844.5 466.4183 840.9183 470 836.5 470 L 731 470 C 726.5817 470 723 466.4183 723 462 L 723 440 C 723 435.5817 726.5817 432 731 432 Z" fill="#ffc0c0"/>
        <path d="M 730.8733 432.0001 L 836.5791 431.93765 C 840.9994 431.5944 844.1986 435.5031 844.5 440 M 844.5003 439.8375 L 844.4646 462.10356 C 844.1551 466.5742 841.1098 469.8651 836.5 470 M 836.6928 470.0001 L 730.7323 469.9576 C 726.47945 470.11947 723.3164 466.25704 723 462 M 722.9992 462.17414 L 723.0968 439.8972 C 722.5772 435.38483 726.58765 432.42216 731 432 M 730.9046 431.96533 L 836.4884 431.8897 C 841.0619 431.5319 844.2611 435.4406 844.5625 439.9375 M 844.5611 439.8063 L 844.4982 461.8901 C 844.2176 466.5117 841.1723 469.8026 836.5625 469.9375 M 836.724 469.9816 L 730.9345 469.9373 C 726.54195 470.05697 723.3789 466.19454 723.0625 461.9375 M 723.0122 462.1428 L 723.10545 440.0624 C 722.6397 435.32233 726.65015 432.35966 731.0625 431.9375" stroke="black" stroke-linecap="round" stroke-linejoin="round" stroke-width=".5"/>
        <text transform="translate(728 439.3939)" fill="black">
          <tspan font-family="Chalkboard SE" font-size="16" fill="black" x="20.90359" y="18" xml:space="preserve">[ 2, 2, 2 ]</tspan>
        </text>
      </g>
      <g id="Line_19">
        <path d="M 837.8773 365.70863 L 801.0526 423.7127 M 838.0778 365.63156 L 801.5473 423.21283" marker-end="url(#StickArrow_Marker)" stroke="black" stroke-linecap="round" stroke-linejoin="round" stroke-width="1"/>
      </g>
      <g id="Line_14">
        <path d="M 910.6931 245.00578 L 865.7557 320.09527 M 910.8597 244.90567 L 866.2545 319.54262" marker-end="url(#StickArrow_Marker)" stroke="black" stroke-linecap="round" stroke-linejoin="round" stroke-width="1"/>
      </g>
      <g id="Graphic_10">
        <path d="M 1420 207.5 L 1525.5 207.5 C 1529.9183 207.5 1533.5 211.08172 1533.5 215.5 L 1533.5 237.5 C 1533.5 241.91828 1529.9183 245.5 1525.5 245.5 L 1420 245.5 C 1415.5817 245.5 1412 241.91828 1412 237.5 L 1412 215.5 C 1412 211.08172 1415.5817 207.5 1420 207.5 Z" fill="#c0ffc0"/>
        <path d="M 1419.8473 207.4999 L 1525.7433 207.57406 C 1530.0447 207.5739 1533.6236 211.48545 1533.5 215.5 M 1533.5 215.3001 L 1533.4994 237.75495 C 1533.272 242.34457 1530.0289 245.63935 1525.5 245.5 M 1525.5923 245.50008 L 1419.8028 245.40476 C 1415.237 245.47407 1411.9553 242.0508 1412 237.5 M 1411.9998 237.6599 L 1412.0335 215.33386 C 1412.3835 210.7497 1415.608 207.12382 1420 207.5 M 1419.8786 207.45222 L 1525.626 207.51316 C 1530.1072 207.5114 1533.686 211.42295 1533.5625 215.4375 M 1533.5406 215.26884 L 1533.5477 237.48122 C 1533.3344 242.28207 1530.0914 245.57685 1525.5625 245.4375 M 1525.6235 245.4756 L 1419.9358 245.39772 C 1415.2995 245.41157 1412.0178 241.9883 1412.0625 237.4375 M 1412.0006 237.6286 L 1412.0528 215.43441 C 1412.446 210.6872 1415.6705 207.06132 1420.0625 207.4375" stroke="black" stroke-linecap="round" stroke-linejoin="round" stroke-width=".5"/>
        <text transform="translate(1417 214.89392)" fill="black">
          <tspan font-family="Chalkboard SE" font-size="16" fill="black" x="40.20967" y="18" xml:space="preserve">[ 5 ]</tspan>
        </text>
      </g>
      <g id="Line_5">
        <path d="M 1004.2398 105.80576 L 939.9857 199.62637 M 1004.3853 105.69475 L 940.5609 199.03557" marker-end="url(#StickArrow_Marker)" stroke="black" stroke-linecap="round" stroke-linejoin="round" stroke-width="1"/>
      </g>
      <g id="Line_3">
        <path d="M 1073.7007 104.85958 L 1406.7778 206.66792 M 1073.8354 104.70266 L 1406.291 206.2992" marker-end="url(#StickArrow_Marker)" stroke="black" stroke-linecap="round" stroke-linejoin="round" stroke-width="1"/>
      </g>
      <g id="Line_2">
        <path d="M 976.2918 106.21491 L 766.1193 203.28176 M 976.4588 106.18086 L 766.8597 202.90253" marker-end="url(#StickArrow_Marker)" stroke="black" stroke-linecap="round" stroke-linejoin="round" stroke-width="1"/>
      </g>
      <g id="Graphic_57">
        <path d="M 931.5 -41.5 L 1102 -41.5 C 1106.4183 -41.5 1110 -37.91828 1110 -33.5 L 1110 6.924316 C 1110 11.342594 1106.4183 14.924316 1102 14.924316 L 931.5 14.924316 C 927.0817 14.924316 923.5 11.342594 923.5 6.924316 L 923.5 -33.5 C 923.5 -37.91828 927.0817 -41.5 931.5 -41.5 Z" fill="#c0ffff"/>
        <path d="M 931.4023 -41.50006 L 1102.3086 -41.39697 C 1106.7915 -41.2361 1110.3002 -38.22555 1110 -33.5 M 1110.0005 -33.662717 L 1109.8848 7.101954 C 1109.57 10.997645 1106.7721 14.799475 1102 14.924316 M 1102.2204 14.924199 L 931.4851 15.015349 C 926.8095 15.116372 923.9123 11.502717 923.5 6.924316 M 923.4996 7.108761 L 923.5918 -33.668024 C 923.2534 -38.214773 927.102 -41.76848 931.5 -41.5 M 931.4336 -41.54397 L 1102.1079 -41.43136 C 1106.854 -41.2986 1110.3627 -38.28805 1110.0625 -33.5625 M 1110.0344 -33.69396 L 1109.9242 6.986062 C 1109.6325 10.935145 1106.8346 14.736975 1102.0625 14.861816 M 1102.2517 14.917935 L 931.639 15.005623 C 926.872 15.053872 923.9748 11.440217 923.5625 6.861816 M 923.5139 7.077473 L 923.6002 -33.50163 C 923.3159 -38.277273 927.1645 -41.83098 931.5625 -41.5625" stroke="black" stroke-linecap="round" stroke-linejoin="round" stroke-width=".5"/>
        <text transform="translate(928.5 -36.5)" fill="black">
          <tspan font-family="Chalkboard SE" font-size="16" fill="black" x="0" y="18" xml:space="preserve">candidates: 1, 2, 2, 2, 5</tspan>
          <tspan font-family="Chalkboard SE" font-size="16" fill="black" x="0" y="41.21216" xml:space="preserve">target: 5</tspan>
        </text>
      </g>
      <g id="Graphic_59">
        <path d="M 502 328 L 607.5 328 C 611.9183 328 615.5 331.58172 615.5 336 L 615.5 358 C 615.5 362.41828 611.9183 366 607.5 366 L 502 366 C 497.5817 366 494 362.41828 494 358 L 494 336 C 494 331.58172 497.5817 328 502 328 Z" fill="#ffffc0"/>
        <path d="M 501.8129 328.00008 L 607.7396 327.9551 C 612.2889 327.60092 615.5821 331.4886 615.5 336 M 615.4995 335.87477 L 615.5881 358.05866 C 615.4842 362.31375 611.5492 365.97672 607.5 366 M 607.7059 366.0002 L 501.8692 365.89137 C 497.36025 366.0641 493.7361 362.824 494 358 M 494.00026 358.2493 L 493.9766 335.71753 C 493.9177 331.46025 497.4514 327.7173 502 328 M 501.8441 327.95832 L 607.5433 327.90744 C 612.3514 327.53842 615.6446 331.4261 615.5625 335.9375 M 615.5524 335.84343 L 615.6191 357.92153 C 615.5467 362.25125 611.6117 365.91422 607.5625 365.9375 M 607.73716 365.9741 L 501.97214 365.87436 C 497.42275 366.0016 493.7986 362.7615 494.0625 357.9375 M 494.02184 358.2181 L 493.98915 335.8948 C 493.9802 331.39775 497.5139 327.6548 502.0625 327.9375" stroke="#a5a5a5" stroke-linecap="round" stroke-linejoin="round" stroke-width=".5"/>
        <text transform="translate(499 335.39392)" fill="#a5a5a5">
          <tspan font-family="Chalkboard SE" font-size="16" fill="#a5a5a5" x="30.55663" y="18" xml:space="preserve">[ 1, 2 ]</tspan>
        </text>
      </g>
      <g id="Line_60">
        <path d="M 691.2291 245.1712 L 587.3442 322.1416 M 691.4137 245.1267 L 588.2488 321.5547" marker-end="url(#StickArrow_Marker)" stroke="black" stroke-linecap="round" stroke-linejoin="round" stroke-width="1"/>
      </g>
      <g id="Graphic_64">
        <path d="M 935.5 328 L 1041 328 C 1045.4183 328 1049 331.58172 1049 336 L 1049 358 C 1049 362.41828 1045.4183 366 1041 366 L 935.5 366 C 931.0817 366 927.5 362.41828 927.5 358 L 927.5 336 C 927.5 331.58172 931.0817 328 935.5 328 Z" fill="#ffffc0"/>
        <path d="M 935.3706 327.9999 L 1041.317 328.0861 C 1045.3297 327.70245 1049.4205 331.5822 1049 336 M 1049.0002 335.87474 L 1048.969 358.04245 C 1048.7161 362.49554 1045.4511 366.23064 1041 366 M 1041.0759 366 L 935.1731 366.01766 C 930.9633 366.1959 927.7548 362.1125 927.5 358 M 927.5006 358.224 L 927.4398 335.68143 C 927.8132 331.44624 931.4584 328.1236 935.5 328 M 935.4019 327.9479 L 1041.1318 328.0357 C 1045.3922 327.63995 1049.483 331.5197 1049.0625 335.9375 M 1049.0537 335.8435 L 1049.0282 357.9461 C 1048.7786 362.43304 1045.5136 366.16814 1041.0625 365.9375 M 1041.1072 365.97117 L 935.43 365.9976 C 931.0258 366.1334 927.8173 362.05 927.5625 357.9375 M 927.509 358.1928 L 927.4616 335.88564 C 927.8757 331.38374 931.5209 328.0611 935.5625 327.9375" stroke="#a5a5a5" stroke-linecap="round" stroke-linejoin="round" stroke-width=".5"/>
        <text transform="translate(932.5 335.39392)" fill="#a5a5a5">
          <tspan font-family="Chalkboard SE" font-size="16" fill="#a5a5a5" x="30.55663" y="18" xml:space="preserve">[ 2, 2 ]</tspan>
        </text>
      </g>
      <g id="Line_67">
        <path d="M 931.9088 244.90457 L 973.3994 320.5256 M 932.0404 244.77594 L 973.1487 319.6494" marker-end="url(#StickArrow_Marker)" stroke="black" stroke-linecap="round" stroke-linejoin="round" stroke-width="1"/>
      </g>
      <g id="Graphic_68">
        <path d="M 1059.5 207.5 L 1165 207.5 C 1169.4183 207.5 1173 211.08172 1173 215.5 L 1173 237.5 C 1173 241.91828 1169.4183 245.5 1165 245.5 L 1059.5 245.5 C 1055.0817 245.5 1051.5 241.91828 1051.5 237.5 L 1051.5 215.5 C 1051.5 211.08172 1055.0817 207.5 1059.5 207.5 Z" fill="#ffffc0"/>
        <path d="M 1059.3792 207.49995 L 1165.179 207.5406 C 1169.3107 207.62646 1172.9843 211.5105 1173 215.5 M 1172.9987 215.26222 L 1173.1249 237.5545 C 1172.6769 241.60533 1169.7727 245.93377 1165 245.5 M 1165.2344 245.49974 L 1059.4413 245.6187 C 1055.0425 245.45483 1051.286 242.10366 1051.5 237.5 M 1051.5003 237.66625 L 1051.4612 215.39005 C 1051.26 211.28364 1055.157 207.59515 1059.5 207.5 M 1059.4105 207.45227 L 1165.0026 207.49453 C 1169.3732 207.56396 1173.0468 211.448 1173.0625 215.4375 M 1173.0589 215.2308 L 1173.168 237.4156 C 1172.7394 241.54283 1169.8352 245.87127 1165.0625 245.4375 M 1165.2657 245.49375 L 1059.5962 245.61497 C 1055.105 245.39233 1051.3485 242.04116 1051.5625 237.4375 M 1051.5231 237.63502 L 1051.4896 215.4283 C 1051.3225 211.22114 1055.2196 207.53265 1059.5625 207.4375" stroke="#a5a5a5" stroke-linecap="round" stroke-linejoin="round" stroke-width=".5"/>
        <text transform="translate(1056.5 214.89392)" fill="#a5a5a5">
          <tspan font-family="Chalkboard SE" font-size="16" fill="#a5a5a5" x="40.20967" y="18" xml:space="preserve">[ 2 ]</tspan>
        </text>
      </g>
      <g id="Line_73">
        <path d="M 1029.6605 106.29263 L 1094.2766 199.67175 M 1029.8732 106.10693 L 1094.011 198.86106" marker-end="url(#StickArrow_Marker)" stroke="black" stroke-linecap="round" stroke-linejoin="round" stroke-width="1"/>
      </g>
      <g id="Graphic_81">
        <path d="M 329.57956 462 L 342.9862 462 C 347.72455 462 351.56575 465.8412 351.56575 470.57956 L 351.56575 470.57956 C 351.56575 475.3179 347.72455 479.1591 342.9862 479.1591 L 329.57956 479.1591 C 324.8412 479.1591 321 475.3179 321 470.57956 L 321 470.57956 C 321 465.8412 324.8412 462 329.57956 462 Z" fill="blue"/>
        <clipPath id="clip_path">
          <path d="M 8.579559 0 L 21.986187 0 C 26.724546 0 30.565746 3.8411996 30.565746 8.579559 L 30.565746 8.579559 C 30.565746 13.317919 26.724546 17.159119 21.986187 17.159119 L 8.579559 17.159119 C 3.8411996 17.159119 0 13.317919 0 8.579559 L 0 8.579559 C 0 3.8411996 3.8411996 0 8.579559 0 Z" fill="blue"/>
        </clipPath>
        <text clip-path="url(#clip_path)" transform="translate(326 460.79886)" fill="white">
          <tspan font-family="Chalkboard SE" font-size="12" fill="white" x="51691984e-20" y="14" xml:space="preserve">skip</tspan>
        </text>
      </g>
      <g id="Graphic_82">
        <path d="M 464.57956 357.5 L 477.9862 357.5 C 482.72455 357.5 486.56575 361.3412 486.56575 366.07956 L 486.56575 366.07956 C 486.56575 370.8179 482.72455 374.6591 477.9862 374.6591 L 464.57956 374.6591 C 459.8412 374.6591 456 370.8179 456 366.07956 L 456 366.07956 C 456 361.3412 459.8412 357.5 464.57956 357.5 Z" fill="blue"/>
        <clipPath id="clip_path_2">
          <path d="M 8.579559 0 L 21.986187 0 C 26.724546 0 30.565746 3.8411996 30.565746 8.579559 L 30.565746 8.579559 C 30.565746 13.317919 26.724546 17.159119 21.986187 17.159119 L 8.579559 17.159119 C 3.8411996 17.159119 0 13.317919 0 8.579559 L 0 8.579559 C 0 3.8411996 3.8411996 0 8.579559 0 Z" fill="blue"/>
        </clipPath>
        <text clip-path="url(#clip_path_2)" transform="translate(461 356.29886)" fill="white">
          <tspan font-family="Chalkboard SE" font-size="12" fill="white" x="51691984e-20" y="14" xml:space="preserve">skip</tspan>
        </text>
      </g>
      <g id="Graphic_83">
        <path d="M 599.57956 357.5 L 612.9862 357.5 C 617.72455 357.5 621.56575 361.3412 621.56575 366.07956 L 621.56575 366.07956 C 621.56575 370.8179 617.72455 374.6591 612.9862 374.6591 L 599.57956 374.6591 C 594.8412 374.6591 591 370.8179 591 366.07956 L 591 366.07956 C 591 361.3412 594.8412 357.5 599.57956 357.5 Z" fill="blue"/>
        <clipPath id="clip_path_3">
          <path d="M 8.579559 0 L 21.986187 0 C 26.724546 0 30.565746 3.8411996 30.565746 8.579559 L 30.565746 8.579559 C 30.565746 13.317919 26.724546 17.159119 21.986187 17.159119 L 8.579559 17.159119 C 3.8411996 17.159119 0 13.317919 0 8.579559 L 0 8.579559 C 0 3.8411996 3.8411996 0 8.579559 0 Z" fill="blue"/>
        </clipPath>
        <text clip-path="url(#clip_path_3)" transform="translate(596 356.29886)" fill="white">
          <tspan font-family="Chalkboard SE" font-size="12" fill="white" x="51691984e-20" y="14" xml:space="preserve">skip</tspan>
        </text>
      </g>
      <g id="Graphic_84">
        <path d="M 1034.5796 357 L 1047.9862 357 C 1052.7245 357 1056.5657 360.8412 1056.5657 365.57956 L 1056.5657 365.57956 C 1056.5657 370.3179 1052.7245 374.1591 1047.9862 374.1591 L 1034.5796 374.1591 C 1029.8412 374.1591 1026 370.3179 1026 365.57956 L 1026 365.57956 C 1026 360.8412 1029.8412 357 1034.5796 357 Z" fill="blue"/>
        <clipPath id="clip_path_4">
          <path d="M 8.579559 0 L 21.986187 0 C 26.724546 0 30.565746 3.8411996 30.565746 8.579559 L 30.565746 8.579559 C 30.565746 13.317919 26.724546 17.159119 21.986187 17.159119 L 8.579559 17.159119 C 3.8411996 17.159119 0 13.317919 0 8.579559 L 0 8.579559 C 0 3.8411996 3.8411996 0 8.579559 0 Z" fill="blue"/>
        </clipPath>
        <text clip-path="url(#clip_path_4)" transform="translate(1031 355.79886)" fill="white">
          <tspan font-family="Chalkboard SE" font-size="12" fill="white" x="51691984e-20" y="14" xml:space="preserve">skip</tspan>
        </text>
      </g>
      <g id="Graphic_85">
        <path d="M 1158.5138 237 L 1171.9204 237 C 1176.6588 237 1180.5 240.8412 1180.5 245.57956 L 1180.5 245.57956 C 1180.5 250.31792 1176.6588 254.15912 1171.9204 254.15912 L 1158.5138 254.15912 C 1153.7755 254.15912 1149.9343 250.31792 1149.9343 245.57956 L 1149.9343 245.57956 C 1149.9343 240.8412 1153.7755 237 1158.5138 237 Z" fill="blue"/>
        <clipPath id="clip_path_5">
          <path d="M 8.579559 0 L 21.986187 0 C 26.724546 0 30.565746 3.8411996 30.565746 8.579559 L 30.565746 8.579559 C 30.565746 13.317919 26.724546 17.159119 21.986187 17.159119 L 8.579559 17.159119 C 3.8411996 17.159119 0 13.317919 0 8.579559 L 0 8.579559 C 0 3.8411996 3.8411996 0 8.579559 0 Z" fill="blue"/>
        </clipPath>
        <text clip-path="url(#clip_path_5)" transform="translate(1154.9343 235.79886)" fill="white">
          <tspan font-family="Chalkboard SE" font-size="12" fill="white" x="51691984e-20" y="14" xml:space="preserve">skip</tspan>
        </text>
      </g>
      <g id="Graphic_86">
        <path d="M 869 432 L 974.5 432 C 978.9183 432 982.5 435.5817 982.5 440 L 982.5 462 C 982.5 466.4183 978.9183 470 974.5 470 L 869 470 C 864.5817 470 861 466.4183 861 462 L 861 440 C 861 435.5817 864.5817 432 869 432 Z" fill="#ffc0c0"/>
        <path d="M 868.8245 432.00006 L 974.5577 431.9611 C 978.7337 432.30087 982.2887 435.287 982.5 440 M 982.5002 439.9121 L 982.4473 462.04615 C 982.4568 466.5838 978.9522 469.58054 974.5 470 M 974.604 469.99993 L 868.8356 470.073 C 864.9195 469.7328 860.8859 466.163 861 462 M 861.0006 462.1876 L 860.9298 439.86007 C 861.3264 435.5563 864.1848 431.9672 869 432 M 868.8557 431.9405 L 974.4212 431.9187 C 978.7962 432.23837 982.3512 435.2245 982.5625 439.9375 M 982.544 439.8809 L 982.4844 461.90396 C 982.5193 466.5213 979.0147 469.51804 974.5625 469.9375 M 974.6352 469.97166 L 869.0942 470.06493 C 864.982 469.6703 860.9484 466.1005 861.0625 461.9375 M 861.0259 462.1564 L 860.9592 439.99536 C 861.3889 435.4938 864.2473 431.9047 869.0625 431.9375" stroke="black" stroke-linecap="round" stroke-linejoin="round" stroke-width=".5"/>
        <text transform="translate(866 439.3939)" fill="black">
          <tspan font-family="Chalkboard SE" font-size="16" fill="black" x="20.90359" y="18" xml:space="preserve">[ 2, 2, 5 ]</tspan>
        </text>
      </g>
      <g id="Line_87">
        <path d="M 862.6123 365.5866 L 903.7732 423.95065 M 862.7752 365.4349 L 903.5753 423.24315" marker-end="url(#StickArrow_Marker)" stroke="black" stroke-linecap="round" stroke-linejoin="round" stroke-width="1"/>
      </g>
      <g id="Graphic_88">
        <path d="M 1074 328 L 1179.5 328 C 1183.9183 328 1187.5 331.58172 1187.5 336 L 1187.5 358 C 1187.5 362.41828 1183.9183 366 1179.5 366 L 1074 366 C 1069.5817 366 1066 362.41828 1066 358 L 1066 336 C 1066 331.58172 1069.5817 328 1074 328 Z" fill="#ffc0c0"/>
        <path d="M 1073.9226 327.99995 L 1179.7387 328.06356 C 1183.7332 327.63128 1187.0706 331.50114 1187.5 336 M 1187.5011 335.7621 L 1187.3995 358.17717 C 1187.8772 362.82613 1184.113 365.6821 1179.5 366 M 1179.5895 365.9999 L 1073.7197 366.1235 C 1069.9473 365.62303 1066.0933 362.4086 1066 358 M 1065.9998 358.065 L 1066.0663 335.74563 C 1065.6088 331.72486 1069.9178 327.95297 1074 328 M 1073.9538 327.94257 L 1179.6066 328.0075 C 1183.7957 327.56878 1187.1331 331.43864 1187.5625 335.9375 M 1187.5326 335.73084 L 1187.4605 358.0139 C 1187.9397 362.76363 1184.1754 365.6196 1179.5625 365.9375 M 1179.6208 365.98304 L 1073.9274 366.108 C 1070.0098 365.56053 1066.1558 362.3461 1066.0625 357.9375 M 1066.0011 358.03366 L 1066.0669 335.8916 C 1065.6713 331.66236 1069.9803 327.89047 1074.0625 327.9375" stroke="black" stroke-linecap="round" stroke-linejoin="round" stroke-width=".5"/>
        <text transform="translate(1071 335.39392)" fill="black">
          <tspan font-family="Chalkboard SE" font-size="16" fill="black" x="30.55663" y="18" xml:space="preserve">[ 2, 5 ]</tspan>
        </text>
      </g>
      <g id="Line_89">
        <path d="M 953.3289 245.06301 L 1086.6196 323.26778 M 953.473 244.90548 L 1086.1893 322.81594" marker-end="url(#StickArrow_Marker)" stroke="black" stroke-linecap="round" stroke-linejoin="round" stroke-width="1"/>
      </g>
      <g id="Graphic_90">
        <path d="M 1239.75 207.5 L 1345.25 207.5 C 1349.6683 207.5 1353.25 211.08172 1353.25 215.5 L 1353.25 237.5 C 1353.25 241.91828 1349.6683 245.5 1345.25 245.5 L 1239.75 245.5 C 1235.3317 245.5 1231.75 241.91828 1231.75 237.5 L 1231.75 215.5 C 1231.75 211.08172 1235.3317 207.5 1239.75 207.5 Z" fill="#ffffc0"/>
        <path d="M 1239.5832 207.50013 L 1345.4196 207.41563 C 1349.4724 207.3403 1353.4862 211.2153 1353.25 215.5 M 1353.249 215.29957 L 1353.3534 237.5582 C 1353.169 241.69054 1350.0237 245.28367 1345.25 245.5 M 1345.325 245.50005 L 1239.6038 245.42368 C 1235.7454 245.87355 1232.0508 242.15418 1231.75 237.5 M 1231.7503 237.62987 L 1231.7008 215.38119 C 1231.5093 211.40328 1235.5171 207.43875 1239.75 207.5 M 1239.6144 207.4449 L 1345.292 207.37755 C 1349.5349 207.2778 1353.5487 211.1528 1353.3125 215.4375 M 1353.2995 215.26823 L 1353.4054 237.37346 C 1353.2315 241.62804 1350.0862 245.22117 1345.3125 245.4375 M 1345.3562 245.4946 L 1239.7605 245.40104 C 1235.8079 245.81105 1232.1133 242.09168 1231.8125 237.4375 M 1231.7588 237.59867 L 1231.7059 215.5381 C 1231.5718 211.34078 1235.5796 207.37625 1239.8125 207.4375" stroke="#a5a5a5" stroke-linecap="round" stroke-linejoin="round" stroke-width=".5"/>
        <text transform="translate(1236.75 214.89392)" fill="#a5a5a5">
          <tspan font-family="Chalkboard SE" font-size="16" fill="#a5a5a5" x="40.20967" y="18" xml:space="preserve">[ 2 ]</tspan>
        </text>
      </g>
      <g id="Graphic_91">
        <path d="M 1338.7638 237 L 1352.1704 237 C 1356.9088 237 1360.75 240.8412 1360.75 245.57956 L 1360.75 245.57956 C 1360.75 250.31792 1356.9088 254.15912 1352.1704 254.15912 L 1338.7638 254.15912 C 1334.0255 254.15912 1330.1843 250.31792 1330.1843 245.57956 L 1330.1843 245.57956 C 1330.1843 240.8412 1334.0255 237 1338.7638 237 Z" fill="blue"/>
        <clipPath id="clip_path_6">
          <path d="M 8.579559 0 L 21.986187 0 C 26.724546 0 30.565746 3.8411996 30.565746 8.579559 L 30.565746 8.579559 C 30.565746 13.317919 26.724546 17.159119 21.986187 17.159119 L 8.579559 17.159119 C 3.8411996 17.159119 0 13.317919 0 8.579559 L 0 8.579559 C 0 3.8411996 3.8411996 0 8.579559 0 Z" fill="blue"/>
        </clipPath>
        <text clip-path="url(#clip_path_6)" transform="translate(1335.1843 235.79886)" fill="white">
          <tspan font-family="Chalkboard SE" font-size="12" fill="white" x="51691984e-20" y="14" xml:space="preserve">skip</tspan>
        </text>
      </g>
      <g id="Line_92">
        <path d="M 1054.197 106.37602 L 1246.3033 203.39449 M 1054.3613 106.1731 L 1245.9137 202.91792" marker-end="url(#StickArrow_Marker)" stroke="black" stroke-linecap="round" stroke-linejoin="round" stroke-width="1"/>
      </g>
    </g>
  </g>
</svg>
