<?xml version="1.0" encoding="UTF-8" standalone="no"?>
<!DOCTYPE svg PUBLIC "-//W3C//DTD SVG 1.1//EN" "http://www.w3.org/Graphics/SVG/1.1/DTD/svg11.dtd">
<svg xmlns:dc="http://purl.org/dc/elements/1.1/" xmlns="http://www.w3.org/2000/svg" xmlns:xl="http://www.w3.org/1999/xlink" version="1.1" viewBox="174.9506 370.88544 639.402 624.6655" width="639.402" height="624.6655">
  <defs>
    <marker orient="auto" overflow="visible" markerUnits="strokeWidth" id="StickArrow_Marker" stroke-linejoin="miter" stroke-miterlimit="10" viewBox="-1 -4 10 8" markerWidth="10" markerHeight="8" color="black">
      <g>
        <path d="M 8 0 L 0 0 M 0 -3 L 8 0 L 0 3" fill="none" stroke="currentColor" stroke-width="1"/>
      </g>
    </marker>
  </defs>
  <metadata> Produced by OmniGraffle 7.22.6\n2024-05-29 01:44:17 +0000</metadata>
  <g id="148__Sort_List" stroke-dasharray="none" fill-opacity="1" fill="none" stroke-opacity="1" stroke="none">
    <title>148. Sort List</title>
    <rect fill="white" x="174.9506" y="370.88544" width="639.402" height="624.6655"/>
    <g id="148__Sort_List_Layer_1">
      <title>Layer 1</title>
      <g id="Graphic_3">
        <path d="M 455.5 411.5 L 629.6724 411.5 C 634.09065 411.5 637.6724 415.0817 637.6724 419.5 L 637.6724 436.71216 C 637.6724 441.13044 634.09065 444.71216 629.6724 444.71216 L 455.5 444.71216 C 451.0817 444.71216 447.5 441.13044 447.5 436.71216 L 447.5 419.5 C 447.5 415.0817 451.0817 411.5 455.5 411.5 Z" fill="white"/>
        <path d="M 455.37905 411.49994 L 629.9073 411.591 C 633.81095 411.26846 637.6756 415.1777 637.6724 419.5 M 637.67355 419.26264 L 637.5874 436.6648 C 637.2763 441.1288 634.52226 444.496 629.6724 444.71216 M 629.9091 444.7122 L 455.42723 444.69033 C 451.47854 444.6716 447.6128 440.84523 447.5 436.71216 M 447.50046 436.8325 L 447.43384 419.4844 C 447.3193 415.4814 450.7516 411.6154 455.5 411.5 M 455.4103 411.46034 L 629.77444 411.5461 C 633.87345 411.20596 637.7381 415.1152 637.7349 419.4375 M 637.7258 419.2315 L 637.64736 436.5592 C 637.3388 441.0663 634.58476 444.4335 629.7349 444.64966 M 629.94036 444.71027 L 455.6449 444.6623 C 451.54104 444.6091 447.6753 440.78273 447.5625 436.64966 M 447.5073 436.80134 L 447.44135 419.54733 C 447.3818 415.4189 450.8141 411.5529 455.5625 411.4375" stroke="black" stroke-linecap="round" stroke-linejoin="round" stroke-width=".5"/>
        <text transform="translate(452.5 416.5)" fill="black">
          <tspan font-family="Chalkboard SE" font-size="16" fill="black" x="0" y="18" xml:space="preserve">[ 8, 1, 5, 0, 2, 7, 6, 9, 3 ]</tspan>
        </text>
      </g>
      <g id="Graphic_8">
        <path d="M 348.16077 489 L 448.8392 489 C 453.2575 489 456.8392 492.5817 456.8392 497 L 456.8392 514.21216 C 456.8392 518.63044 453.2575 522.21216 448.8392 522.21216 L 348.16077 522.21216 C 343.7425 522.21216 340.16077 518.63044 340.16077 514.21216 L 340.16077 497 C 340.16077 492.5817 343.7425 489 348.16077 489 Z" fill="white"/>
        <path d="M 348.09754 489 L 448.90156 488.9716 C 453.3976 488.8576 457.1809 492.7713 456.8392 497 M 456.8386 496.7626 L 456.88667 514.3361 C 457.0758 518.81305 453.20735 522.24994 448.8392 522.21216 M 448.946 522.21205 L 348.07947 522.3167 C 343.34246 522.30975 339.9086 518.5174 340.16077 514.21216 M 340.16134 514.3072 L 340.05787 496.9483 C 340.38972 492.9659 343.9194 488.63803 348.16077 489 M 348.1288 488.9502 L 448.7798 488.92436 C 453.4601 488.7951 457.2434 492.7088 456.9017 496.9375 M 456.89144 496.7313 L 456.94203 514.0835 C 457.1383 518.75055 453.26985 522.18744 448.9017 522.14966 M 448.97726 522.2074 L 348.26345 522.2856 C 343.40496 522.24725 339.9711 518.4549 340.22327 514.14966 M 340.18624 514.27597 L 340.0746 497.0382 C 340.45222 492.9034 343.9819 488.57553 348.22327 488.9375" stroke="black" stroke-linecap="round" stroke-linejoin="round" stroke-width=".5"/>
        <text transform="translate(345.16077 494)" fill="black">
          <tspan font-family="Chalkboard SE" font-size="16" fill="black" x="881073e-18" y="18" xml:space="preserve">[ 8, 1, 5, 0, 2 ]</tspan>
        </text>
      </g>
      <g id="Graphic_9">
        <path d="M 623 489 L 702.2685 489 C 706.6868 489 710.2685 492.5817 710.2685 497 L 710.2685 514.21216 C 710.2685 518.63044 706.6868 522.21216 702.2685 522.21216 L 623 522.21216 C 618.5817 522.21216 615 518.63044 615 514.21216 L 615 497 C 615 492.5817 618.5817 489 623 489 Z" fill="white"/>
        <path d="M 622.7983 489.00026 L 702.2963 488.8976 C 706.3695 489.42133 710.5011 492.43654 710.2685 497 M 710.2683 496.8751 L 710.2918 514.30785 C 710.2699 518.49036 706.717 522.3007 702.2685 522.21216 M 702.4618 522.21245 L 622.892 522.09144 C 618.1991 521.79453 614.85154 518.19835 615 514.21216 M 614.9993 514.3396 L 615.0912 496.8911 C 615.3072 492.60356 618.6833 489.07275 623 489 M 622.82955 488.96713 L 702.1767 488.84376 C 706.432 489.35883 710.5636 492.37404 710.331 496.9375 M 710.3151 496.8438 L 710.3281 514.1385 C 710.3324 518.42786 706.7795 522.2382 702.331 522.14966 M 702.493 522.1823 L 623.1442 522.0727 C 618.2616 521.73203 614.91404 518.13585 615.0625 514.14966 M 615.02784 514.30835 L 615.1083 496.9862 C 615.3697 492.54106 618.7458 489.01025 623.0625 488.9375" stroke="black" stroke-linecap="round" stroke-linejoin="round" stroke-width=".5"/>
        <text transform="translate(620 494)" fill="black">
          <tspan font-family="Chalkboard SE" font-size="16" fill="black" x="0" y="18" xml:space="preserve">[ 7, 6, 9, 3 ]</tspan>
        </text>
      </g>
      <g id="Line_10">
        <path d="M 512.2488 444.4201 L 437.94933 484.8905 M 512.4052 444.3528 L 438.6528 484.585" marker-end="url(#StickArrow_Marker)" stroke="black" stroke-linecap="round" stroke-linejoin="round" stroke-width="1"/>
      </g>
      <g id="Line_11">
        <path d="M 567.9605 444.488 L 629.3361 483.94755 M 568.1525 444.2588 L 628.9795 483.48894" marker-end="url(#StickArrow_Marker)" stroke="black" stroke-linecap="round" stroke-linejoin="round" stroke-width="1"/>
      </g>
      <g id="Graphic_12">
        <path d="M 273 549.25 L 336.6928 549.25 C 341.1111 549.25 344.6928 552.8317 344.6928 557.25 L 344.6928 574.46216 C 344.6928 578.88044 341.1111 582.46216 336.6928 582.46216 L 273 582.46216 C 268.58172 582.46216 265 578.88044 265 574.46216 L 265 557.25 C 265 552.8317 268.58172 549.25 273 549.25 Z" fill="white"/>
        <path d="M 272.75793 549.2503 L 336.8671 549.1761 C 341.2313 549.5386 344.5983 552.56595 344.6928 557.25 M 344.69327 557.0876 L 344.6446 574.6606 C 344.8822 578.67884 341.38246 582.7031 336.6928 582.46216 M 336.7706 582.4622 L 272.74937 582.4173 C 268.27158 582.3136 265.16273 579.25856 265 574.46216 M 265.00107 574.6869 L 264.91804 557.2194 C 264.6554 552.66385 268.4573 548.8596 273 549.25 M 272.78916 549.20476 L 336.75417 549.1332 C 341.2938 549.4761 344.6608 552.50345 344.7553 557.1875 M 344.75288 557.0564 L 344.6854 574.5532 C 344.9447 578.61634 341.44496 582.6406 336.7553 582.39966 M 336.80182 582.44915 L 273.0189 582.4029 C 268.33408 582.2511 265.22523 579.19606 265.0625 574.39966 M 265.00917 574.6558 L 264.94178 557.3308 C 264.7179 552.60135 268.5198 548.7971 273.0625 549.1875" stroke="black" stroke-linecap="round" stroke-linejoin="round" stroke-width=".5"/>
        <text transform="translate(270 554.25)" fill="black">
          <tspan font-family="Chalkboard SE" font-size="16" fill="black" x="53290705e-20" y="18" xml:space="preserve">[ 8, 1, 5 ]</tspan>
        </text>
      </g>
      <g id="Graphic_13">
        <path d="M 443.8851 549.25 L 487.45856 549.25 C 491.87684 549.25 495.45856 552.8317 495.45856 557.25 L 495.45856 574.46216 C 495.45856 578.88044 491.87684 582.46216 487.45856 582.46216 L 443.8851 582.46216 C 439.4668 582.46216 435.8851 578.88044 435.8851 574.46216 L 435.8851 557.25 C 435.8851 552.8317 439.4668 549.25 443.8851 549.25 Z" fill="white"/>
        <path d="M 443.69205 549.24955 L 487.5983 549.3527 C 491.5517 549.2062 495.255 553.11486 495.45856 557.25 M 495.45956 557.0126 L 495.3861 574.5699 C 495.42265 579.2453 492.2286 582.75385 487.45856 582.46216 M 487.62283 582.4622 L 443.79525 582.4427 C 439.17453 582.6953 436.15155 578.9395 435.8851 574.46216 M 435.88463 574.53186 L 435.9975 557.1622 C 435.6261 553.2004 439.26705 549.2943 443.8851 549.25 M 443.72337 549.1895 L 487.4877 549.3026 C 491.6142 549.1437 495.3175 553.05236 495.52106 557.1875 M 495.51304 556.9814 L 495.4392 574.3582 C 495.48515 579.1828 492.2911 582.69135 487.52106 582.39966 M 487.6541 582.4549 L 443.94554 582.4401 C 439.23703 582.6328 436.21405 578.877 435.9476 574.39966 M 435.89634 574.5005 L 436.02136 557.2789 C 435.6886 553.1379 439.32955 549.2318 443.9476 549.1875" stroke="black" stroke-linecap="round" stroke-linejoin="round" stroke-width=".5"/>
        <text transform="translate(440.8851 554.25)" fill="black">
          <tspan font-family="Chalkboard SE" font-size="16" fill="black" x="4689582e-19" y="18" xml:space="preserve">[ 0, 2 ]</tspan>
        </text>
      </g>
      <g id="Graphic_14">
        <path d="M 247.5 609.5 L 291.88674 609.5 C 296.30502 609.5 299.88674 613.0817 299.88674 617.5 L 299.88674 634.71216 C 299.88674 639.1304 296.30502 642.71216 291.88674 642.71216 L 247.5 642.71216 C 243.08172 642.71216 239.5 639.1304 239.5 634.71216 L 239.5 617.5 C 239.5 613.0817 243.08172 609.5 247.5 609.5 Z" fill="white"/>
        <path d="M 247.356 609.4999 L 291.992 609.5286 C 296.41877 609.11894 299.5741 613.0301 299.88674 617.5 M 299.88743 617.3751 L 299.7908 634.79165 C 299.6202 639.1721 296.73715 643.0546 291.88674 642.71216 M 291.95 642.71215 L 247.38346 642.718 C 242.8077 642.4363 239.8702 638.8705 239.5 634.71216 M 239.49968 634.8143 L 239.55465 617.355 C 239.3248 613.08896 242.80664 609.0954 247.5 609.5 M 247.38727 609.45654 L 291.88352 609.472 C 296.48127 609.05644 299.6366 612.9676 299.94924 617.4375 M 299.9348 617.3439 L 299.8242 634.663 C 299.6827 639.1096 296.79965 642.9921 291.94924 642.64966 M 291.98127 642.7105 L 247.60203 642.696 C 242.8702 642.3738 239.9327 638.808 239.5625 634.64966 M 239.515 634.783 L 239.58077 617.4771 C 239.3873 613.02646 242.86914 609.0329 247.5625 609.4375" stroke="black" stroke-linecap="round" stroke-linejoin="round" stroke-width=".5"/>
        <text transform="translate(244.5 614.5)" fill="black">
          <tspan font-family="Chalkboard SE" font-size="16" fill="black" x="0" y="18" xml:space="preserve">[ 8, 1 ]</tspan>
        </text>
      </g>
      <g id="Graphic_15">
        <path d="M 359.04033 669.75 L 384.121 669.75 C 388.53927 669.75 392.121 673.3317 392.121 677.75 L 392.121 694.96216 C 392.121 699.3804 388.53927 702.9622 384.121 702.9622 L 359.04033 702.9622 C 354.62205 702.9622 351.04033 699.3804 351.04033 694.96216 L 351.04033 677.75 C 351.04033 673.3317 354.62205 669.75 359.04033 669.75 Z" fill="#c0ffc0"/>
        <path d="M 358.9454 669.7502 L 384.19173 669.70444 C 388.2012 669.9238 391.6993 672.9454 392.121 677.75 M 392.12238 677.5501 L 392.00047 695.2009 C 392.50603 699.10676 388.16812 703.3554 384.121 702.9622 M 384.27077 702.962 L 359.0846 702.9933 C 354.36665 703.074 350.6306 699.6851 351.04033 694.96216 M 351.04036 695.0967 L 351.0372 677.54775 C 350.94696 672.986 354.27164 669.7801 359.04033 669.75 M 358.9766 669.69226 L 384.08546 669.67265 C 388.2637 669.8613 391.7618 672.8829 392.1835 677.6875 M 392.1636 677.5189 L 392.0465 694.968 C 392.56853 699.04426 388.23062 703.2929 384.1835 702.8997 M 384.30203 702.9348 L 359.18394 702.9831 C 354.42915 703.0115 350.6931 699.6226 351.10283 694.89966 M 351.0593 695.0655 L 351.0656 677.6753 C 351.00946 672.9235 354.33414 669.7176 359.10283 669.6875" stroke="black" stroke-linecap="round" stroke-linejoin="round" stroke-width=".5"/>
        <text transform="translate(356.04033 674.75)" fill="black">
          <tspan font-family="Chalkboard SE" font-size="16" fill="black" x="29842795e-20" y="18" xml:space="preserve">[ 5 ]</tspan>
        </text>
      </g>
      <g id="Graphic_16">
        <path d="M 223.5 669.75 L 248.58066 669.75 C 252.99894 669.75 256.58066 673.3317 256.58066 677.75 L 256.58066 694.96216 C 256.58066 699.3804 252.99894 702.9622 248.58066 702.9622 L 223.5 702.9622 C 219.08172 702.9622 215.5 699.3804 215.5 694.96216 L 215.5 677.75 C 215.5 673.3317 219.08172 669.75 223.5 669.75 Z" fill="#c0ffc0"/>
        <path d="M 223.2666 669.7511 L 248.61688 669.6302 C 253.10606 669.5832 256.9336 673.4943 256.58066 677.75 M 256.58012 677.66255 L 256.68856 695.1727 C 256.73548 699.6648 252.70817 702.52254 248.58066 702.9622 M 248.81694 702.9616 L 223.26755 703.0187 C 218.85825 702.5767 215.194 699.3661 215.5 694.96216 M 215.50058 695.1292 L 215.43905 677.4905 C 215.48657 673.506 218.65598 669.3312 223.5 669.75 M 223.2978 669.7099 L 248.5128 669.59205 C 253.16856 669.5207 256.9961 673.4318 256.64316 677.6875 M 256.61523 677.6313 L 256.74424 695.02265 C 256.79798 699.6023 252.77067 702.46004 248.64316 702.8997 M 248.8482 702.94015 L 223.43514 702.989 C 218.92075 702.5142 215.2565 699.3036 215.5625 694.89966 M 215.52313 695.09796 L 215.46975 677.62345 C 215.54907 673.4435 218.71848 669.2687 223.5625 669.6875" stroke="black" stroke-linecap="round" stroke-linejoin="round" stroke-width=".5"/>
        <text transform="translate(220.5 674.75)" fill="black">
          <tspan font-family="Chalkboard SE" font-size="16" fill="black" x="29842795e-20" y="18" xml:space="preserve">[ 8 ]</tspan>
        </text>
      </g>
      <g id="Graphic_17">
        <path d="M 281 669.75 L 306.08066 669.75 C 310.49894 669.75 314.08066 673.3317 314.08066 677.75 L 314.08066 694.96216 C 314.08066 699.3804 310.49894 702.9622 306.08066 702.9622 L 281 702.9622 C 276.58172 702.9622 273 699.3804 273 694.96216 L 273 677.75 C 273 673.3317 276.58172 669.75 281 669.75 Z" fill="#c0ffc0"/>
        <path d="M 280.81564 669.7496 L 306.33237 669.8073 C 310.1669 670.1259 314.32454 673.1595 314.08066 677.75 M 314.07987 677.58754 L 314.1652 695.0819 C 314.00693 699.35275 310.28855 702.5733 306.08066 702.9622 M 306.21595 702.9617 L 280.74084 703.0443 C 276.37647 702.9489 272.79773 699.04705 273 694.96216 M 273.00137 695.1616 L 272.88118 677.6833 C 273.06843 673.1493 276.9643 669.7659 281 669.75 M 280.84694 669.6938 L 306.23056 669.76145 C 310.2294 670.0634 314.38704 673.097 314.14316 677.6875 M 314.1401 677.55615 L 314.20105 694.8277 C 314.06943 699.29025 310.35105 702.5108 306.14316 702.8997 M 306.24725 702.9459 L 280.97674 703.0262 C 276.43897 702.8864 272.86023 698.98455 273.0625 694.89966 M 273.02753 695.1304 L 272.883 677.8218 C 273.13093 673.0868 277.0268 669.7034 281.0625 669.6875" stroke="black" stroke-linecap="round" stroke-linejoin="round" stroke-width=".5"/>
        <text transform="translate(278 674.75)" fill="black">
          <tspan font-family="Chalkboard SE" font-size="16" fill="black" x="29842795e-20" y="18" xml:space="preserve">[ 1 ]</tspan>
        </text>
      </g>
      <g id="Line_18">
        <path d="M 260.67578 642.2362 L 250.23934 661.4997 M 260.82824 642.1261 L 250.6877 660.9545" marker-end="url(#StickArrow_Marker)" stroke="black" stroke-linecap="round" stroke-linejoin="round" stroke-width="1"/>
      </g>
      <g id="Line_19">
        <path d="M 276.1334 642.39355 L 283.73812 660.657 M 276.34094 642.2342 L 283.7679 660.0142" marker-end="url(#StickArrow_Marker)" stroke="black" stroke-linecap="round" stroke-linejoin="round" stroke-width="1"/>
      </g>
      <g id="Line_20">
        <path d="M 295.60168 581.6806 L 284.20832 601.7305 M 295.74634 581.56674 L 284.59462 601.17224" marker-end="url(#StickArrow_Marker)" stroke="black" stroke-linecap="round" stroke-linejoin="round" stroke-width="1"/>
      </g>
      <g id="Line_21">
        <path d="M 313.70296 581.8471 L 357.78584 661.5706 M 313.89867 581.683 L 357.7055 660.9913" marker-end="url(#StickArrow_Marker)" stroke="black" stroke-linecap="round" stroke-linejoin="round" stroke-width="1"/>
      </g>
      <g id="Line_22">
        <path d="M 416.63593 521.87476 L 439.98074 542.7156 M 416.77025 521.7393 L 439.7864 542.2155" marker-end="url(#StickArrow_Marker)" stroke="black" stroke-linecap="round" stroke-linejoin="round" stroke-width="1"/>
      </g>
      <g id="Line_23">
        <path d="M 372.9474 522.0428 L 338.28276 544.61065 M 373.1118 521.97826 L 338.8607 544.3031" marker-end="url(#StickArrow_Marker)" stroke="black" stroke-linecap="round" stroke-linejoin="round" stroke-width="1"/>
      </g>
      <g id="Graphic_24">
        <path d="M 486.6149 609.5 L 511.6956 609.5 C 516.11386 609.5 519.6956 613.0817 519.6956 617.5 L 519.6956 634.71216 C 519.6956 639.1304 516.11386 642.71216 511.6956 642.71216 L 486.6149 642.71216 C 482.19664 642.71216 478.6149 639.1304 478.6149 634.71216 L 478.6149 617.5 C 478.6149 613.0817 482.19664 609.5 486.6149 609.5 Z" fill="#c0ffc0"/>
        <path d="M 486.39884 609.49965 L 511.7057 609.5402 C 516.1878 609.3088 520.05977 613.21726 519.6956 617.5 M 519.6962 617.375 L 519.6121 634.94674 C 519.77963 639.5297 516.4661 642.6788 511.6956 642.71216 M 511.8739 642.7121 L 486.4813 642.72036 C 482.13356 642.7118 478.2551 639.2148 478.6149 634.71216 M 478.6152 634.9512 L 478.5961 617.2828 C 478.3627 613.05994 482.0519 609.90795 486.6149 609.5 M 486.4301 609.46706 L 511.6194 609.4785 C 516.2503 609.2463 520.12227 613.15476 519.7581 617.4375 M 519.74477 617.3438 L 519.6699 634.7122 C 519.84213 639.4672 516.5286 642.6163 511.7581 642.64966 M 511.90514 642.705 L 486.6325 642.6925 C 482.19606 642.6493 478.3176 639.1523 478.6774 634.64966 M 478.63536 634.9199 L 478.60935 617.4588 C 478.4252 612.99744 482.1144 609.84545 486.6774 609.4375" stroke="black" stroke-linecap="round" stroke-linejoin="round" stroke-width=".5"/>
        <text transform="translate(483.6149 614.5)" fill="black">
          <tspan font-family="Chalkboard SE" font-size="16" fill="black" x="29842795e-20" y="18" xml:space="preserve">[ 2 ]</tspan>
        </text>
      </g>
      <g id="Graphic_25">
        <path d="M 429.8851 609.5 L 454.96575 609.5 C 459.384 609.5 462.96575 613.0817 462.96575 617.5 L 462.96575 634.71216 C 462.96575 639.1304 459.384 642.71216 454.96575 642.71216 L 429.8851 642.71216 C 425.4668 642.71216 421.8851 639.1304 421.8851 634.71216 L 421.8851 617.5 C 421.8851 613.0817 425.4668 609.5 429.8851 609.5 Z" fill="#c0ffc0"/>
        <path d="M 429.71805 609.5002 L 455.19133 609.466 C 459.0196 609.8537 463.2209 612.8825 462.96575 617.5 M 462.967 617.3 L 462.8588 634.9185 C 462.8231 639.21345 459.8167 642.7296 454.96575 642.71216 M 455.04305 642.71206 L 429.72477 642.7458 C 425.4239 643.0948 421.629 638.89575 421.8851 634.71216 M 421.88545 634.7961 L 421.8083 617.22555 C 421.71524 612.70875 425.24674 609.459 429.8851 609.5 M 429.7493 609.4531 L 455.1072 609.4291 C 459.0821 609.7912 463.2834 612.82 463.02825 617.4375 M 463.00944 617.2688 L 462.8969 634.767 C 462.8856 639.15095 459.8792 642.6671 455.02825 642.64966 M 455.07434 642.7107 L 429.94427 642.7296 C 425.4864 643.0323 421.6915 638.83325 421.9476 634.64966 M 421.90925 634.7649 L 421.824 617.40705 C 421.77774 612.64625 425.30924 609.3965 429.9476 609.4375" stroke="black" stroke-linecap="round" stroke-linejoin="round" stroke-width=".5"/>
        <text transform="translate(426.8851 614.5)" fill="black">
          <tspan font-family="Chalkboard SE" font-size="16" fill="black" x="29842795e-20" y="18" xml:space="preserve">[ 0 ]</tspan>
        </text>
      </g>
      <g id="Line_26">
        <path d="M 474.66176 582.055 L 485.6581 600.8062 M 474.8918 581.86844 L 485.5974 600.2654" marker-end="url(#StickArrow_Marker)" stroke="black" stroke-linecap="round" stroke-linejoin="round" stroke-width="1"/>
      </g>
      <g id="Line_27">
        <path d="M 459.36034 582.2035 L 452.4248 600.9537 M 459.53687 582.09755 L 452.7761 600.43925" marker-end="url(#StickArrow_Marker)" stroke="black" stroke-linecap="round" stroke-linejoin="round" stroke-width="1"/>
      </g>
      <g id="Graphic_28">
        <path d="M 579.9735 549.25 L 622.0265 549.25 C 626.4448 549.25 630.0265 552.8317 630.0265 557.25 L 630.0265 574.46216 C 630.0265 578.88044 626.4448 582.46216 622.0265 582.46216 L 579.9735 582.46216 C 575.5552 582.46216 571.9735 578.88044 571.9735 574.46216 L 571.9735 557.25 C 571.9735 552.8317 575.5552 549.25 579.9735 549.25 Z" fill="white"/>
        <path d="M 579.7661 549.25 L 622.14856 549.2446 C 626.5005 549.4927 629.9545 552.5119 630.0265 557.25 M 630.0255 557.0125 L 630.1002 574.7088 C 630.07444 578.8965 626.2349 582.6319 622.0265 582.46216 M 622.1758 582.4618 L 579.67055 582.5718 C 575.5741 582.2221 572.0286 578.5723 571.9735 574.46216 M 571.97346 574.6434 L 571.9758 557.0539 C 572.0435 553.1541 575.9928 549.6295 579.9735 549.25 M 579.7973 549.1905 L 622.0711 549.1873 C 626.563 549.4302 630.017 552.4494 630.089 557.1875 M 630.08085 556.9811 L 630.1406 574.4316 C 630.13694 578.834 626.2974 582.5694 622.089 582.39966 M 622.2071 582.4463 L 579.9074 582.55984 C 575.6366 582.1596 572.0911 578.5098 572.036 574.39966 M 571.97684 574.6122 L 571.9959 557.2515 C 572.106 553.0916 576.0553 549.567 580.036 549.1875" stroke="black" stroke-linecap="round" stroke-linejoin="round" stroke-width=".5"/>
        <text transform="translate(576.9735 554.25)" fill="black">
          <tspan font-family="Chalkboard SE" font-size="16" fill="black" x="0" y="18" xml:space="preserve">[ 7, 6 ]</tspan>
        </text>
      </g>
      <g id="Graphic_29">
        <path d="M 698.8641 549.25 L 741.8541 549.25 C 746.2724 549.25 749.8541 552.8317 749.8541 557.25 L 749.8541 574.46216 C 749.8541 578.88044 746.2724 582.46216 741.8541 582.46216 L 698.8641 582.46216 C 694.4458 582.46216 690.8641 578.88044 690.8641 574.46216 L 690.8641 557.25 C 690.8641 552.8317 694.4458 549.25 698.8641 549.25 Z" fill="white"/>
        <path d="M 698.7057 549.2503 L 741.9417 549.17056 C 745.8807 549.1587 749.6731 553.0608 749.8541 557.25 M 749.8538 557.12496 L 749.90355 574.68054 C 749.6743 578.5829 746.1429 582.6827 741.8541 582.46216 M 742.09 582.4628 L 698.72195 582.3463 C 694.4853 582.5957 691.0229 579.1369 690.8641 574.46216 M 690.8648 574.67586 L 690.8084 556.99666 C 691.0135 552.7955 694.8081 549.1806 698.8641 549.25 M 698.73695 549.20746 L 741.8664 549.138 C 745.9432 549.0962 749.7356 552.9983 749.9166 557.1875 M 749.903 557.09366 L 749.9563 574.4865 C 749.7368 578.5204 746.2054 582.6202 741.9166 582.39966 M 742.12116 582.453 L 698.8395 582.31574 C 694.5478 582.5332 691.0854 579.0744 690.9266 574.39966 M 690.8718 574.6447 L 690.831 557.1997 C 691.076 552.733 694.8706 549.1181 698.9266 549.1875" stroke="black" stroke-linecap="round" stroke-linejoin="round" stroke-width=".5"/>
        <text transform="translate(695.8641 554.25)" fill="black">
          <tspan font-family="Chalkboard SE" font-size="16" fill="black" x="0" y="18" xml:space="preserve">[ 9, 3 ]</tspan>
        </text>
      </g>
      <g id="Graphic_30">
        <path d="M 564.5 609.5 L 589.58066 609.5 C 593.99894 609.5 597.58066 613.0817 597.58066 617.5 L 597.58066 634.71216 C 597.58066 639.1304 593.99894 642.71216 589.58066 642.71216 L 564.5 642.71216 C 560.0817 642.71216 556.5 639.1304 556.5 634.71216 L 556.5 617.5 C 556.5 613.0817 560.0817 609.5 564.5 609.5 Z" fill="#c0ffc0"/>
        <path d="M 564.3907 609.4996 L 589.6337 609.5973 C 594.0473 609.06975 597.29056 612.9761 597.58066 617.5 M 597.5804 617.29996 L 597.606 634.9023 C 597.1787 639.3887 593.94984 642.9835 589.58066 642.71216 M 589.7155 642.71264 L 564.33116 642.6212 C 560.1421 642.3454 556.76257 639.0679 556.5 634.71216 M 556.5016 634.9583 L 556.3862 617.18945 C 556.727 612.6952 560.36866 609.8653 564.5 609.5 M 564.422 609.4422 L 589.5607 609.5574 C 594.1098 609.00725 597.35306 612.9136 597.64316 617.4375 M 597.62345 617.2687 L 597.63965 634.7915 C 597.2412 639.3262 594.01234 642.921 589.64316 642.64966 M 589.74664 642.70855 L 564.5169 642.6029 C 560.2046 642.2829 556.82507 639.0054 556.5625 634.64966 M 556.5122 634.9272 L 556.4114 617.3979 C 556.7895 612.6327 560.43116 609.8028 564.5625 609.4375" stroke="black" stroke-linecap="round" stroke-linejoin="round" stroke-width=".5"/>
        <text transform="translate(561.5 614.5)" fill="black">
          <tspan font-family="Chalkboard SE" font-size="16" fill="black" x="29842795e-20" y="18" xml:space="preserve">[ 7 ]</tspan>
        </text>
      </g>
      <g id="Graphic_31">
        <path d="M 618.5 609.5 L 643.5807 609.5 C 647.99894 609.5 651.5807 613.0817 651.5807 617.5 L 651.5807 634.71216 C 651.5807 639.1304 647.99894 642.71216 643.5807 642.71216 L 618.5 642.71216 C 614.0817 642.71216 610.5 639.1304 610.5 634.71216 L 610.5 617.5 C 610.5 613.0817 614.0817 609.5 618.5 609.5 Z" fill="#c0ffc0"/>
        <path d="M 618.2522 609.4998 L 643.5992 609.52315 C 647.5933 609.6265 651.1815 612.6413 651.5807 617.5 M 651.58066 617.41245 L 651.5822 634.81156 C 651.8266 639.0769 648.0302 643.0343 643.5807 642.71216 M 643.802 642.7127 L 618.30445 642.6464 C 614.1635 642.7249 610.8663 638.7489 610.5 634.71216 M 610.4996 634.8032 L 610.5816 617.1322 C 610.8026 613.21256 614.2933 609.41636 618.5 609.5 M 618.2835 609.4591 L 643.52835 609.4768 C 647.6558 609.564 651.244 612.5788 651.6432 617.4375 M 651.6176 617.3812 L 651.6277 634.5964 C 651.8891 639.0144 648.0927 642.9718 643.6432 642.64966 M 643.8332 642.6831 L 618.55845 642.64004 C 614.226 642.6624 610.9288 638.6864 610.5625 634.64966 M 610.5138 634.7719 L 610.6059 617.346 C 610.8651 613.15006 614.3558 609.35386 618.5625 609.4375" stroke="black" stroke-linecap="round" stroke-linejoin="round" stroke-width=".5"/>
        <text transform="translate(615.5 614.5)" fill="black">
          <tspan font-family="Chalkboard SE" font-size="16" fill="black" x="29842795e-20" y="18" xml:space="preserve">[ 6 ]</tspan>
        </text>
      </g>
      <g id="Graphic_32">
        <path d="M 686 609.5 L 711.0807 609.5 C 715.4989 609.5 719.0807 613.0817 719.0807 617.5 L 719.0807 634.71216 C 719.0807 639.1304 715.4989 642.71216 711.0807 642.71216 L 686 642.71216 C 681.5817 642.71216 678 639.1304 678 634.71216 L 678 617.5 C 678 613.0817 681.5817 609.5 686 609.5 Z" fill="#c0ffc0"/>
        <path d="M 685.80126 609.5004 L 711.06465 609.449 C 715.5396 609.2843 719.4561 613.19024 719.0807 617.5 M 719.0809 617.33745 L 719.05835 634.7833 C 719.09195 638.75804 715.6106 643.0851 711.0807 642.71216 M 711.201 642.71235 L 685.96524 642.67205 C 681.6852 643.1116 677.5864 639.3135 678 634.71216 M 677.9998 634.8357 L 678.0233 617.5125 C 678.3985 612.8561 681.718 609.8511 686 609.5 M 685.83246 609.4452 L 710.996 609.3962 C 715.6021 609.2218 719.5186 613.12774 719.1432 617.4375 M 719.14295 617.3062 L 719.1158 634.6513 C 719.15445 638.69554 715.6731 643.0226 711.1432 642.64966 M 711.2322 642.6884 L 686.1001 642.64594 C 681.7477 643.0491 677.6489 639.251 678.0625 634.64966 M 678.01766 634.8044 L 678.0504 617.5442 C 678.461 612.7936 681.7805 609.7886 686.0625 609.4375" stroke="black" stroke-linecap="round" stroke-linejoin="round" stroke-width=".5"/>
        <text transform="translate(683 614.5)" fill="black">
          <tspan font-family="Chalkboard SE" font-size="16" fill="black" x="29842795e-20" y="18" xml:space="preserve">[ 9 ]</tspan>
        </text>
      </g>
      <g id="Graphic_33">
        <path d="M 740.6475 609.5 L 765.7282 609.5 C 770.1465 609.5 773.7282 613.0817 773.7282 617.5 L 773.7282 634.71216 C 773.7282 639.1304 770.1465 642.71216 765.7282 642.71216 L 740.6475 642.71216 C 736.2292 642.71216 732.6475 639.1304 732.6475 634.71216 L 732.6475 617.5 C 732.6475 613.0817 736.2292 609.5 740.6475 609.5 Z" fill="#c0ffc0"/>
        <path d="M 740.4978 609.50074 L 765.92765 609.37486 C 769.7494 609.8315 773.9946 612.8555 773.7282 617.5 M 773.7288 617.26244 L 773.6817 634.9426 C 773.5105 639.32566 770.3385 643.13585 765.7282 642.71216 M 765.935 642.7123 L 740.58605 642.69735 C 736.3548 642.5996 732.3376 638.99445 732.6475 634.71216 M 732.6478 634.8681 L 732.6133 617.4553 C 732.234 613.38884 736.2902 609.40214 740.6475 609.5 M 740.529 609.4622 L 765.8611 609.3156 C 769.8119 609.769 774.0571 612.793 773.7907 617.4375 M 773.7848 617.23126 L 773.7201 634.7062 C 773.573 639.26316 770.401 643.07335 765.7907 642.64966 M 765.96625 642.69406 L 740.7891 642.6831 C 736.4173 642.5371 732.4001 638.93195 732.71 634.64966 M 732.6693 634.8369 L 732.6424 617.49235 C 732.2965 613.32634 736.3527 609.33964 740.71 609.4375" stroke="black" stroke-linecap="round" stroke-linejoin="round" stroke-width=".5"/>
        <text transform="translate(737.6475 614.5)" fill="black">
          <tspan font-family="Chalkboard SE" font-size="16" fill="black" x="29842795e-20" y="18" xml:space="preserve">[ 3 ]</tspan>
        </text>
      </g>
      <g id="Line_34">
        <path d="M 729.2123 582.1099 L 739.8659 601.3466 M 729.4136 581.94265 L 739.82 600.8799" marker-end="url(#StickArrow_Marker)" stroke="black" stroke-linecap="round" stroke-linejoin="round" stroke-width="1"/>
      </g>
      <g id="Line_35">
        <path d="M 714.6658 581.56095 L 707.94895 600.45345 M 714.8101 581.4428 L 708.23945 599.9916" marker-end="url(#StickArrow_Marker)" stroke="black" stroke-linecap="round" stroke-linejoin="round" stroke-width="1"/>
      </g>
      <g id="Line_36">
        <path d="M 608.934 581.785 L 618.5284 600.57955 M 609.1291 581.6242 L 618.5503 600.0985" marker-end="url(#StickArrow_Marker)" stroke="black" stroke-linecap="round" stroke-linejoin="round" stroke-width="1"/>
      </g>
      <g id="Line_37">
        <path d="M 594.6043 581.9378 L 587.0619 600.9506 M 594.7403 581.81714 L 587.4081 600.53126" marker-end="url(#StickArrow_Marker)" stroke="black" stroke-linecap="round" stroke-linejoin="round" stroke-width="1"/>
      </g>
      <g id="Line_38">
        <path d="M 645.9111 521.9563 L 624.57946 542.5947 M 646.0848 521.8816 L 625.0396 542.3181" marker-end="url(#StickArrow_Marker)" stroke="black" stroke-linecap="round" stroke-linejoin="round" stroke-width="1"/>
      </g>
      <g id="Line_39">
        <path d="M 677.90856 521.5447 L 697.4649 542.0747 M 678.0359 521.4175 L 697.37605 541.6874" marker-end="url(#StickArrow_Marker)" stroke="black" stroke-linecap="round" stroke-linejoin="round" stroke-width="1"/>
      </g>
      <g id="Graphic_40">
        <path d="M 239.5 730 L 283.88674 730 C 288.30502 730 291.88674 733.5817 291.88674 738 L 291.88674 755.2122 C 291.88674 759.6304 288.30502 763.2122 283.88674 763.2122 L 239.5 763.2122 C 235.08172 763.2122 231.5 759.6304 231.5 755.2122 L 231.5 738 C 231.5 733.5817 235.08172 730 239.5 730 Z" fill="#c0ffc0"/>
        <path d="M 239.3186 729.99956 L 283.8446 730.1086 C 288.3123 729.7596 292.27345 733.6632 291.88674 738 M 291.8863 737.7999 L 291.9253 755.3074 C 291.82326 759.3669 288.17606 763.1077 283.88674 763.2122 M 284.1366 763.21265 L 239.3141 763.1239 C 235.34283 763.11755 231.9162 759.9122 231.5 755.2122 M 231.49927 755.4077 L 231.56542 737.8047 C 231.64964 733.1684 235.499 730.2942 239.5 730 M 239.34988 729.95295 L 283.79375 730.0639 C 288.3748 729.6971 292.33595 733.6007 291.94924 737.9375 M 291.9306 737.7686 L 291.98262 755.09045 C 291.88576 759.3044 288.23856 763.0452 283.94924 763.1497 M 284.1678 763.2031 L 239.43253 763.0994 C 235.40533 763.05505 231.9787 759.8497 231.5625 755.1497 M 231.51473 755.3764 L 231.57505 737.87945 C 231.71214 733.1059 235.5615 730.2317 239.5625 729.9375" stroke="black" stroke-linecap="round" stroke-linejoin="round" stroke-width=".5"/>
        <text transform="translate(236.5 735)" fill="black">
          <tspan font-family="Chalkboard SE" font-size="16" fill="black" x="0" y="18" xml:space="preserve">[ 1, 8 ]</tspan>
        </text>
      </g>
      <g id="Line_41">
        <path d="M 242.89627 702.4781 L 251.24787 721.3217 M 243.1306 702.3046 L 251.31652 720.87194" marker-end="url(#StickArrow_Marker)" stroke="black" stroke-linecap="round" stroke-linejoin="round" stroke-width="1"/>
      </g>
      <g id="Line_42">
        <path d="M 365.48155 702.64975 L 336.30184 781.1122 M 365.65603 702.54315 L 336.63553 780.7332" marker-end="url(#StickArrow_Marker)" stroke="black" stroke-linecap="round" stroke-linejoin="round" stroke-width="1"/>
      </g>
      <g id="Line_43">
        <path d="M 285.1815 702.1801 L 275.0702 721.061 M 285.40434 702.1075 L 275.34573 720.67406" marker-end="url(#StickArrow_Marker)" stroke="black" stroke-linecap="round" stroke-linejoin="round" stroke-width="1"/>
      </g>
      <g id="Graphic_44">
        <path d="M 295.04033 790.25 L 357.9199 790.25 C 362.33817 790.25 365.9199 793.8317 365.9199 798.25 L 365.9199 815.4622 C 365.9199 819.8804 362.33817 823.4622 357.9199 823.4622 L 295.04033 823.4622 C 290.62205 823.4622 287.04033 819.8804 287.04033 815.4622 L 287.04033 798.25 C 287.04033 793.8317 290.62205 790.25 295.04033 790.25 Z" fill="#c0ffc0"/>
        <path d="M 294.8676 790.2498 L 357.9897 790.313 C 362.32896 790.4465 365.8704 793.4579 365.9199 798.25 M 365.9203 798.1249 L 365.86244 815.5694 C 365.81826 820.1265 362.53073 823.5608 357.9199 823.4622 M 358.14076 823.4621 L 294.9351 823.4751 C 290.977 823.1152 286.9878 819.7697 287.04033 815.4622 M 287.03965 815.5999 L 287.1269 798.07585 C 286.6359 793.7526 290.73802 790.5158 295.04033 790.25 M 294.89885 790.2075 L 357.9477 790.2727 C 362.39146 790.384 365.9329 793.3954 365.9824 798.1875 M 365.97136 798.0937 L 365.90553 815.3102 C 365.88076 820.064 362.59323 823.4983 357.9824 823.3997 M 358.172 823.4442 L 295.1391 823.4668 C 291.0395 823.0527 287.0503 819.7072 287.10283 815.3997 M 287.06956 815.5687 L 287.14335 798.1721 C 286.6984 793.6901 290.80052 790.4533 295.10283 790.1875" stroke="black" stroke-linecap="round" stroke-linejoin="round" stroke-width=".5"/>
        <text transform="translate(292.04033 795.25)" fill="black">
          <tspan font-family="Chalkboard SE" font-size="16" fill="black" x="0" y="18" xml:space="preserve">[ 1, 5, 8 ]</tspan>
        </text>
      </g>
      <g id="Line_45">
        <path d="M 279.18826 762.8744 L 301.4387 783.6586 M 279.38314 762.6746 L 301.399 783.2935" marker-end="url(#StickArrow_Marker)" stroke="black" stroke-linecap="round" stroke-linejoin="round" stroke-width="1"/>
      </g>
      <g id="Graphic_46">
        <path d="M 448.8851 669.75 L 492.45856 669.75 C 496.87684 669.75 500.45856 673.3317 500.45856 677.75 L 500.45856 694.96216 C 500.45856 699.3804 496.87684 702.9622 492.45856 702.9622 L 448.8851 702.9622 C 444.4668 702.9622 440.8851 699.3804 440.8851 694.96216 L 440.8851 677.75 C 440.8851 673.3317 444.4668 669.75 448.8851 669.75 Z" fill="#c0ffc0"/>
        <path d="M 448.8104 669.75015 L 492.45934 669.6651 C 496.85923 670.16774 500.191 673.17205 500.45856 677.75 M 500.4591 677.66236 L 500.35294 695.2004 C 500.784 698.984 497.23016 703.1624 492.45856 702.9622 M 492.66494 702.9619 L 448.66394 703.0257 C 444.84894 703.3722 441.04 699.5153 440.8851 694.96216 M 440.8854 695.1648 L 440.8562 677.7114 C 440.632 673.42475 444.4321 670.00155 448.8851 669.75 M 448.84165 669.71 L 492.4217 669.6115 C 496.92173 670.10524 500.2535 673.10955 500.52106 677.6875 M 500.4979 677.63115 L 500.3891 694.91996 C 500.8465 698.9215 497.29266 703.0999 492.52106 702.8997 M 492.6962 702.9553 L 448.817 703.0098 C 444.91144 703.3097 441.1025 699.4528 440.9476 694.89966 M 440.8913 695.1336 L 440.8771 677.8186 C 440.6945 673.36225 444.4946 669.93905 448.9476 669.6875" stroke="black" stroke-linecap="round" stroke-linejoin="round" stroke-width=".5"/>
        <text transform="translate(445.8851 674.75)" fill="black">
          <tspan font-family="Chalkboard SE" font-size="16" fill="black" x="4689582e-19" y="18" xml:space="preserve">[ 0, 2 ]</tspan>
        </text>
      </g>
      <g id="Line_47">
        <path d="M 449.8688 641.9312 L 458.38957 661.396 M 450.0797 641.7686 L 458.5149 660.9799" marker-end="url(#StickArrow_Marker)" stroke="black" stroke-linecap="round" stroke-linejoin="round" stroke-width="1"/>
      </g>
      <g id="Line_48">
        <path d="M 491.57153 642.11255 L 483.11823 661.1054 M 491.72114 641.9985 L 483.3654 660.75276" marker-end="url(#StickArrow_Marker)" stroke="black" stroke-linecap="round" stroke-linejoin="round" stroke-width="1"/>
      </g>
      <g id="Graphic_49">
        <path d="M 348.16077 856 L 448.8392 856 C 453.2575 856 456.8392 859.5817 456.8392 864 L 456.8392 881.2122 C 456.8392 885.6304 453.2575 889.2122 448.8392 889.2122 L 348.16077 889.2122 C 343.7425 889.2122 340.16077 885.6304 340.16077 881.2122 L 340.16077 864 C 340.16077 859.5817 343.7425 856 348.16077 856 Z" fill="#c0ffc0"/>
        <path d="M 348.04574 856.0001 L 449.17396 855.9436 C 453.6619 856.2864 457.12815 859.3015 456.8392 864 M 456.8387 863.8748 L 456.9148 881.3032 C 456.4655 886.0594 452.9683 889.5647 448.8392 889.2122 M 448.9301 889.2123 L 348.047 889.1011 C 343.30905 889.0047 339.74324 885.6919 340.16077 881.2122 M 340.16045 881.3246 L 340.21076 863.7897 C 340.15505 859.4884 343.4818 855.7884 348.16077 856 M 348.07697 855.9475 L 448.9555 855.901 C 453.7244 856.2239 457.19065 859.239 456.9017 863.9375 M 456.89035 863.8435 L 456.9527 881.0846 C 456.528 885.9969 453.0308 889.5022 448.9017 889.1497 M 448.96135 889.1916 L 348.2173 889.09 C 343.37155 888.9422 339.80574 885.6294 340.22327 881.1497 M 340.17717 881.2933 L 340.23626 863.913 C 340.21755 859.4259 343.5443 855.7259 348.22327 855.9375" stroke="black" stroke-linecap="round" stroke-linejoin="round" stroke-width=".5"/>
        <text transform="translate(345.16077 861)" fill="black">
          <tspan font-family="Chalkboard SE" font-size="16" fill="black" x="881073e-18" y="18" xml:space="preserve">[ 0, 1, 2, 5, 8 ]</tspan>
        </text>
      </g>
      <g id="Line_50">
        <path d="M 464.33177 702.7158 L 408.3674 848.1722 M 464.47386 702.59735 L 408.916 847.1495" marker-end="url(#StickArrow_Marker)" stroke="black" stroke-linecap="round" stroke-linejoin="round" stroke-width="1"/>
      </g>
      <g id="Line_51">
        <path d="M 344.0669 822.9095 L 373.8039 850.1721 M 344.2436 822.7281 L 373.27333 849.3104" marker-end="url(#StickArrow_Marker)" stroke="black" stroke-linecap="round" stroke-linejoin="round" stroke-width="1"/>
      </g>
      <g id="Graphic_52">
        <path d="M 579.9735 669.75 L 624.3602 669.75 C 628.7785 669.75 632.3602 673.3317 632.3602 677.75 L 632.3602 694.96216 C 632.3602 699.3804 628.7785 702.9622 624.3602 702.9622 L 579.9735 702.9622 C 575.5552 702.9622 571.9735 699.3804 571.9735 694.96216 L 571.9735 677.75 C 571.9735 673.3317 575.5552 669.75 579.9735 669.75 Z" fill="#c0ffc0"/>
        <path d="M 579.8181 669.7501 L 624.5914 669.722 C 628.7366 669.9232 632.322 672.9309 632.3602 677.75 M 632.3602 677.5873 L 632.3639 695.156 C 632.19056 699.72615 628.73045 702.5834 624.3602 702.9622 M 624.5231 702.9623 L 579.7171 702.9268 C 575.1946 703.0129 571.86714 699.3684 571.9735 694.96216 M 571.975 695.1719 L 571.85 677.6181 C 572.2116 673.0492 575.9522 669.9589 579.9735 669.75 M 579.8493 669.7164 L 624.3796 669.6904 C 628.7991 669.8607 632.3845 672.8684 632.4227 677.6875 M 632.3935 677.5561 L 632.4066 694.99936 C 632.25306 699.66365 628.79295 702.5209 624.4227 702.8997 M 624.55434 702.9587 L 579.9047 702.9202 C 575.2571 702.9504 571.92964 699.3059 572.036 694.89966 M 572.0025 695.1407 L 571.88244 677.7576 C 572.2741 672.9867 576.0147 669.8964 580.036 669.6875" stroke="black" stroke-linecap="round" stroke-linejoin="round" stroke-width=".5"/>
        <text transform="translate(576.9735 674.75)" fill="black">
          <tspan font-family="Chalkboard SE" font-size="16" fill="black" x="0" y="18" xml:space="preserve">[ 6, 7 ]</tspan>
        </text>
      </g>
      <g id="Graphic_53">
        <path d="M 708.5 669.75 L 751.9497 669.75 C 756.368 669.75 759.9497 673.3317 759.9497 677.75 L 759.9497 694.96216 C 759.9497 699.3804 756.368 702.9622 751.9497 702.9622 L 708.5 702.9622 C 704.0817 702.9622 700.5 699.3804 700.5 694.96216 L 700.5 677.75 C 700.5 673.3317 704.0817 669.75 708.5 669.75 Z" fill="#c0ffc0"/>
        <path d="M 708.3936 669.75025 L 752.1464 669.6477 C 756.7681 669.5868 759.80245 673.4798 759.9497 677.75 M 759.95 677.5123 L 759.9294 695.3153 C 759.5585 699.4132 756.4003 702.6342 751.9497 702.9622 M 752.1991 702.9622 L 708.2169 702.9521 C 703.7381 703.3889 700.4974 699.0494 700.5 694.96216 M 700.499 695.20435 L 700.5712 677.5609 C 700.8156 673.5784 704.4034 669.50996 708.5 669.75 M 708.4248 669.702 L 751.9368 669.6098 C 756.8306 669.5243 759.86495 673.4173 760.0122 677.6875 M 760.0084 677.4811 L 759.9842 695.0543 C 759.621 699.3507 756.4628 702.5717 752.0122 702.8997 M 752.2304 702.9331 L 708.4728 702.9261 C 703.8006 703.3264 700.5599 698.9869 700.5625 694.89966 M 700.5302 695.1731 L 700.5722 677.7056 C 700.8781 673.5159 704.4659 669.44746 708.5625 669.6875" stroke="black" stroke-linecap="round" stroke-linejoin="round" stroke-width=".5"/>
        <text transform="translate(705.5 674.75)" fill="black">
          <tspan font-family="Chalkboard SE" font-size="16" fill="black" x="0" y="18" xml:space="preserve">[ 3, 9 ]</tspan>
        </text>
      </g>
      <g id="Line_54">
        <path d="M 583.6072 641.8008 L 591.4745 661.7988 M 583.73316 641.6754 L 591.3022 660.765" marker-end="url(#StickArrow_Marker)" stroke="black" stroke-linecap="round" stroke-linejoin="round" stroke-width="1"/>
      </g>
      <g id="Line_55">
        <path d="M 623.43426 642.0126 L 613.5433 661.66934 M 623.6122 641.9142 L 614.1675 660.7369" marker-end="url(#StickArrow_Marker)" stroke="black" stroke-linecap="round" stroke-linejoin="round" stroke-width="1"/>
      </g>
      <g id="Line_56">
        <path d="M 747.0589 642.1603 L 740.1961 661.08676 M 747.2943 642.0754 L 740.74385 660.1186" marker-end="url(#StickArrow_Marker)" stroke="black" stroke-linecap="round" stroke-linejoin="round" stroke-width="1"/>
      </g>
      <g id="Line_57">
        <path d="M 707.09 642.3669 L 717.6256 662.21896 M 707.2597 642.2182 L 717.3262 661.2687" marker-end="url(#StickArrow_Marker)" stroke="black" stroke-linecap="round" stroke-linejoin="round" stroke-width="1"/>
      </g>
      <g id="Graphic_58">
        <path d="M 631.3525 730 L 711.0807 730 C 715.4989 730 719.0807 733.5817 719.0807 738 L 719.0807 755.2122 C 719.0807 759.6304 715.4989 763.2122 711.0807 763.2122 L 631.3525 763.2122 C 626.9342 763.2122 623.3525 759.6304 623.3525 755.2122 L 623.3525 738 C 623.3525 733.5817 626.9342 730 631.3525 730 Z" fill="#c0ffc0"/>
        <path d="M 631.1163 729.9999 L 711.3548 730.0291 C 715.4334 729.9348 719.2718 733.8234 719.0807 738 M 719.0791 737.7623 L 719.1933 755.29905 C 719.3001 759.8495 715.9332 763.1381 711.0807 763.2122 M 711.2001 763.212 L 631.0609 763.3286 C 626.69466 762.9036 622.9849 759.4715 623.3525 755.2122 M 623.35206 755.429 L 623.38695 737.77476 C 623.189 733.8134 626.8792 730.1662 631.3525 730 M 631.1476 729.94146 L 711.15626 729.988 C 715.4959 729.8723 719.3343 733.7609 719.1432 737.9375 M 719.13815 737.73085 L 719.243 755.0787 C 719.3626 759.787 715.9957 763.0756 711.1432 763.1497 M 711.2314 763.2114 L 631.2831 763.2994 C 626.75716 762.8411 623.0474 759.409 623.415 755.1497 M 623.37 755.3978 L 623.39715 737.94655 C 623.2515 733.7509 626.9417 730.1037 631.415 729.9375" stroke="black" stroke-linecap="round" stroke-linejoin="round" stroke-width=".5"/>
        <text transform="translate(628.3525 735)" fill="black">
          <tspan font-family="Chalkboard SE" font-size="16" fill="black" x="0" y="18" xml:space="preserve">[ 3, 6, 7, 9 ]</tspan>
        </text>
      </g>
      <g id="Line_59">
        <path d="M 714.4865 702.4291 L 693.8167 723.3961 M 714.6414 702.3336 L 694.6277 722.6692" marker-end="url(#StickArrow_Marker)" stroke="black" stroke-linecap="round" stroke-linejoin="round" stroke-width="1"/>
      </g>
      <g id="Line_60">
        <path d="M 620.7786 702.60315 L 645.3295 723.6023 M 620.9687 702.402 L 644.83 722.8208" marker-end="url(#StickArrow_Marker)" stroke="black" stroke-linecap="round" stroke-linejoin="round" stroke-width="1"/>
      </g>
      <g id="Graphic_62">
        <path d="M 455.04033 921.75 L 629.6724 921.75 C 634.09065 921.75 637.6724 925.3317 637.6724 929.75 L 637.6724 946.9622 C 637.6724 951.3804 634.09065 954.9622 629.6724 954.9622 L 455.04033 954.9622 C 450.62205 954.9622 447.04033 951.3804 447.04033 946.9622 L 447.04033 929.75 C 447.04033 925.3317 450.62205 921.75 455.04033 921.75 Z" fill="#40ff40"/>
        <path d="M 454.81283 921.75 L 629.8084 921.7336 C 634.0066 922.1212 637.4273 925.118 637.6724 929.75 M 637.6722 929.5873 L 637.6891 947.3111 C 637.8454 951.213 633.96275 955.0912 629.6724 954.9622 M 629.7628 954.9622 L 455.0169 954.9293 C 450.45716 955.29 447.08764 951.7127 447.04033 946.9622 M 447.0398 947.1213 L 447.096 929.5459 C 447.19907 925.0213 450.2657 921.8878 455.04033 921.75 M 454.8441 921.6959 L 629.6188 921.6969 C 634.0691 922.0587 637.4898 925.0555 637.7349 929.6875 M 637.70674 929.556 L 637.7244 947.0484 C 637.9079 951.1505 634.02525 955.0287 629.7349 954.8997 M 629.79404 954.9532 L 455.13716 954.9167 C 450.51966 955.2275 447.15014 951.6502 447.10283 946.8997 M 447.041 947.0899 L 447.11296 929.7392 C 447.26157 924.9588 450.3282 921.8253 455.10283 921.6875" stroke="black" stroke-linecap="round" stroke-linejoin="round" stroke-width=".5"/>
        <text transform="translate(452.04033 926.75)" fill="black">
          <tspan font-family="Chalkboard SE" font-size="16" fill="black" x="0" y="18" xml:space="preserve">[ 0, 1, 2, 3, 5, 6, 7, 8, 9 ]</tspan>
        </text>
      </g>
      <g id="Line_63">
        <path d="M 434.1831 888.9167 L 497.347 917.6358 M 434.31837 888.7691 L 496.69597 917.1042" marker-end="url(#StickArrow_Marker)" stroke="black" stroke-linecap="round" stroke-linejoin="round" stroke-width="1"/>
      </g>
      <g id="Line_64">
        <path d="M 660.3444 762.7817 L 558.95925 914.5968 M 660.5384 762.7027 L 559.6283 913.794" marker-end="url(#StickArrow_Marker)" stroke="black" stroke-linecap="round" stroke-linejoin="round" stroke-width="1"/>
      </g>
    </g>
  </g>
</svg>
